<svg aria-hidden="true" style="position: absolute; width: 0; height: 0; overflow: hidden;" version="1.1" xmlns="http://www.w3.org/2000/svg" xmlns:xlink="http://www.w3.org/1999/xlink">
<defs>
<symbol id="icon-gradient" viewBox="0 0 24 24">
<title>gradient</title>
<path d="M18.984 11.016v-6h-13.969v6h1.969v1.969h2.016v2.016h2.016v-2.016h1.969v2.016h2.016v-2.016h2.016v-1.969h1.969zM17.016 18v-2.016h-2.016v2.016h2.016zM12.984 18v-2.016h-1.969v2.016h1.969zM9 18v-2.016h-2.016v2.016h2.016zM18.984 3c1.078 0 2.016 0.938 2.016 2.016v13.969c0 1.078-0.938 2.016-2.016 2.016h-13.969c-1.078 0-2.016-0.938-2.016-2.016v-13.969c0-1.078 0.938-2.016 2.016-2.016h13.969zM6.984 9h2.016v2.016h-2.016v-2.016zM15 9h2.016v2.016h-2.016v-2.016zM11.016 9h1.969v2.016h2.016v1.969h-2.016v-1.969h-1.969v1.969h-2.016v-1.969h2.016v-2.016zM17.016 12.984v2.016h1.969v-2.016h-1.969zM6.984 12.984h-1.969v2.016h1.969v-2.016z"></path>
</symbol>
<symbol id="icon-csswizardry" viewBox="0 0 32 32">
<title>csswizardry</title>
<path fill="#f43059" style="fill: var(--color1, #f43059)" d="M0.040 21.904v-20.413c0-0.824 0.667-1.491 1.489-1.491h28.871c0.832 0 1.493 0.667 1.493 1.493v19.68c-0.893-0.547-1.947-0.821-3.143-0.821-1.672 0-2.94 0.4-3.805 1.195-0.867 0.797-1.293 1.771-1.293 2.967 0 1.293 0.44 2.253 1.333 2.867 0.52 0.38 1.48 0.72 2.853 1.016l1.4 0.32c0.84 0.177 1.427 0.4 1.813 0.613 0.373 0.244 0.573 0.583 0.573 1.020 0 0.755-0.387 1.273-1.16 1.531l-0.040 0.021h-2.947c-0.383-0.139-0.68-0.339-0.92-0.6-0.24-0.299-0.4-0.733-0.48-1.351h-2.64c0 0.755 0.137 1.393 0.44 1.973h-2.24c0.253-0.52 0.4-1.097 0.4-1.756 0-1.173-0.4-2.067-1.181-2.688-0.499-0.396-1.253-0.713-2.251-0.956l-2.293-0.536c-0.88-0.187-1.453-0.373-1.733-0.533-0.413-0.24-0.613-0.6-0.613-1.053 0-0.507 0.213-0.907 0.627-1.187 0.44-0.28 1-0.413 1.72-0.413 0.653 0 1.173 0.12 1.613 0.347 0.659 0.341 1 0.92 1.053 1.716h2.667c-0.040-1.395-0.553-2.471-1.533-3.205-0.992-0.733-2.167-1.113-3.56-1.113-1.673 0-2.927 0.4-3.804 1.173-0.853 0.777-1.293 1.773-1.293 2.947 0 1.293 0.44 2.251 1.333 2.867 0.536 0.36 1.493 0.697 2.867 1.013l1.393 0.32c0.813 0.18 1.413 0.38 1.813 0.62 0.373 0.24 0.573 0.573 0.573 1.013 0 0.76-0.4 1.253-1.173 1.533h-2.987c-0.379-0.141-0.693-0.341-0.92-0.62-0.24-0.293-0.413-0.752-0.493-1.352h-2.689c0 0.744 0.14 1.4 0.427 1.973h-2.787c0.44-0.693 0.737-1.493 0.884-2.387h-2.737c-0.187 0.68-0.416 1.197-0.7 1.533-0.347 0.44-0.8 0.72-1.36 0.86h-1.636c-0.6-0.14-1.116-0.477-1.533-1.013-0.619-0.744-0.917-1.859-0.917-3.333 0-1.493 0.307-2.627 0.88-3.44 0.6-0.817 1.373-1.213 2.387-1.213 1 0 1.733 0.28 2.253 0.859 0.28 0.32 0.52 0.8 0.693 1.435h2.773c-0.040-0.824-0.347-1.653-0.915-2.48-1.029-1.467-2.659-2.2-4.885-2.2-1.547 0-2.845 0.48-3.88 1.413l-0.067-0.147zM31.899 26.752v-2.072h-0.688c-0.047-0.796-0.4-1.363-1.044-1.699-0.417-0.219-0.956-0.331-1.591-0.331-0.72 0-1.273 0.147-1.693 0.429-0.416 0.287-0.637 0.691-0.637 1.203 0 0.473 0.221 0.827 0.636 1.060 0.293 0.14 0.867 0.339 1.747 0.539l2.293 0.547c0.4 0.080 0.747 0.2 1.067 0.307l-0.067 0.040z"></path>
</symbol>
<symbol id="icon-webpack" viewBox="0 0 32 32">
<title>webpack</title>
<path fill="#8dd6f9" style="fill: var(--color2, #8dd6f9)" d="M28.021 24.16l-11.553 6.506v-5.068l7.198-3.942 4.355 2.503zM28.811 23.448v-13.607l-4.228 2.429v8.746l4.228 2.432zM3.901 24.16l11.553 6.506v-5.068l-7.198-3.942-4.355 2.503zM3.111 23.448v-13.607l4.228 2.429v8.746l-4.228 2.432zM3.605 8.96l11.849-6.674v4.9l-7.649 4.19-4.2-2.415zM28.317 8.96l-11.849-6.674v4.9l7.649 4.19 4.2-2.415zM15.454 24.446l-7.102-3.887v-7.703l7.101 4.083v7.508zM16.468 24.446l7.101-3.887v-7.703l-7.101 4.083v7.508zM8.833 11.965l7.129-3.904 7.129 3.904-7.129 4.099-7.129-4.099z"></path>
</symbol>
<symbol id="icon-javascript" viewBox="0 0 32 32">
<title>javascript</title>
<path fill="#f7df1e" style="fill: var(--color3, #f7df1e)" d="M0 0h32v32h-32v-32zM29.379 24.368c-0.233-1.46-1.184-2.687-4.004-3.831-0.981-0.46-2.072-0.78-2.396-1.52-0.121-0.44-0.14-0.68-0.061-0.94 0.2-0.861 1.22-1.12 2.020-0.88 0.52 0.16 1 0.56 1.301 1.2 1.379-0.901 1.379-0.901 2.34-1.5-0.36-0.56-0.539-0.801-0.781-1.040-0.84-0.94-1.959-1.42-3.779-1.379l-0.94 0.119c-0.901 0.22-1.76 0.7-2.28 1.34-1.52 1.721-1.081 4.721 0.759 5.961 1.82 1.36 4.481 1.659 4.821 2.94 0.32 1.56-1.16 2.060-2.621 1.88-1.081-0.24-1.68-0.781-2.34-1.781l-2.44 1.401c0.28 0.64 0.6 0.919 1.080 1.479 2.32 2.341 8.12 2.221 9.161-1.339 0.039-0.12 0.32-0.94 0.099-2.2l0.061 0.089zM17.401 14.708h-2.997c0 2.584-0.012 5.152-0.012 7.74 0 1.643 0.084 3.151-0.184 3.615-0.44 0.919-1.573 0.801-2.088 0.64-0.528-0.261-0.796-0.621-1.107-1.14-0.084-0.14-0.147-0.261-0.169-0.261l-2.433 1.5c0.407 0.84 1 1.563 1.765 2.023 1.14 0.68 2.672 0.9 4.276 0.54 1.044-0.301 1.944-0.921 2.415-1.881 0.68-1.24 0.536-2.76 0.529-4.461 0.016-2.739 0-5.479 0-8.239l0.005-0.075z"></path>
</symbol>
<symbol id="icon-sass" viewBox="0 0 32 32">
<title>sass</title>
<path fill="#c69" style="fill: var(--color4, #c69)" d="M16 0c8.836 0 16 7.164 16 16s-7.164 16-16 16-16-7.164-16-16 7.164-16 16-16zM12.82 21.331c0.233 0.86 0.208 1.664-0.032 2.389l-0.087 0.24c-0.032 0.081-0.069 0.16-0.104 0.235-0.187 0.387-0.435 0.747-0.74 1.080-0.931 1.012-2.229 1.396-2.787 1.073-0.6-0.349-0.301-1.78 0.779-2.92 1.161-1.224 2.827-2.012 2.827-2.012v-0.004l0.144-0.081zM26.035 6.849c-0.723-2.844-5.436-3.779-9.896-2.193-2.652 0.943-5.525 2.424-7.591 4.356-2.457 2.295-2.848 4.295-2.687 5.131 0.569 2.948 4.609 4.876 6.271 6.307v0.008c-0.489 0.24-4.075 2.039-4.915 3.9-0.9 1.96 0.14 3.361 0.82 3.54 2.1 0.581 4.26-0.48 5.42-2.199 1.12-1.681 1.021-3.841 0.539-4.901 0.661-0.18 1.44-0.26 2.44-0.139 2.801 0.32 3.361 2.080 3.24 2.8-0.12 0.719-0.697 1.139-0.899 1.259-0.2 0.121-0.26 0.16-0.241 0.241 0.020 0.12 0.121 0.12 0.28 0.1 0.22-0.040 1.461-0.6 1.521-1.961 0.060-1.72-1.581-3.639-4.5-3.6-1.2 0.021-1.961 0.121-2.5 0.341-0.040-0.060-0.081-0.1-0.14-0.14-1.8-1.94-5.14-3.3-5-5.88 0.040-0.94 0.38-3.419 6.4-6.419 4.94-2.461 8.881-1.78 9.561-0.28 0.977 2.139-2.101 6.12-7.241 6.699-1.96 0.22-2.98-0.539-3.241-0.82-0.279-0.3-0.319-0.32-0.419-0.259-0.16 0.080-0.060 0.34 0 0.5 0.16 0.4 0.78 1.1 1.861 1.46 0.939 0.3 3.24 0.479 6-0.6 3.099-1.199 5.519-4.54 4.819-7.34l0.097 0.089z"></path>
</symbol>
<symbol id="icon-bitbucket" viewBox="0 0 32 32">
<title>bitbucket</title>
<path fill="#0052cc" style="fill: var(--color5, #0052cc)" d="M1.037 1.615c-0.565-0.008-1.029 0.445-1.037 1.011 0 0.060 0.003 0.12 0.013 0.179l4.351 26.415c0.112 0.665 0.687 1.156 1.363 1.163h20.873c0.509 0.005 0.944-0.361 1.027-0.861l4.36-26.707c0.091-0.557-0.288-1.084-0.847-1.175-0.060-0.011-0.119-0.015-0.177-0.013l-29.925-0.011zM19.36 20.704h-6.664l-1.803-9.419h10.081l-1.615 9.419z"></path>
</symbol>
<symbol id="icon-github" viewBox="0 0 32 32">
<title>github</title>
<path d="M16 0.396c-8.84 0-16 7.164-16 16 0 7.071 4.584 13.067 10.94 15.18 0.8 0.151 1.093-0.344 1.093-0.769 0-0.38-0.013-1.387-0.020-2.72-4.451 0.965-5.389-2.147-5.389-2.147-0.728-1.847-1.78-2.34-1.78-2.34-1.449-0.992 0.112-0.972 0.112-0.972 1.607 0.112 2.451 1.648 2.451 1.648 1.427 2.447 3.745 1.74 4.66 1.331 0.144-1.035 0.556-1.74 1.013-2.14-3.553-0.4-7.288-1.776-7.288-7.907 0-1.747 0.62-3.173 1.647-4.293-0.18-0.404-0.72-2.031 0.14-4.235 0 0 1.34-0.429 4.4 1.64 1.28-0.356 2.64-0.532 4-0.54 1.36 0.008 2.72 0.184 4 0.54 3.040-2.069 4.38-1.64 4.38-1.64 0.86 2.204 0.32 3.831 0.16 4.235 1.020 1.12 1.64 2.547 1.64 4.293 0 6.147-3.74 7.5-7.3 7.893 0.56 0.48 1.080 1.461 1.080 2.96 0 2.141-0.020 3.861-0.020 4.381 0 0.42 0.28 0.92 1.1 0.76 6.401-2.099 10.981-8.099 10.981-15.159 0-8.836-7.164-16-16-16z"></path>
</symbol>
<symbol id="icon-npm" viewBox="0 0 32 32">
<title>npm</title>
<path fill="#cb3837" style="fill: var(--color6, #cb3837)" d="M0 9.779v10.667h8.888v1.776h7.112v-1.776h16v-10.667h-32zM8.888 18.664h-1.776v-5.333h-1.78v5.333h-3.552v-7.108h7.108v7.108zM14.221 18.664v1.781h-3.553v-8.889h7.112v7.109l-3.559-0.001zM30.223 18.664h-1.773v-5.333h-1.781v5.333h-1.78v-5.333h-1.773v5.333h-3.561v-7.108h10.669v7.108z"></path>
<path fill="#cb3837" style="fill: var(--color6, #cb3837)" d="M14.22 13.333h1.78v3.556h-1.78v-3.556z"></path>
</symbol>
<symbol id="icon-shopify" viewBox="0 0 32 32">
<title>shopify</title>
<path fill="#7ab55c" style="fill: var(--color7, #7ab55c)" d="M20.449 31.972l9.621-2.081s-3.472-23.484-3.5-23.64c-0.024-0.155-0.152-0.256-0.281-0.256s-2.572-0.181-2.572-0.181-1.7-1.699-1.919-1.881c-0.060-0.049-0.1-0.076-0.161-0.099l-1.219 28.139h0.031zM15.613 15.073s-1.080-0.565-2.365-0.565c-1.929 0-2.005 1.208-2.005 1.521 0 1.643 4.32 2.287 4.32 6.172 0 3.060-1.92 5.013-4.541 5.013-3.139 0-4.72-1.953-4.72-1.953l0.861-2.781s1.66 1.421 3.040 1.421c0.9 0 1.3-0.727 1.3-1.243 0-2.159-3.539-2.259-3.539-5.812-0.045-2.983 2.095-5.888 6.436-5.888 1.676 0 2.5 0.481 2.5 0.481l-1.26 3.62-0.027 0.013zM14.893 1.107c0.181 0 0.361 0.051 0.54 0.18-1.312 0.62-2.752 2.185-3.344 5.323-0.875 0.284-1.724 0.54-2.519 0.771 0.692-2.38 2.364-6.26 5.323-6.26v-0.013zM16.54 5.039v0.18c-1.005 0.309-2.111 0.645-3.192 0.981 0.621-2.369 1.777-3.527 2.78-3.961 0.257 0.668 0.412 1.568 0.412 2.8zM17.259 2.060c0.925 0.099 1.521 1.156 1.905 2.34-0.465 0.152-0.98 0.308-1.544 0.488v-0.336c0-1.003-0.128-1.828-0.361-2.495v0.003zM21.248 3.779c-0.027 0-0.080 0.028-0.104 0.028s-0.385 0.1-0.952 0.28c-0.564-1.644-1.568-3.16-3.344-3.16h-0.153c-0.515-0.648-1.136-0.927-1.675-0.927-4.141 0-6.12 5.169-6.74 7.795-1.592 0.487-2.751 0.848-2.88 0.899-0.9 0.284-0.925 0.309-1.029 1.16-0.1 0.616-2.44 18.751-2.44 18.751l18.081 3.396 1.236-28.221z"></path>
</symbol>
<symbol id="icon-git" viewBox="0 0 32 32">
<title>git</title>
<path fill="#f05032" style="fill: var(--color8, #f05032)" d="M31.395 14.573l-13.972-13.971c-0.805-0.804-2.109-0.804-2.917 0l-2.895 2.9 3.68 3.68c0.86-0.287 1.839-0.093 2.519 0.588 0.688 0.687 0.877 1.677 0.584 2.533l3.544 3.547c0.86-0.297 1.849-0.104 2.533 0.58 0.961 0.96 0.961 2.512 0 3.472-0.959 0.959-2.508 0.959-3.467 0-0.719-0.721-0.899-1.783-0.539-2.661l-3.319-3.301v8.7c0.235 0.115 0.456 0.271 0.651 0.464 0.951 0.961 0.951 2.511 0 3.467-0.959 0.961-2.519 0.961-3.479 0-0.959-0.959-0.959-2.505 0-3.464 0.243-0.24 0.516-0.421 0.807-0.541v-8.785c-0.289-0.121-0.565-0.296-0.8-0.535-0.727-0.727-0.901-1.789-0.528-2.679l-3.616-3.633-9.581 9.575c-0.8 0.807-0.8 2.112 0 2.919l13.973 13.969c0.805 0.805 2.109 0.805 2.915 0l13.907-13.907c0.807-0.804 0.807-2.109 0-2.916z"></path>
</symbol>
<symbol id="icon-mailchimp" viewBox="0 0 32 32">
<title>mailchimp</title>
<path fill="#ffe01b" style="fill: var(--color9, #ffe01b)" d="M23.973 15.121c0.22-0.028 0.443-0.028 0.663 0 0.119-0.273 0.139-0.744 0.032-1.256-0.16-0.761-0.373-1.223-0.817-1.151s-0.461 0.624-0.301 1.385c0.089 0.428 0.248 0.795 0.425 1.021zM20.16 15.724c0.319 0.14 0.513 0.232 0.589 0.152 0.049-0.051 0.035-0.147-0.040-0.271-0.157-0.257-0.48-0.517-0.823-0.663-0.253-0.108-0.548-0.171-0.857-0.171-0.497 0-0.956 0.162-1.327 0.437l0.006-0.004c-0.213 0.156-0.413 0.373-0.387 0.504 0.011 0.043 0.041 0.075 0.116 0.085 0.176 0.020 0.788-0.289 1.493-0.333 0.499-0.031 0.912 0.125 1.229 0.265zM19.52 16.089c-0.413 0.067-0.641 0.203-0.788 0.329-0.125 0.109-0.203 0.231-0.203 0.316l0.032 0.076 0.068 0.027c0.093 0 0.304-0.085 0.304-0.085 0.276-0.107 0.596-0.17 0.93-0.17 0.142 0 0.282 0.011 0.418 0.033l-0.015-0.002c0.207 0.024 0.307 0.037 0.351-0.035 0.013-0.020 0.031-0.065-0.011-0.133-0.097-0.157-0.516-0.423-1.085-0.355zM22.687 17.431c0.28 0.139 0.589 0.084 0.691-0.12 0.101-0.207-0.045-0.485-0.327-0.623-0.28-0.139-0.589-0.084-0.691 0.12-0.101 0.207 0.045 0.485 0.327 0.623zM24.493 15.849c-0.228-0.004-0.419 0.247-0.423 0.561-0.005 0.313 0.175 0.571 0.403 0.575s0.419-0.247 0.424-0.56c0.004-0.313-0.176-0.571-0.404-0.576zM9.155 21.507c-0.056-0.071-0.149-0.049-0.24-0.028-0.064 0.018-0.137 0.028-0.213 0.029h-0.001c-0.003 0-0.007 0-0.010 0-0.156 0-0.294-0.077-0.378-0.196l-0.001-0.001c-0.104-0.16-0.097-0.399 0.016-0.672l0.053-0.123c0.184-0.411 0.491-1.1 0.147-1.756-0.259-0.493-0.681-0.803-1.189-0.867-0.058-0.008-0.126-0.012-0.194-0.012-0.44 0-0.837 0.186-1.116 0.485l-0.001 0.001c-0.505 0.557-0.584 1.317-0.485 1.587 0.036 0.097 0.092 0.125 0.132 0.131 0.087 0.012 0.213-0.051 0.293-0.267l0.023-0.069c0.035-0.113 0.101-0.324 0.209-0.493 0.166-0.252 0.448-0.416 0.768-0.416 0.187 0 0.361 0.056 0.506 0.152l-0.003-0.002c0.355 0.233 0.491 0.667 0.34 1.081-0.079 0.215-0.205 0.624-0.177 0.96 0.057 0.683 0.476 0.956 0.851 0.987 0.365 0.013 0.621-0.193 0.685-0.344 0.040-0.088 0.007-0.143-0.013-0.167v0.001z"></path>
<path fill="#ffe01b" style="fill: var(--color9, #ffe01b)" d="M30.255 20.259c-0.013-0.049-0.104-0.381-0.229-0.781l-0.253-0.68c0.5-0.751 0.508-1.421 0.443-1.8-0.072-0.471-0.267-0.872-0.661-1.285-0.393-0.416-1.2-0.84-2.333-1.157l-0.593-0.165c-0.003-0.024-0.031-1.404-0.057-1.996-0.017-0.427-0.055-1.096-0.261-1.753-0.247-0.892-0.676-1.671-1.213-2.169 1.48-1.536 2.404-3.229 2.401-4.681-0.004-2.793-3.428-3.64-7.648-1.888l-0.893 0.38c-0.417-0.411-0.952-0.936-1.486-1.459l-0.154-0.15c-4.813-4.205-19.855 12.544-15.047 16.613l1.052 0.891c-0.207 0.537-0.326 1.159-0.326 1.809 0 0.205 0.012 0.407 0.035 0.606l-0.002-0.024c0.113 1.12 0.689 2.192 1.624 3.021 0.887 0.787 2.053 1.287 3.185 1.285 1.871 4.32 6.147 6.971 11.16 7.12 5.379 0.16 9.893-2.368 11.787-6.909 0.124-0.32 0.648-1.756 0.648-3.023 0-1.275-0.719-1.803-1.176-1.803zM8.251 23.659c-0.131 0.023-0.281 0.037-0.435 0.037-0.022 0-0.045-0-0.067-0.001l0.003 0c-1.624-0.044-3.379-1.508-3.553-3.247-0.193-1.92 0.787-3.397 2.52-3.747 0.174-0.036 0.374-0.057 0.579-0.057 0.053 0 0.106 0.001 0.158 0.004l-0.007-0c0.972 0.053 2.404 0.8 2.731 2.921 0.289 1.877-0.171 3.791-1.928 4.091zM6.437 15.552c-1.080 0.209-2.032 0.823-2.613 1.669-0.348-0.291-0.996-0.853-1.111-1.072-0.929-1.767 1.013-5.203 2.371-7.143 3.356-4.795 8.607-8.424 11.040-7.765 0.395 0.112 1.704 1.632 1.704 1.632s-2.431 1.351-4.685 3.235c-3.037 2.343-5.332 5.748-6.707 9.444zM23.487 22.941c0.033-0.015 0.056-0.049 0.056-0.087 0-0.003-0-0.005-0-0.008l0 0c-0.005-0.045-0.043-0.081-0.089-0.081-0.003 0-0.007 0-0.010 0.001l0-0s-2.544 0.377-4.948-0.505c0.261-0.852 0.957-0.544 2.011-0.459 0.26 0.016 0.563 0.026 0.869 0.026 1.419 0 2.79-0.201 4.088-0.577l-0.104 0.026c1.088-0.313 2.517-0.931 3.629-1.808 0.373 0.824 0.507 1.731 0.507 1.731s0.289-0.052 0.532 0.097c0.228 0.141 0.396 0.435 0.281 1.193-0.233 1.417-0.835 2.568-1.845 3.627-0.621 0.671-1.355 1.227-2.174 1.639l-0.044 0.020c-0.406 0.22-0.884 0.427-1.381 0.594l-0.066 0.019c-3.811 1.247-7.712-0.124-8.969-3.067-0.091-0.192-0.177-0.424-0.245-0.662l-0.008-0.034c-0.535-1.94-0.080-4.267 1.343-5.732 0.087-0.093 0.176-0.204 0.176-0.341 0-0.116-0.073-0.237-0.136-0.324-0.497-0.723-2.221-1.955-1.875-4.339 0.248-1.713 1.744-2.919 3.137-2.847l0.353 0.020c0.604 0.036 1.131 0.113 1.629 0.135 0.832 0.036 1.58-0.085 2.467-0.825 0.299-0.249 0.539-0.467 0.944-0.535 0.043-0.007 0.148-0.045 0.36-0.035 0.227 0.009 0.436 0.080 0.612 0.197l-0.004-0.003c0.711 0.473 0.811 1.62 0.848 2.46 0.021 0.48 0.079 1.637 0.099 1.971 0.045 0.76 0.244 0.867 0.648 1 0.227 0.076 0.439 0.132 0.749 0.219 0.94 0.265 1.497 0.533 1.849 0.879 0.211 0.215 0.307 0.444 0.337 0.663 0.112 0.811-0.627 1.812-2.584 2.721-2.14 0.995-4.733 1.247-6.527 1.047l-0.628-0.071c-1.435-0.193-2.252 1.663-1.392 2.935 0.555 0.82 2.067 1.353 3.577 1.353 3.467 0 6.131-1.481 7.121-2.763l0.080-0.113c0.048-0.073 0.008-0.113-0.053-0.072-0.809 0.555-4.405 2.759-8.253 2.095 0 0-0.467-0.076-0.893-0.243-0.339-0.132-1.048-0.459-1.133-1.188 3.104 0.961 5.057 0.052 5.057 0.052zM18.569 22.36l0.001 0.001v-0.003zM12.631 8.987c1.193-1.381 2.661-2.581 3.976-3.255 0.045-0.023 0.093 0.027 0.069 0.071-0.105 0.189-0.307 0.596-0.369 0.903-0.001 0.003-0.001 0.007-0.001 0.011 0 0.029 0.024 0.053 0.053 0.053 0.011 0 0.021-0.003 0.029-0.009l-0 0c0.819-0.559 2.241-1.157 3.491-1.233 0.053-0.004 0.080 0.065 0.036 0.099-0.205 0.159-0.391 0.344-0.548 0.551-0.007 0.009-0.011 0.020-0.011 0.032 0 0.029 0.023 0.053 0.052 0.053h0c0.876 0.007 2.112 0.313 2.917 0.767 0.053 0.031 0.016 0.136-0.045 0.123-1.219-0.28-3.213-0.493-5.285 0.013-1.849 0.452-3.261 1.149-4.291 1.9-0.053 0.039-0.115-0.031-0.073-0.080z"></path>
</symbol>
<symbol id="icon-invision" viewBox="0 0 32 32">
<title>invision</title>
<path fill="#f36" style="fill: var(--color10, #f36)" d="M29.1 0h-26.2c-1.6 0-2.9 1.3-2.9 2.9v26.2c0 1.6 1.3 2.9 2.9 2.9h26.2c1.6 0 2.9-1.3 2.9-2.9v-26.2c0-1.6-1.3-2.9-2.9-2.9zM10.693 6.223c1.064 0 1.957 0.84 1.957 1.92 0 1.093-0.893 1.925-1.957 1.925v0.036c-1.071 0-1.939-0.867-1.939-1.94s0.867-1.94 1.94-1.94zM23.781 24.643c-1.979 0-2.939-1.18-2.939-2.787 0-0.461 0.059-0.951 0.2-1.44l0.947-3.393c0.117-0.373 0.147-0.72 0.147-1.033 0-1.093-0.667-1.753-1.728-1.753-1.351 0-2.24 0.969-2.7 2.84l-1.84 7.38h-3.219l0.576-2.32c-0.944 1.555-2.26 2.513-3.88 2.513-1.956 0-2.876-1.123-2.876-2.817 0.005-0.487 0.063-0.973 0.173-1.447v0.003l1.467-5.987h-2.276l0.691-2.54h5.467l-2.16 8.54c-0.14 0.547-0.2 1-0.2 1.315 0 0.547 0.269 0.707 0.689 0.805 0.26 0.053 2.3 0.016 3.413-2.453l1.413-5.667h-2.297l0.693-2.5h4.96l-0.64 2.88c0.863-1.6 2.583-3.14 4.283-3.14 1.8 0 3.3 1.3 3.3 3.76 0 0.712-0.107 1.42-0.32 2.1l-0.92 3.301c-0.080 0.339-0.139 0.62-0.139 0.88 0 0.579 0.24 0.86 0.659 0.86s0.98-0.32 1.6-2.080l1.257 0.48c-0.74 2.619-2.101 3.699-3.8 3.699z"></path>
</symbol>
<symbol id="icon-inkscape" viewBox="0 0 32 32">
<title>inkscape</title>
<path d="M15.829 0.255c-0.993-0.015-1.952 0.371-2.657 1.072l-11.767 12.051c-4.457 4.453 2.885 4.081 5.539 5.767 1.229 0.803-3.94 1.828-2.885 2.885 1.028 1.057 6.2 2.028 7.229 3.057 1.028 1.055-2.085 2.169-1.057 3.224 1 1.057 3.399 0.057 3.827 2.456 0.313 1.771 4.4 0.888 6.229-0.628 1.139-0.972-1.972-0.972-0.944-2.028 2.572-2.599 4.856-1.167 5.799-3.568 0.516-1.284-3.884-2.2-2.712-3.028 2.801-1.969 13.083-2.969 8.34-7.709l-12.196-12.479c-0.747-0.695-1.727-1.076-2.744-1.072zM15.929 1.4c0.705 0.004 1.413 0.268 1.925 0.779l4.656 4.743c0.431 0.428 0.431 1.315 0.172 1.571l-2.312-1.883-0.457 2.769-1.913-1.029-3.115 1.971-1.028-4.14-1.656 3.597-4.143-0.029c-0.8 0-0.685-0.828 0.143-1.656 1.628-1.8 4.8-4.853 5.8-5.911 0.513-0.528 1.22-0.785 1.927-0.779l0.001-0.003zM28.936 23.101c-0.987 0.033-1.995 0.527-2.252 1.44 0 0.599 4.656 0.943 4.401-0.143-0.188-0.915-1.16-1.336-2.148-1.3v0.003zM8.475 25.695c-1.344 0.079-2.784 1.055-1.643 2.016 1.055 0.915 2.656-0.2 3.169-1.484-0.32-0.421-0.915-0.568-1.524-0.531h-0.003zM26.113 25.797c-1.315 1.2 0.227 2.456 1.512 1.628 0.344-0.231-0.028-1.34-1.512-1.628z"></path>
</symbol>
<symbol id="icon-jira" viewBox="0 0 32 32">
<title>jira</title>
<path d="M31.097 15.107l-15.097-15.107-15.107 15.107c-0.227 0.231-0.368 0.548-0.368 0.898s0.14 0.667 0.368 0.898l15.107 15.097 15.097-15.097c0.232-0.229 0.376-0.547 0.376-0.898s-0.144-0.669-0.376-0.898l-0-0zM16 20.735l-4.735-4.735 4.735-4.729 4.731 4.729-4.731 4.735z"></path>
</symbol>
<symbol id="icon-html5" viewBox="0 0 32 32">
<title>html5</title>
<path fill="#e34f26" style="fill: var(--color11, #e34f26)" d="M2 0h28l-2.547 28.751-11.484 3.249-11.419-3.251-2.551-28.749zM11.375 13l-0.309-3.624 13.412 0.004 0.307-3.496-17.568-0.004 0.931 10.68h12.168l-0.435 4.568-3.88 1.072-3.94-1.080-0.251-2.813h-3.479l0.44 5.561 7.229 1.933 7.172-1.924 0.992-10.876h-12.789z"></path>
</symbol>
<symbol id="icon-unsplash" viewBox="0 0 32 32">
<title>unsplash</title>
<path d="M10 9v-9h12v9h-12zM22 14h10v18h-32v-18h10v9h12v-9z"></path>
</symbol>
<symbol id="icon-facebook" viewBox="0 0 32 32">
<title>facebook</title>
<path fill="#3b5998" style="fill: var(--color12, #3b5998)" d="M30.235 0h-28.469c-0.975 0-1.765 0.791-1.765 1.765v28.469c0 0.976 0.791 1.765 1.765 1.765h15.325v-12.392h-4.172v-4.828h4.172v-3.567c0-4.132 2.525-6.38 6.212-6.38 1.767 0 3.285 0.129 3.728 0.188v4.32h-2.561c-2 0-2.389 0.961-2.389 2.361v3.081h4.779l-0.62 4.84h-4.159v12.376h8.153c0.977 0 1.767-0.789 1.767-1.765v-28.469c0-0.975-0.789-1.765-1.765-1.765z"></path>
</symbol>
<symbol id="icon-whatsapp" viewBox="0 0 32 32">
<title>whatsapp</title>
<path fill="#25d366" style="fill: var(--color13, #25d366)" d="M23.331 19.176c-0.401-0.2-2.356-1.156-2.72-1.288-0.364-0.135-0.631-0.2-0.897 0.2-0.263 0.393-1.028 1.285-1.259 1.549-0.233 0.26-0.465 0.28-0.861 0.1-0.4-0.2-1.684-0.62-3.204-1.98-1.184-1.060-1.979-2.36-2.213-2.76-0.232-0.4-0.025-0.62 0.173-0.82 0.181-0.18 0.401-0.46 0.601-0.697 0.195-0.241 0.259-0.401 0.396-0.661 0.133-0.28 0.065-0.5-0.033-0.699-0.1-0.2-0.896-2.16-1.229-2.941-0.32-0.779-0.649-0.68-0.896-0.68-0.229-0.020-0.495-0.020-0.761-0.020s-0.697 0.099-1.063 0.479c-0.364 0.4-1.393 1.36-1.393 3.3s1.427 3.82 1.625 4.1c0.199 0.26 2.807 4.26 6.8 5.98 0.952 0.4 1.693 0.64 2.272 0.839 0.952 0.303 1.82 0.26 2.507 0.161 0.765-0.121 2.356-0.961 2.688-1.901 0.34-0.94 0.34-1.72 0.24-1.9-0.099-0.18-0.36-0.28-0.76-0.46zM16.081 29h-0.021c-2.36 0-4.699-0.64-6.74-1.84l-0.48-0.285-5 1.3 1.34-4.86-0.319-0.5c-1.32-2.101-2.021-4.521-2.021-7.013 0-7.26 5.94-13.18 13.256-13.18 3.539 0 6.86 1.38 9.361 3.88 2.5 2.479 3.879 5.8 3.879 9.32-0.005 7.259-5.947 13.18-13.247 13.18zM27.36 4.599c-3.040-2.939-7.040-4.599-11.3-4.599-8.776 0-15.921 7.112-15.925 15.857 0 2.795 0.732 5.52 2.127 7.927l-2.261 8.216 8.447-2.203c2.328 1.257 4.947 1.925 7.613 1.929h0.008c8.78 0 15.928-7.115 15.932-15.861 0-4.235-1.653-8.22-4.66-11.215z"></path>
</symbol>
<symbol id="icon-mozillafirefox" viewBox="0 0 32 32">
<title>mozillafirefox</title>
<path fill="#ff9400" style="fill: var(--color14, #ff9400)" d="M31.213 14.64c-0.040-0.28-0.093-0.453-0.093-0.453s-0.107 0.133-0.293 0.373c-0.053-0.68-0.173-1.36-0.36-2.013-0.24-0.827-0.547-1.627-0.933-2.387-0.24-0.507-0.52-1-0.853-1.453-0.173-0.267-0.32-0.467-0.347-0.507-0.573-0.933-1.213-1.493-1.973-2.56-0.48-0.813-0.813-1.72-0.973-2.653-0.213 0.56-0.373 1.147-0.48 1.733-0.76-0.773-1.44-1.333-1.84-1.707-2-1.867-1.76-2.827-1.76-2.827s-3.733 4.16-2.12 8.493c0.56 1.467 1.52 2.76 2.787 3.707 1.56 1.28 3.24 2.293 4.12 4.893-0.707-1.373-1.787-2.507-3.107-3.293 0.4 0.947 0.6 1.947 0.587 2.973 0 3.893-3.16 7.053-7.067 7.053-0.52 0-1.053-0.053-1.56-0.173-0.613-0.12-1.2-0.32-1.747-0.6-0.827-0.493-1.547-1.147-2.107-1.933v-0.013c0.067 0.027 0.107 0.040 0.12 0.040 0.293 0.107 0.587 0.187 0.893 0.24 1.2 0.253 2.44 0.107 3.547-0.413 1.12-0.627 1.8-1.080 2.347-0.907s0.96-0.347 0.587-0.893c-0.667-0.867-1.76-1.28-2.827-1.093-1.12 0.16-2.147 0.947-3.6 0.187-0.107-0.053-0.187-0.107-0.28-0.16-0.093-0.067 0.32 0.080 0.213 0.013-0.32-0.16-0.627-0.333-0.92-0.547-0.013-0.013 0.227 0.067 0.2 0.053-0.373-0.253-0.707-0.587-0.96-0.973-0.253-0.467-0.28-1.040-0.067-1.533 0.147-0.253 0.347-0.44 0.6-0.56 0.187 0.093 0.307 0.16 0.307 0.16s-0.093-0.16-0.133-0.24c0.013-0.013 0.027 0 0.053-0.013 0.16 0.067 0.52 0.253 0.72 0.373 0.133 0.067 0.24 0.173 0.333 0.293 0 0 0.067-0.027 0.013-0.173-0.067-0.173-0.187-0.32-0.347-0.413h0.027c0.147 0.080 0.28 0.16 0.413 0.267 0.12-0.293 0.187-0.587 0.173-0.893 0.013-0.173-0.013-0.347-0.067-0.493-0.053-0.107 0.027-0.147 0.12-0.040-0.013-0.080-0.040-0.16-0.080-0.24 0 0 0.053-0.080 0.080-0.093 0.067-0.067 0.133-0.133 0.213-0.173 0.467-0.293 0.947-0.547 1.453-0.747 0.413-0.173 0.747-0.32 0.813-0.36 0.107-0.067 0.2-0.133 0.293-0.213 0.347-0.293 0.573-0.693 0.653-1.133 0.013-0.067 0.013-0.12 0.013-0.173v-0.107c-0.053-0.227-0.44-0.387-2.453-0.587-0.707-0.107-1.28-0.64-1.44-1.347v0.013c-0.027 0.067-0.053 0.147-0.080 0.227 0.027-0.080 0.053-0.147 0.080-0.227v-0.013c0.387-1 1.080-1.867 1.973-2.453 0.053-0.040-0.2 0.013-0.147-0.027 0.16-0.080 0.333-0.16 0.52-0.227 0.093-0.027-0.387-0.213-0.813-0.173-0.253 0.013-0.507 0.080-0.747 0.173 0.107-0.080 0.4-0.187 0.333-0.187-0.547 0.093-1.067 0.293-1.533 0.573 0-0.053 0.013-0.093 0.027-0.133-0.373 0.16-0.707 0.413-0.947 0.733v-0.173c-0.173 0.133-0.32 0.28-0.467 0.44h-0.013c-1.107-0.427-2.307-0.533-3.48-0.293l-0.013-0.013h0.013c-0.24-0.187-0.453-0.427-0.613-0.693l-0.013 0.013-0.027-0.027c-0.080-0.107-0.147-0.24-0.227-0.387-0.067-0.093-0.12-0.213-0.187-0.333 0 0 0-0.013-0.013-0.013s-0.040 0.12-0.053 0.080c-0.2-0.533-0.307-1.107-0.28-1.667h-0.013c-0.333 0.227-0.587 0.547-0.707 0.933-0.067 0.133-0.107 0.2-0.147 0.28v-0.040l0.040-0.2c-0.013 0.013-0.013 0.027-0.027 0.040-0.093 0.107-0.173 0.227-0.24 0.36-0.067 0.12-0.12 0.253-0.16 0.387v-0.067c0-0.053 0.013-0.133 0-0.107l-0.013 0.040c-0.427 0.947-0.707 1.96-0.8 3-0.027 0.187-0.027 0.36-0.027 0.533v0.027c-0.307 0.333-0.573 0.693-0.813 1.080-0.773 1.307-1.347 2.72-1.707 4.2 0.253-0.56 0.56-1.107 0.92-1.613-0.693 1.747-1.040 3.587-1.040 5.453 0.12-0.547 0.267-1.080 0.44-1.613-0.107 2.2 0.32 4.4 1.24 6.413 1.24 2.773 3.293 5.107 5.907 6.68 1.053 0.72 2.213 1.28 3.427 1.653 0.16 0.053 0.333 0.12 0.493 0.173-0.053-0.027-0.093-0.053-0.147-0.067 1.44 0.427 2.947 0.653 4.453 0.653 5.347 0 7.107-2.040 7.28-2.24 0.253-0.24 0.48-0.52 0.627-0.853 0.107-0.040 0.2-0.080 0.307-0.133l0.067-0.027c0.080-0.040 0.12-0.053 0.12-0.053 0.813-0.387 1.573-0.853 2.267-1.413 1.040-0.747 1.773-1.84 2.093-3.080 0.2-0.453 0.2-0.947 0.040-1.413 0.080-0.133 0.147-0.253 0.16-0.28 1.147-1.84 1.8-3.947 1.893-6.12v-0.187c0-0.453-0.040-0.92-0.12-1.373z"></path>
</symbol>
<symbol id="icon-jenkins" viewBox="0 0 32 32">
<title>jenkins</title>
<path fill="#d24939" style="fill: var(--color15, #d24939)" d="M3.831 32h-1.3c-0.033-0.088-0.065-0.175-0.093-0.263-0.287-0.888-0.792-1.987-0.923-2.872-0.195-1.312 1.040-1.385 1.832-1.953 1.22-0.88 2.18-1.367 3.503-2.161 0.393-0.237 1.576-0.831 1.708-1.104 0.268-0.544-0.46-1.309-0.653-1.735-0.3-0.675-0.46-1.248-0.501-1.912-1.099-0.175-1.94-0.836-2.459-1.58-0.84-1.233-1.421-3.513-0.7-5.248 0.060-0.137 0.339-0.407 0.38-0.617 0.080-0.412-0.14-0.96-0.161-1.399-0.080-2.256 0.38-4.2 1.901-4.88 0.617-2.453 2.817-3.271 4.897-4.489 0.775-0.456 1.632-0.749 2.52-1.076 3.163-1.169 8.037-0.949 10.66 1.044 1.115 0.844 2.901 2.628 3.541 3.919 1.683 3.407 1.56 9.101 0.383 13.247-0.161 0.561-0.388 1.376-0.711 2.044-0.224 0.465-0.919 1.4-0.833 1.813 0.085 0.419 1.585 1.56 1.909 1.86 0.579 0.563 1.68 1.3 1.765 2 0.093 0.743-0.331 1.781-0.547 2.5-0.289 0.961-0.581 1.921-0.872 2.841l-25.247 0.021zM18.636 27.279c-0.727-0.399-1.815-0.828-2.753-1.008-1.159-0.219-1.039 1.584-1 2.659 0.040 0.857 0.481 1.755 0.681 2.325 0.1 0.263 0.119 0.547 0.34 0.599 0.4 0.091 1.72-0.435 2.1-0.639 0.8-0.437 1.419-1.125 2.099-1.585 0.021-0.227 0.021-0.453 0.041-0.677-0.401-0.197-0.86-0.344-1.461-0.369 0.419-0.2 1-0.2 1.38-0.443l0.021-0.257c-0.661-0.041-0.919-0.339-1.361-0.581l-0.087-0.023zM28.576 31.193c0.257-0.825 0.479-1.628 0.62-2.336 0.079-0.383 0.287-1.224 0.237-1.568-0.079-0.612-0.912-1.065-1.339-1.448-0.779-0.7-1.268-1.3-2.081-1.959-0.331 0.5-1.039 0.82-1.309 1.219 1.929-0.919 2.279 3.5 1.521 4.919 0.12 0.44 0.521 0.601 0.685 0.981l-0.115 0.221h1.719c0.019 0 0.041 0 0.060 0.019l0.001-0.048zM19.729 31.177c-0.065-0.099-0.133-0.18-0.2-0.279l-0.401 0.26h0.601v0.019zM23.424 31.177c0.011-0.279 0.024-0.539 0.039-0.797-0.705 0.039-1.099-0.64-1.593-0.703-0.432-0.060-0.8 0.481-1.36 0.26-0.128 0.14-0.245 0.303-0.38 0.421 0.205 0.24 0.393 0.5 0.565 0.779h1.088c0.019-0.219 0.18-0.38 0.399-0.38 0.221 0 0.38 0.161 0.38 0.36h0.88l-0.017 0.060zM26.245 31.177c-0.419-0.639-1.263-1.197-2.24-0.74l-0.041 0.721h2.281v0.019zM14.899 31.177l-0.14-0.459c-0.3-0.961-0.479-1.68-0.54-2.24-1.219-0.581-2.5-1.161-3.539-1.901-0.2-0.14-1.479-1.8-1.64-1.74-2.319 0.901-4.479 2.479-6.419 3.979 0.341 0.743 0.64 1.521 0.92 2.32h11.34l0.017 0.041zM25.919 28.36c-0.039-0.683-0.219-2.081-0.64-2.32-0.88-0.521-2.461 1.039-3.12 1.257 0.060 0.2 0.18 0.361 0.2 0.64 0.38-0.099 0.86-0.039 1.197 0.123-0.399 0.039-0.839 0.039-1.099 0.219-0.099 0.26 0.021 0.64-0.039 1.019 0.919 0.263 2 0.404 3.18 0.443 0.219-0.303 0.3-0.86 0.281-1.443l0.039 0.063zM20.479 27.88c-0.060 0.5 0.060 0.68 0.159 1.257 1.68 0.521 1.38-2.32-0.18-1.279l0.021 0.021zM11.681 26c-0.6 0.609 1.695 1.443 2.419 1.487 0-0.388 0.22-0.752 0.18-1.028-0.865-0.156-2.003-0.055-2.593-0.461l-0.005 0.003zM19.101 26.287c0 0.057-0.081 0.039-0.091 0.085 0.773 0.601 1.352 0.727 2.404 0.68 0.472-0.349 0.893-0.751 1.391-1.076-1.14 0.099-2.576 0.809-3.7 0.305l-0.004 0.005zM23.661 2.651c-2.14-1.208-5.8-2.121-8.101-0.975-1.84 0.923-4.36 2.455-5.199 4.389 0.8 1.869-0.221 3.581-0.301 5.479-0.024 1.011 0.48 1.893 0.521 2.991-0.267 0.451-1.1 0.507-1.68 0.475-0.195-0.972-0.535-2.065-1.54-2.175-1.419-0.153-2.46 1.020-2.521 2.245-0.080 1.439 1.112 3.819 2.781 3.66 0.651-0.061 0.811-0.721 1.519-0.721 0.38 0.76-0.593 1-0.697 1.54-0.021 0.14 0.079 0.681 0.139 0.94 0.311 1.259 0.992 2.879 1.66 3.84 0.847 1.2 2.512 1.401 4.305 1.521 0.32-0.7 1.5-0.64 2.275-0.461-0.921-0.36-1.781-1.26-2.5-2.039-0.82-0.901-1.64-1.88-1.681-3.040 1.54 2.139 2.8 3.999 5.601 4.939 2.12 0.7 4.599-0.339 6.219-1.479 0.68-0.479 1.081-1.24 1.56-1.919 1.8-2.581 2.64-6.28 2.461-9.86-0.081-1.481-0.081-2.961-0.581-3.94-0.519-1.041-2.26-1.961-3.3-1.041-0.2-1.019 0.839-1.639 2.060-1.279-0.88-1.14-1.781-2.479-3.021-3.18l0.023 0.089zM18.109 19.861c0.82 2.059 3.633 1.817 6.008 1.764-0.112 0.259-0.341 0.58-0.62 0.687-0.76 0.309-2.861 0.544-3.917-0.016-0.675-0.361-1.099-1.164-1.469-1.636-0.183-0.229-1.060-0.811-0.016-0.812l0.015 0.013zM18.328 18.7c1.191 0.62 3.36 0.691 4.976 0.64 0.088 0.357 0.088 0.792 0.091 1.219-2.068 0.107-4.516-0.405-5.060-1.86h-0.007zM27.229 17.92c-0.631 1.2-1.527 2.529-3.385 2.571-0.031-0.379-0.060-0.98 0-1.205 1.419-0.137 2.303-0.861 3.391-1.356l-0.005-0.009zM26.364 17.031c-1.36 0.88-2.872 1.833-5.099 1.613-0.469-0.413-0.648-1.335-0.188-1.944 0.243 0.417 0.081 1.18 0.76 1.292 1.26 0.221 2.719-0.771 3.64-1.12 0.56-0.949-0.060-1.3-0.56-1.909-1.041-1.241-2.44-2.8-2.401-4.68 0.419-0.3 0.461 0.46 0.521 0.599 0.539 1.281 1.899 2.901 2.899 4 0.24 0.281 0.64 0.521 0.68 0.7 0.123 0.519-0.339 1.139-0.279 1.479l0.027-0.029zM8.444 16.131c-0.419-0.245-0.524-1.32-1.024-1.347-0.713-0.040-0.584 1.399-0.581 2.239-0.493-0.439-0.58-1.819-0.219-2.52-0.411-0.2-0.593 0.22-0.824 0.38 0.293-2.12 3.12-0.979 2.652 1.28l-0.004-0.032zM6.285 7.992c-0.913 1.008-0.72 2.899-0.612 4.251 1.659-1.047 3.864 0.080 3.844 1.86 0.793-0.021 0.297-0.992 0.153-1.62-0.471-2.039 0.789-4.251 0.055-6.12-1.419 0.111-2.585 0.692-3.437 1.619l-0.003 0.011zM18.445 9.476c0.409 0.749 0.539 1.531 1.12 2.093 0.26 0.255 0.765 0.565 0.516 1.268-0.060 0.161-0.487 0.521-0.735 0.6-0.899 0.26-3.005 0.040-2.295-1.080 0.751 0.020 1.752 0.479 2.309-0.060-0.419-0.7-1.18-2.040-0.899-2.84l-0.017 0.019zM26.711 9.459h0.091c0.44 0.891 0.8 1.833 1.339 2.62-0.36 0.839-2.737 1.587-2.697 0.076 0.519-0.227 1.399-0.047 1.86-0.333-0.257-0.741-0.64-1.341-0.579-2.361l-0.013-0.001zM17.473 7.303c-1.896-0.44-2.841 0.789-3.413 2.071-0.512-0.125-0.308-0.82-0.18-1.177 0.34-0.935 1.707-2.177 2.825-2.008 0.479 0.076 1.131 0.515 0.768 1.112v0.003zM12.857 2.123c-2.080 0.587-4.747 2.099-5.6 3.965 0.66-0.093 1.12-0.428 1.773-0.468 0.248-0.021 0.571 0.099 0.855 0.020 0.565-0.139 1.040-1.42 1.469-1.879 0.415-0.461 0.913-0.663 1.255-1.081 0.221-0.12 0.544-0.099 0.56-0.44-0.099-0.1-0.2-0.18-0.311-0.14v0.023z"></path>
</symbol>
<symbol id="icon-windows" viewBox="0 0 32 32">
<title>windows</title>
<path fill="#0078d6" style="fill: var(--color16, #0078d6)" d="M0 4.599l13-1.799v12.601h-13zM14.599 2.599l17.401-2.599v15.2h-17.401zM0 16.8h13v12.601l-13-1.803zM14.599 16.8h17.401v15.2l-17.2-2.401z"></path>
</symbol>
<symbol id="icon-nodemon" viewBox="0 0 32 32">
<title>nodemon</title>
<path fill="#76d04b" style="fill: var(--color17, #76d04b)" d="M29.773 10.468l-0.955-0.531c1.468-2.092 2.344-5.236 1.245-9.937 0 0-2.476 6.705-7.453 6.484l-5.827-3.241c-0.206-0.118-0.451-0.191-0.712-0.2l-0.003-0h-0.135c-0.265 0.009-0.511 0.082-0.725 0.204l0.008-0.004-5.828 3.241c-4.977 0.223-7.453-6.484-7.453-6.484-1.1 4.701-0.221 7.845 1.245 9.937l-0.955 0.531c-0.469 0.261-0.782 0.752-0.785 1.317v0l0.029 19.455c0 0.271 0.145 0.523 0.392 0.655 0.112 0.066 0.246 0.105 0.389 0.105s0.278-0.039 0.393-0.107l-0.004 0.002 7.72-4.272c0.488-0.281 0.785-0.776 0.785-1.316v-9.089c0-0.541 0.297-1.044 0.784-1.312l3.287-1.829c0.225-0.129 0.494-0.205 0.781-0.205 0.002 0 0.004 0 0.006 0h-0c0.267 0 0.543 0.067 0.78 0.205l3.287 1.829c0.487 0.268 0.784 0.771 0.784 1.312v9.089c0 0.54 0.301 1.039 0.787 1.316l7.717 4.272c0.113 0.066 0.248 0.105 0.393 0.105s0.28-0.039 0.396-0.107l-0.004 0.002c0.233-0.13 0.388-0.374 0.389-0.654v-0l0.025-19.455c-0.002-0.566-0.315-1.058-0.778-1.313l-0.008-0.004z"></path>
</symbol>
<symbol id="icon-adobephotoshop" viewBox="0 0 32 32">
<title>adobephotoshop</title>
<path fill="#00c8ff" style="fill: var(--color18, #00c8ff)" d="M0 0.4v31.2h32v-31.2h-32zM1.333 1.733h29.333v28.533h-29.333v-28.533zM7.733 7.707c0-0.089 0.187-0.155 0.299-0.155 0.859-0.044 2.117-0.067 3.437-0.067 3.696 0 5.133 2.027 5.133 4.621 0 3.387-2.456 4.84-5.469 4.84-0.507 0-0.68-0.023-1.033-0.023v5.123c0 0.111-0.044 0.155-0.153 0.155h-2.059c-0.111 0-0.153-0.040-0.153-0.151v-14.344zM10.1 14.789c0.307 0.021 0.549 0.021 1.080 0.021 1.56 0 3.027-0.549 3.027-2.661 0-1.693-1.048-2.552-2.829-2.552-0.528 0-1.033 0.021-1.276 0.044v5.152zM21.576 13.205c-1.056 0-1.408 0.528-1.408 0.968 0 0.484 0.24 0.813 1.649 1.54 2.091 1.013 2.749 1.98 2.749 3.409 0 2.133-1.627 3.28-3.827 3.28-1.168 0-2.16-0.244-2.733-0.573-0.087-0.044-0.107-0.109-0.107-0.22v-1.956c0-0.133 0.064-0.177 0.152-0.112 0.832 0.551 1.803 0.792 2.683 0.792 1.056 0 1.496-0.44 1.496-1.035 0-0.484-0.307-0.903-1.649-1.607-1.893-0.907-2.685-1.827-2.685-3.369 0-1.716 1.341-3.147 3.673-3.147 1.147 0 1.952 0.176 2.392 0.373 0.109 0.067 0.133 0.176 0.133 0.264v1.827c0 0.111-0.067 0.177-0.2 0.133-0.592-0.352-1.467-0.573-2.324-0.573z"></path>
</symbol>
<symbol id="icon-codepen" viewBox="0 0 32 32">
<title>codepen</title>
<path d="M32 10.909l-0.024-0.116-0.023-0.067c-0.013-0.032-0.024-0.067-0.040-0.1-0.004-0.024-0.020-0.045-0.027-0.067l-0.047-0.089-0.040-0.067-0.059-0.080-0.061-0.060-0.080-0.060-0.061-0.040-0.080-0.059-0.059-0.053-0.020-0.027-14.607-9.772c-0.463-0.309-1.061-0.309-1.523 0l-14.805 9.883-0.051 0.053-0.067 0.075-0.049 0.060-0.067 0.080c-0.027 0.023-0.040 0.040-0.040 0.061l-0.067 0.080-0.027 0.080c-0.027 0.013-0.027 0.053-0.040 0.093l-0.013 0.067c-0.025 0.041-0.025 0.081-0.025 0.121v9.996c0 0.059 0.004 0.12 0.013 0.18l0.013 0.061c0.007 0.040 0.013 0.080 0.027 0.115l0.020 0.067c0.013 0.036 0.021 0.071 0.036 0.1l0.029 0.067c0 0.013 0.020 0.053 0.040 0.080l0.040 0.053c0.020 0.013 0.040 0.053 0.060 0.080l0.040 0.053 0.053 0.053c0.013 0.017 0.013 0.040 0.040 0.040l0.080 0.056 0.053 0.040 0.013 0.019 14.627 9.773c0.219 0.16 0.5 0.217 0.76 0.217s0.52-0.080 0.76-0.24l14.877-9.875 0.069-0.077 0.044-0.060 0.053-0.080 0.040-0.067 0.040-0.093 0.021-0.069 0.040-0.103 0.020-0.060 0.040-0.107v-10c0-0.067 0-0.127-0.021-0.187l-0.019-0.060 0.059 0.004zM16.013 19.283l-4.867-3.253 4.867-3.256 4.867 3.253-4.867 3.253zM14.635 10.384l-5.964 3.987-4.817-3.221 10.781-7.187v6.424zM6.195 16.028l-3.443 2.307v-4.601l3.443 2.301zM8.671 17.695l5.964 3.987v6.427l-10.781-7.188 4.824-3.223v-0.005zM17.387 21.681l5.965-3.973 4.817 3.227-10.783 7.187v-6.427zM25.827 16.041l3.444-2.293v4.608l-3.444-2.307zM23.353 14.388l-5.964-3.988v-6.44l10.78 7.187-4.816 3.224z"></path>
</symbol>
<symbol id="icon-trello" viewBox="0 0 32 32">
<title>trello</title>
<path fill="#0079bf" style="fill: var(--color19, #0079bf)" d="M28 0h-24c-2.209 0-4 1.791-4 4v24c0 2.208 1.791 4 4 4h24c2.208 0 4-1.792 4-4v-24c0-2.209-1.792-4-4-4zM13.92 24.24c0 1.060-0.86 1.92-1.92 1.92h-5.92c-1.060 0-1.92-0.861-1.92-1.92v-18.16c0-1.060 0.86-1.92 1.92-1.92h5.92c1.060 0 1.92 0.86 1.92 1.92v18.16zM27.84 16.24c0 1.059-0.86 1.92-1.92 1.92h-5.92c-1.060 0-1.92-0.861-1.92-1.92v-10.16c0-1.060 0.861-1.92 1.92-1.92h5.92c1.060 0 1.92 0.86 1.92 1.92v10.16z"></path>
</symbol>
<symbol id="icon-udemy" viewBox="0 0 32 32">
<title>udemy</title>
<path fill="#ec5252" style="fill: var(--color20, #ec5252)" d="M31.44 17.84c-0.103-0.088-0.229-0.153-0.367-0.186l-0.006-0.001c-0.8 0.813-1.8 1.667-2.667 2.24-0.413 0.267-0.933 0.4-1.267 0.4-0.787 0-1.12-0.733-1.213-1.92-0.146-1.733-0.23-3.751-0.23-5.788 0-0.229 0.001-0.458 0.003-0.687l-0 0.035c0-3.013-0.693-5.067-2.507-5.227l-0.24-0.013c-1.107 0-1.653 0.573-2.36 2.027-0.613 1.253-1.56 3.067-3.307 6.533-1.438 2.839-2.989 5.277-4.746 7.546l0.079-0.106c-0.413 0.507-0.733 0.853-1.040 1.067-0.164 0.114-0.367 0.183-0.586 0.187h-0.001c-0.573 0-1-0.48-1.133-1.613-0.034-0.264-0.053-0.57-0.053-0.88 0-0.014 0-0.028 0-0.042v0.002c0-2.333 0.88-6.133 2.4-11.707 1.107-4.067 0.64-6.84-1.787-6.84h-0.040c-0.547 0-1 0.213-1.44 0.56-0.44 0.333-0.867 1.080-1.28 2.080-0.453 1.12-3.227 6.707-7.653 9.6-0.053 1.080 0.56 2.173 1.827 2.307 1.133 0.107 1.947-0.373 2.987-1.080l-0.213 0.973c-0.221 0.868-0.454 2.042-0.637 3.232l-0.030 0.235c-0.613 5.6 1.96 8.36 4.987 8.36 0.507 0 1.013-0.067 1.507-0.2 3.333-0.84 6.533-4.68 10.333-13.507-0.027 0.44-0.043 0.953-0.043 1.471 0 0.43 0.011 0.858 0.032 1.282l-0.002-0.060c0.253 5.067 2.24 6.573 5.067 6.573 2.133 0 4.12-1.107 5.133-2.493 0.632-0.798 1.023-1.81 1.053-2.913l0-0.007c-0.027-0.653-0.227-1.173-0.56-1.44z"></path>
</symbol>
<symbol id="icon-linkedin1" viewBox="0 0 32 32">
<title>linkedin1</title>
<path fill="#0077b5" style="fill: var(--color21, #0077b5)" d="M27.263 27.269h-4.739v-7.425c0-1.771-0.036-4.049-2.469-4.049-2.471 0-2.848 1.927-2.848 3.919v7.556h-4.739v-15.269h4.552v2.081h0.061c0.636-1.2 2.183-2.467 4.493-2.467 4.801 0 5.689 3.16 5.689 7.273v8.381zM7.116 9.911c-1.525 0-2.751-1.235-2.751-2.753 0-1.517 1.227-2.751 2.751-2.751 1.52 0 2.752 1.233 2.752 2.751 0 1.519-1.233 2.753-2.752 2.753zM9.492 27.269h-4.752v-15.269h4.752v15.269zM29.633 0h-27.272c-1.305 0-2.361 1.032-2.361 2.305v27.389c0 1.275 1.056 2.305 2.361 2.305h27.268c1.304 0 2.371-1.031 2.371-2.305v-27.389c0-1.273-1.067-2.305-2.371-2.305h0.004z"></path>
</symbol>
<symbol id="icon-react" viewBox="0 0 32 32">
<title>react</title>
<path fill="#61dafb" style="fill: var(--color22, #61dafb)" d="M18.852 16c0 1.575-1.277 2.852-2.852 2.852s-2.852-1.277-2.852-2.852c0-1.575 1.277-2.852 2.852-2.852s2.852 1.277 2.852 2.852z"></path>
<path fill="#61dafb" style="fill: var(--color22, #61dafb)" d="M8.011 21.673l-0.629-0.16c-4.691-1.185-7.381-3.197-7.381-5.519s2.691-4.333 7.381-5.519l0.629-0.159 0.177 0.624c0.545 1.86 1.163 3.443 1.899 4.957l-0.082-0.186 0.135 0.284-0.135 0.284c-0.656 1.329-1.275 2.912-1.761 4.551l-0.056 0.22-0.177 0.623zM7.089 11.933c-3.565 1.001-5.753 2.533-5.753 4.061 0 1.527 2.188 3.059 5.753 4.061 0.512-1.62 1.046-2.965 1.662-4.263l-0.086 0.202c-0.531-1.098-1.066-2.443-1.511-3.828l-0.065-0.234zM23.989 21.673l-0.177-0.625c-0.544-1.859-1.162-3.441-1.9-4.954l0.081 0.184-0.135-0.284 0.135-0.284c0.656-1.329 1.275-2.911 1.762-4.55l0.056-0.221 0.177-0.624 0.631 0.159c4.689 1.185 7.38 3.197 7.38 5.52s-2.691 4.333-7.38 5.519l-0.631 0.16zM23.335 15.995c0.64 1.385 1.169 2.747 1.576 4.061 3.567-1.003 5.753-2.535 5.753-4.061 0-1.528-2.188-3.059-5.753-4.061-0.511 1.619-1.045 2.963-1.662 4.262l0.086-0.2z"></path>
<path fill="#61dafb" style="fill: var(--color22, #61dafb)" d="M7.080 11.927l-0.177-0.623c-1.319-4.648-0.919-7.979 1.097-9.141 1.977-1.141 5.152 0.207 8.479 3.621l0.453 0.465-0.453 0.465c-1.146 1.19-2.207 2.482-3.162 3.853l-0.068 0.103-0.18 0.257-0.313 0.027c-1.875 0.151-3.596 0.439-5.264 0.86l0.218-0.047-0.629 0.159zM9.608 3.087c-0.357 0-0.673 0.077-0.94 0.231-1.325 0.764-1.56 3.42-0.647 7.004 1.21-0.285 2.681-0.521 4.18-0.658l0.131-0.010c0.894-1.264 1.792-2.37 2.756-3.414l-0.020 0.022c-2.080-2.025-4.049-3.175-5.46-3.175zM22.393 30.236c-0.001 0-0.001 0 0 0-1.9 0-4.34-1.431-6.872-4.031l-0.453-0.465 0.453-0.465c1.146-1.19 2.206-2.482 3.16-3.854l0.068-0.103 0.18-0.257 0.312-0.027c1.875-0.15 3.597-0.438 5.267-0.858l-0.218 0.046 0.629-0.159 0.179 0.624c1.316 4.645 0.917 7.977-1.099 9.139-0.449 0.259-0.988 0.411-1.562 0.411-0.016 0-0.031-0-0.047-0l0.002 0zM16.932 25.728c2.080 2.025 4.049 3.175 5.46 3.175h0.001c0.356 0 0.673-0.077 0.939-0.231 1.325-0.764 1.561-3.421 0.647-7.005-1.212 0.286-2.682 0.522-4.182 0.658l-0.13 0.010c-0.893 1.265-1.791 2.371-2.755 3.416l0.020-0.022z"></path>
<path fill="#61dafb" style="fill: var(--color22, #61dafb)" d="M24.92 11.927l-0.629-0.159c-1.453-0.376-3.175-0.664-4.939-0.806l-0.111-0.007-0.312-0.027-0.18-0.257c-1.021-1.474-2.082-2.766-3.237-3.966l0.009 0.010-0.453-0.465 0.453-0.465c3.325-3.413 6.499-4.761 8.479-3.621 2.016 1.163 2.416 4.493 1.099 9.14l-0.179 0.624zM19.667 9.653c1.523 0.139 2.969 0.364 4.312 0.668 0.915-3.584 0.679-6.24-0.647-7.004-1.317-0.761-3.793 0.405-6.4 2.944 0.943 1.022 1.841 2.128 2.666 3.289l0.069 0.103zM9.608 30.236c-0.014 0-0.030 0-0.046 0-0.574 0-1.113-0.152-1.577-0.419l0.015 0.008c-2.016-1.161-2.416-4.492-1.097-9.139l0.176-0.624 0.629 0.159c1.54 0.388 3.239 0.661 5.047 0.812l0.313 0.027 0.179 0.257c1.022 1.475 2.083 2.767 3.239 3.967l-0.010-0.010 0.453 0.465-0.453 0.465c-2.531 2.6-4.971 4.031-6.868 4.031zM8.021 21.667c-0.915 3.584-0.679 6.241 0.647 7.005 1.316 0.751 3.791-0.407 6.4-2.944-0.943-1.022-1.841-2.129-2.667-3.29l-0.069-0.103c-1.629-0.146-3.099-0.382-4.534-0.711l0.224 0.043z"></path>
<path fill="#61dafb" style="fill: var(--color22, #61dafb)" d="M16 22.504c-1.097 0-2.225-0.048-3.355-0.141l-0.313-0.027-0.18-0.257c-0.544-0.768-1.139-1.691-1.697-2.639l-0.103-0.19c-0.452-0.758-0.971-1.732-1.45-2.728l-0.105-0.243-0.133-0.284 0.133-0.284c0.584-1.239 1.102-2.212 1.658-3.161l-0.103 0.191c0.552-0.955 1.159-1.907 1.8-2.829l0.18-0.257 0.313-0.027c1.005-0.090 2.174-0.142 3.355-0.142s2.35 0.052 3.505 0.153l-0.15-0.011 0.312 0.027 0.179 0.257c1.177 1.666 2.294 3.567 3.252 5.56l0.104 0.24 0.135 0.284-0.135 0.284c-1.058 2.232-2.176 4.133-3.439 5.925l0.083-0.125-0.179 0.257-0.312 0.027c-1.129 0.093-2.259 0.141-3.356 0.141zM13.071 21.059c1.973 0.148 3.885 0.148 5.86 0 1.004-1.445 1.978-3.104 2.827-4.836l0.101-0.228c-0.947-1.958-1.922-3.617-3.012-5.19l0.083 0.126c-0.877-0.071-1.898-0.111-2.929-0.111s-2.052 0.040-3.063 0.119l0.134-0.008c-1.008 1.447-1.983 3.106-2.83 4.84l-0.099 0.224c0.951 1.96 1.926 3.619 3.014 5.193l-0.085-0.13z"></path>
</symbol>
<symbol id="icon-buffer" viewBox="0 0 32 32">
<title>buffer</title>
<path fill="#168eea" style="fill: var(--color23, #168eea)" d="M31.712 24.32c0.383 0.189 0.383 0.356 0 0.499l-15.143 6.964c-0.383 0.193-0.76 0.193-1.139 0l-15.147-6.964c-0.379-0.143-0.379-0.309 0-0.5l3.629-1.64c0.379-0.187 0.76-0.187 1.136 0l10.383 4.764c0.38 0.187 0.76 0.187 1.139 0l10.383-4.765c0.377-0.187 0.757-0.187 1.136 0l3.623 1.64zM31.712 15.715c0.383 0.191 0.383 0.38 0 0.568l-15.143 6.971c-0.383 0.139-0.76 0.139-1.139 0l-15.147-6.973c-0.379-0.191-0.379-0.379 0-0.568l3.629-1.636c0.379-0.192 0.76-0.192 1.136 0l10.383 4.76c0.38 0.192 0.76 0.192 1.139 0l10.383-4.76c0.377-0.192 0.757-0.192 1.136 0l3.623 1.635zM0.285 7.68c-0.38-0.191-0.38-0.356 0-0.5l15.147-6.967c0.377-0.187 0.76-0.187 1.136 0l15.144 6.973c0.383 0.143 0.383 0.309 0 0.5l-15.143 6.964c-0.383 0.191-0.76 0.191-1.139 0l-15.147-6.971z"></path>
</symbol>
<symbol id="icon-css3" viewBox="0 0 32 32">
<title>css3</title>
<path fill="#1572b6" style="fill: var(--color24, #1572b6)" d="M2 0h28l-2.547 28.751-11.484 3.249-11.42-3.251-2.549-28.749zM24.787 5.884l-17.573-0.004 0.284 3.496 13.5 0.003-0.34 3.621h-8.853l0.32 3.431h8.243l-0.488 4.697-3.88 1.072-3.941-1.080-0.251-2.813h-3.48l0.387 5.14 7.287 2.271 7.164-2.040 1.623-17.792z"></path>
</symbol>
<symbol id="icon-wordpress" viewBox="0 0 32 32">
<title>wordpress</title>
<path fill="#21759b" style="fill: var(--color25, #21759b)" d="M28.625 9.1c1.12 2.049 1.757 4.4 1.757 6.9 0 5.305-2.875 9.941-7.151 12.433l4.393-12.703c0.82-2.053 1.093-3.695 1.093-5.152 0-0.54-0.035-1.040-0.093-1.48zM17.984 9.239c0.863-0.040 1.643-0.14 1.643-0.14 0.776-0.1 0.685-1.24-0.089-1.199 0 0-2.34 0.18-3.84 0.18-1.419 0-3.8-0.2-3.8-0.2-0.78-0.040-0.881 1.14-0.1 1.18 0 0 0.72 0.081 1.5 0.12l2.24 6.14-3.16 9.44-5.239-15.56c0.865-0.040 1.645-0.133 1.645-0.133 0.78-0.1 0.688-1.24-0.087-1.195 0 0-2.328 0.184-3.832 0.184-0.267 0-0.584-0.011-0.92-0.020 2.603-3.836 7.035-6.416 12.055-6.416 3.745 0 7.153 1.429 9.715 3.777-0.061-0.004-0.121-0.012-0.188-0.012-1.413 0-2.416 1.231-2.416 2.552 0 1.187 0.684 2.191 1.413 3.375 0.548 0.96 1.187 2.191 1.187 3.969 0 1.22-0.472 2.659-1.095 4.639l-1.433 4.78-5.2-15.48 0.001 0.019zM16 30.379c-1.412 0-2.775-0.204-4.064-0.583l4.316-12.541 4.42 12.116c0.032 0.071 0.067 0.135 0.104 0.199-1.493 0.524-3.1 0.812-4.776 0.812zM1.615 16c0-2.085 0.448-4.067 1.247-5.853l6.859 18.799c-4.795-2.332-8.104-7.251-8.105-12.945zM16 0c-8.82 0-16 7.18-16 16s7.18 16 16 16 16-7.18 16-16-7.18-16-16-16z"></path>
</symbol>
<symbol id="icon-visualstudiocode" viewBox="0 0 32 32">
<title>visualstudiocode</title>
<path fill="#007acc" style="fill: var(--color26, #007acc)" d="M32 3.333v25.333l-8 3.333-24-7.333v-0.748l24 2.060v-25.979zM1.333 17.481l4.513-4.148-4.513-4.148 1.891-1.103 4.58 3.451 8.196-7.533 4 1.941v14.784l-4 1.941-8.196-7.533-4.579 3.452zM10.192 13.333l5.808 4.377v-8.755z"></path>
</symbol>
<symbol id="icon-chevron-small-down" viewBox="0 0 20 20">
<title>chevron-small-down</title>
<path d="M13.418 7.859c0.271-0.268 0.709-0.268 0.978 0s0.272 0.701 0 0.969l-3.908 3.83c-0.27 0.268-0.707 0.268-0.979 0l-3.908-3.83c-0.27-0.267-0.27-0.701 0-0.969s0.709-0.268 0.978 0l3.421 3.141 3.418-3.141z"></path>
</symbol>
<symbol id="icon-chevron-small-right" viewBox="0 0 20 20">
<title>chevron-small-right</title>
<path d="M11 10l-3.141-3.42c-0.268-0.27-0.268-0.707 0-0.978 0.268-0.27 0.701-0.27 0.969 0l3.83 3.908c0.268 0.271 0.268 0.709 0 0.979l-3.83 3.908c-0.267 0.272-0.701 0.27-0.969 0s-0.268-0.707 0-0.978l3.141-3.419z"></path>
</symbol>
<symbol id="icon-dots-three-horizontal" viewBox="0 0 20 20">
<title>dots-three-horizontal</title>
<path d="M10.001 7.8c-1.215 0-2.201 0.985-2.201 2.2s0.986 2.2 2.201 2.2c1.215 0 2.199-0.985 2.199-2.2s-0.984-2.2-2.199-2.2zM3.001 7.8c-1.215 0-2.201 0.985-2.201 2.2s0.986 2.2 2.201 2.2c1.215 0 2.199-0.986 2.199-2.2s-0.984-2.2-2.199-2.2zM17.001 7.8c-1.215 0-2.201 0.985-2.201 2.2s0.986 2.2 2.201 2.2c1.215 0 2.199-0.985 2.199-2.2s-0.984-2.2-2.199-2.2z"></path>
</symbol>
<symbol id="icon-dots-three-vertical" viewBox="0 0 20 20">
<title>dots-three-vertical</title>
<path d="M10.001 7.8c-1.215 0-2.201 0.985-2.201 2.2s0.986 2.2 2.201 2.2c1.215 0 2.199-0.985 2.199-2.2s-0.984-2.2-2.199-2.2zM10.001 5.2c1.215 0 2.199-0.986 2.199-2.2s-0.984-2.2-2.199-2.2c-1.215 0-2.201 0.985-2.201 2.2s0.986 2.2 2.201 2.2zM10.001 14.8c-1.215 0-2.201 0.985-2.201 2.2s0.986 2.2 2.201 2.2c1.215 0 2.199-0.985 2.199-2.2s-0.984-2.2-2.199-2.2z"></path>
</symbol>
<symbol id="icon-save" viewBox="0 0 20 20">
<title>save</title>
<path d="M15.173 2h-11.173c-1.101 0-2 0.9-2 2v12c0 1.1 0.899 2 2 2h12c1.101 0 2-0.9 2-2v-10.873l-2.827-3.127zM14 8c0 0.549-0.45 1-1 1h-6c-0.55 0-1-0.451-1-1v-5h8v5zM13 4h-2v4h2v-4z"></path>
</symbol>
<symbol id="icon-trash" viewBox="0 0 20 20">
<title>trash</title>
<path d="M3.389 7.113l1.101 10.908c0.061 0.461 2.287 1.977 5.51 1.979 3.225-0.002 5.451-1.518 5.511-1.979l1.102-10.908c-1.684 0.942-4.201 1.387-6.613 1.387-2.41 0-4.928-0.445-6.611-1.387zM13.168 1.51l-0.859-0.951c-0.332-0.473-0.692-0.559-1.393-0.559h-1.831c-0.7 0-1.061 0.086-1.392 0.559l-0.859 0.951c-2.57 0.449-4.434 1.64-4.434 2.519v0.17c0 1.547 3.403 2.801 7.6 2.801 4.198 0 7.601-1.254 7.601-2.801v-0.17c0-0.879-1.863-2.070-4.433-2.519zM12.070 4.34l-1.070-1.34h-2l-1.068 1.34h-1.7c0 0 1.862-2.221 2.111-2.522 0.19-0.23 0.384-0.318 0.636-0.318h2.043c0.253 0 0.447 0.088 0.637 0.318 0.248 0.301 2.111 2.522 2.111 2.522h-1.7z"></path>
</symbol>
<symbol id="icon-book" viewBox="0 0 20 20">
<title>book</title>
<path d="M17 5.95v10.351c0 0.522-0.452 0.771-1 1.16-0.44 0.313-1-0.075-1-0.587 0 0 0-9.905 0-10.114 0-0.211-0.074-0.412-0.314-0.535s-7.738-4.065-7.738-4.065c-0.121-0.045-0.649-0.378-1.353-0.016-0.669 0.344-1.033 0.718-1.126 0.894l8.18 4.482c0.217 0.114 0.351 0.29 0.351 0.516v10.802c0 0.23-0.142 0.476-0.369 0.585-0.104 0.052-0.219 0.077-0.333 0.077-0.135 0-0.271-0.033-0.386-0.104-0.215-0.131-7.774-4.766-8.273-5.067-0.24-0.144-0.521-0.439-0.527-0.658l-0.112-10.286c0-0.198-0.023-0.547 0.289-1.032 0.697-1.084 3.129-2.317 4.36-1.678l8.999 4.555c0.217 0.112 0.352 0.336 0.352 0.72z"></path>
</symbol>
<symbol id="icon-cross" viewBox="0 0 20 20">
<title>cross</title>
<path d="M14.348 14.849c-0.469 0.469-1.229 0.469-1.697 0l-2.651-3.030-2.651 3.029c-0.469 0.469-1.229 0.469-1.697 0-0.469-0.469-0.469-1.229 0-1.697l2.758-3.15-2.759-3.152c-0.469-0.469-0.469-1.228 0-1.697s1.228-0.469 1.697 0l2.652 3.031 2.651-3.031c0.469-0.469 1.228-0.469 1.697 0s0.469 1.229 0 1.697l-2.758 3.152 2.758 3.15c0.469 0.469 0.469 1.229 0 1.698z"></path>
</symbol>
<symbol id="icon-plus" viewBox="0 0 20 20">
<title>plus</title>
<path d="M16 10c0 0.553-0.048 1-0.601 1h-4.399v4.399c0 0.552-0.447 0.601-1 0.601s-1-0.049-1-0.601v-4.399h-4.399c-0.552 0-0.601-0.447-0.601-1s0.049-1 0.601-1h4.399v-4.399c0-0.553 0.447-0.601 1-0.601s1 0.048 1 0.601v4.399h4.399c0.553 0 0.601 0.447 0.601 1z"></path>
</symbol>
<symbol id="icon-books" viewBox="0 0 36 32">
<title>books</title>
<path d="M7 4h-6c-0.55 0-1 0.45-1 1v22c0 0.55 0.45 1 1 1h6c0.55 0 1-0.45 1-1v-22c0-0.55-0.45-1-1-1zM6 10h-4v-2h4v2z"></path>
<path d="M17 4h-6c-0.55 0-1 0.45-1 1v22c0 0.55 0.45 1 1 1h6c0.55 0 1-0.45 1-1v-22c0-0.55-0.45-1-1-1zM16 10h-4v-2h4v2z"></path>
<path d="M23.909 5.546l-5.358 2.7c-0.491 0.247-0.691 0.852-0.443 1.343l8.999 17.861c0.247 0.491 0.852 0.691 1.343 0.443l5.358-2.7c0.491-0.247 0.691-0.852 0.443-1.343l-8.999-17.861c-0.247-0.491-0.852-0.691-1.343-0.443z"></path>
</symbol>
<symbol id="icon-file-text2" viewBox="0 0 32 32">
<title>file-text2</title>
<path d="M28.681 7.159c-0.694-0.947-1.662-2.053-2.724-3.116s-2.169-2.030-3.116-2.724c-1.612-1.182-2.393-1.319-2.841-1.319h-15.5c-1.378 0-2.5 1.121-2.5 2.5v27c0 1.378 1.122 2.5 2.5 2.5h23c1.378 0 2.5-1.122 2.5-2.5v-19.5c0-0.448-0.137-1.23-1.319-2.841zM24.543 5.457c0.959 0.959 1.712 1.825 2.268 2.543h-4.811v-4.811c0.718 0.556 1.584 1.309 2.543 2.268zM28 29.5c0 0.271-0.229 0.5-0.5 0.5h-23c-0.271 0-0.5-0.229-0.5-0.5v-27c0-0.271 0.229-0.5 0.5-0.5 0 0 15.499-0 15.5 0v7c0 0.552 0.448 1 1 1h7v19.5z"></path>
<path d="M23 26h-14c-0.552 0-1-0.448-1-1s0.448-1 1-1h14c0.552 0 1 0.448 1 1s-0.448 1-1 1z"></path>
<path d="M23 22h-14c-0.552 0-1-0.448-1-1s0.448-1 1-1h14c0.552 0 1 0.448 1 1s-0.448 1-1 1z"></path>
<path d="M23 18h-14c-0.552 0-1-0.448-1-1s0.448-1 1-1h14c0.552 0 1 0.448 1 1s-0.448 1-1 1z"></path>
</symbol>
<symbol id="icon-stack" viewBox="0 0 32 32">
<title>stack</title>
<path d="M32 10l-16-8-16 8 16 8 16-8zM16 4.655l10.689 5.345-10.689 5.345-10.689-5.345 10.689-5.345zM28.795 14.398l3.205 1.602-16 8-16-8 3.205-1.602 12.795 6.398zM28.795 20.398l3.205 1.602-16 8-16-8 3.205-1.602 12.795 6.398z"></path>
</symbol>
<symbol id="icon-folder" viewBox="0 0 32 32">
<title>folder</title>
<path d="M14 4l4 4h14v22h-32v-26z"></path>
</symbol>
<symbol id="icon-folder-open" viewBox="0 0 32 32">
<title>folder-open</title>
<path d="M26 30l6-16h-26l-6 16zM4 12l-4 18v-26h9l4 4h13v4z"></path>
</symbol>
<symbol id="icon-linkedin" viewBox="0 0 32 32">
<title>linkedin</title>
<path d="M29 0h-26c-1.65 0-3 1.35-3 3v26c0 1.65 1.35 3 3 3h26c1.65 0 3-1.35 3-3v-26c0-1.65-1.35-3-3-3zM12 26h-4v-14h4v14zM10 10c-1.106 0-2-0.894-2-2s0.894-2 2-2c1.106 0 2 0.894 2 2s-0.894 2-2 2zM26 26h-4v-8c0-1.106-0.894-2-2-2s-2 0.894-2 2v8h-4v-14h4v2.481c0.825-1.131 2.087-2.481 3.5-2.481 2.488 0 4.5 2.238 4.5 5v9z"></path>
</symbol>
<symbol id="icon-codepen1" viewBox="0 0 32 32">
<title>codepen1</title>
<path d="M29.555 11.501l-14-9.333c-0.336-0.224-0.774-0.224-1.109 0l-14 9.333c-0.278 0.185-0.445 0.498-0.445 0.832v9.333c0 0.334 0.167 0.647 0.445 0.832l14 9.333c0.168 0.112 0.361 0.168 0.555 0.168s0.387-0.056 0.555-0.168l14-9.333c0.278-0.185 0.445-0.498 0.445-0.832v-9.333c0-0.334-0.167-0.647-0.445-0.832zM15 20.465l-5.197-3.465 5.197-3.465 5.197 3.465-5.197 3.465zM16 11.798v-6.93l11.197 7.465-5.197 3.465-6-4zM14 11.798l-6 4-5.197-3.465 11.197-7.465v6.93zM6.197 17l-4.197 2.798v-5.596l4.197 2.798zM8 18.202l6 4v6.93l-11.197-7.465 5.197-3.465zM16 22.202l6-4 5.197 3.465-11.197 7.465v-6.93zM23.803 17l4.197-2.798v5.596l-4.197-2.798z"></path>
</symbol>
<symbol id="icon-IcoMoon" viewBox="0 0 32 32">
<title>IcoMoon</title>
<path d="M8.111 16c0-2.044 1.657-3.701 3.701-3.701s3.701 1.657 3.701 3.701c0 2.044-1.657 3.701-3.701 3.701s-3.701-1.657-3.701-3.701zM16 0c-8.837 0-16 7.163-16 16s7.163 16 16 16c8.836 0 16-7.163 16-16s-7.163-16-16-16zM11.856 29.978c-4.811-2.799-8.046-8.010-8.046-13.978s3.235-11.178 8.046-13.978c4.813 2.799 8.050 8.009 8.050 13.978s-3.237 11.179-8.050 13.978z"></path>
</symbol>
</defs>
</svg>
