<?xml version="1.0" encoding="UTF-8" standalone="no"?>
<!-- Created with Inkscape (http://www.inkscape.org/) -->

<svg
   xmlns:dc="http://purl.org/dc/elements/1.1/"
   xmlns:cc="http://creativecommons.org/ns#"
   xmlns:rdf="http://www.w3.org/1999/02/22-rdf-syntax-ns#"
   xmlns:svg="http://www.w3.org/2000/svg"
   xmlns="http://www.w3.org/2000/svg"
   xmlns:sodipodi="http://sodipodi.sourceforge.net/DTD/sodipodi-0.dtd"
   xmlns:inkscape="http://www.inkscape.org/namespaces/inkscape"
   version="1.1"
   id="svg2"
   width="178.1178"
   height="82.894341"
   viewBox="0 0 178.1178 82.89434"
   sodipodi:docname="MubashirDesignSvg.svg"
   inkscape:export-filename="C:\Users\qwertyuiop\Desktop\MubashirDesignv4.png"
   inkscape:export-xdpi="96"
   inkscape:export-ydpi="96"
   inkscape:version="0.92.3 (2405546, 2018-03-11)">
  <metadata
     id="metadata8">
    <rdf:RDF>
      <cc:Work
         rdf:about="">
        <dc:format>image/svg+xml</dc:format>
        <dc:type
           rdf:resource="http://purl.org/dc/dcmitype/StillImage" />
        <dc:title></dc:title>
      </cc:Work>
    </rdf:RDF>
  </metadata>
  <defs
     id="defs6" />
  <sodipodi:namedview
     pagecolor="#ffffff"
     bordercolor="#666666"
     borderopacity="1"
     objecttolerance="10"
     gridtolerance="10"
     guidetolerance="10"
     inkscape:pageopacity="0"
     inkscape:pageshadow="2"
     inkscape:window-width="1920"
     inkscape:window-height="1017"
     id="namedview4"
     showgrid="false"
     inkscape:snap-nodes="true"
     inkscape:zoom="0.85483871"
     inkscape:cx="340.5"
     inkscape:cy="-69.21183"
     inkscape:window-x="-8"
     inkscape:window-y="-8"
     inkscape:window-maximized="1"
     inkscape:current-layer="svg2"
     fit-margin-top="0"
     fit-margin-left="0"
     fit-margin-right="0"
     fit-margin-bottom="0"
     showguides="true" />
  <rect
     style="fill:#0b0b28;fill-opacity:1;stroke:none;stroke-width:0.27322298;stroke-opacity:1"
     id="rect1510"
     width="70.562714"
     height="11.584923"
     x="27.877689"
     y="29.182421" />
  <path
     id="path4530"
     style="fill:#0b0b28;fill-opacity:1;stroke-width:0.53914893"
     d="M 113.59537,4.8299781e-4 C 108.45994,-0.00898155 105.47944,0.12079327 105.22303,0.37720295 c -0.35847,0.35847057 1.15858,2.26876575 4.5388,5.71555615 l 5.07663,5.1769409 7.51071,0.0063 c 11.01934,0.0094 15.79563,1.655586 21.57885,7.438832 9.65224,9.65222 9.22664,24.38496 -1.00221,34.709554 -2.66875,2.693698 -3.83751,3.435651 -7.31247,4.639105 -3.68512,1.276231 -4.89951,1.428032 -11.14443,1.395522 -3.85491,-0.02009 -7.803,-0.432678 -9.21661,-0.534675 -1.8432,-0.152541 -4.41544,-0.340635 -7.28641,-0.671301 -2.7446,-0.330664 -5.49454,-0.851376 -6.68065,-1.061451 L 99.128382,56.80935 98.988588,29.613658 C 98.900317,12.446453 98.65031,2.2194642 98.31097,1.8801242 97.953632,1.5227856 92.104148,7.0013017 80.864187,18.220446 70.776737,28.289217 63.629867,35.022717 63.148876,34.910637 62.705453,34.80731 54.752555,27.262195 45.476214,18.143839 36.199918,9.0254805 28.403823,1.5650058 28.151056,1.5650058 c -0.397446,0 -0.728965,32.6371472 -0.529148,52.0805282 0.07537,7.330909 0.03473,7.418704 -4.117065,9.02785 -2.640117,1.023247 -6.856551,3.238837 -10.370455,5.449404 -3.329593,2.094595 -11.1040572,8.720024 -12.44912601,10.608969 -0.60654279,0.851818 -0.8583843,1.548736 -0.55915667,1.548736 0.29922764,0 0.70872499,-0.266163 0.90981378,-0.591538 0.5887908,-0.952686 7.4801758,-5.247536 11.9855299,-7.469634 7.080779,-3.49234 21.084583,-7.555213 29.766391,-8.636124 5.913023,-0.736163 25.616542,-0.739378 33.803691,-0.0056 7.236663,0.648734 15.340868,1.694939 39.520049,5.101901 23.19236,3.267907 27.78136,3.68178 37.60326,3.391271 9.68479,-0.28646 13.21836,-1.242239 16.90658,-4.574342 3.41836,-3.088257 3.3909,-6.586924 -0.0861,-10.976996 -2.14304,-2.705756 -2.80679,-2.698334 -1.73907,0.01974 0.77277,1.967316 0.76596,2.249993 -0.0853,3.549223 -1.30843,1.996863 -3.88113,2.898841 -9.38324,3.28939 -7.75392,0.550387 -10.28388,-0.395523 -7.56046,-2.827374 1.23411,-1.102015 5.31989,-6.439582 5.31989,-6.949966 0,-0.169363 0.83702,-2.071339 1.8599,-4.226847 2.42293,-5.105852 2.96464,-7.631609 2.97111,-13.842281 0.007,-6.508377 -1.03096,-10.878926 -3.8904,-16.382963 C 153.87946,11.163632 146.39066,4.8920286 137.1905,1.696888 133.26981,0.3352486 132.51118,0.26519657 119.42781,0.05653778 117.25834,0.02193571 115.30718,0.00361808 113.59537,4.6431243e-4 Z M 39.55374,29.654731 c 0.08214,-0.01016 0.175859,0.01828 0.283525,0.04107 0.452887,0.09587 5.749387,5.087532 11.769927,11.092306 6.020542,6.004771 11.190919,10.917763 11.490353,10.917763 0.299429,0 5.568023,-4.995444 11.707532,-11.100991 7.322989,-7.282498 11.432079,-10.997614 11.946834,-10.800091 0.654619,0.251207 0.784006,2.291699 0.777133,12.314081 -0.0046,6.607138 0.01565,12.519814 -0.202181,12.861383 -0.284226,0.445633 -4.481934,0.370721 -14.346941,0.311959 -14.041785,-0.08364 -23.143319,0.770393 -26.662601,1.229671 -2.581526,0.380746 -6.553273,1.045807 -7.154517,0.63813 C 38.893095,56.977153 38.703076,54.28004 38.740279,51.166458 38.97224,31.714336 38.978742,29.725889 39.55374,29.654731 Z m 23.005182,39.907023 c -14.443236,0.08073 -17.471245,0.667623 -6.106495,1.183862 13.57179,0.616482 22.979772,1.982684 52.111323,7.565988 11.67307,2.237252 21.19454,3.818536 25.87915,4.298712 1.03783,0.106388 5.23051,0.232124 9.31691,0.279579 10.79771,0.12539 24.3282,-2.415743 31.12321,-5.845869 3.34403,-1.688056 3.40613,-4.903758 3.13573,-6.121692 -0.13978,-0.629741 0.0869,1.362711 -2.03637,3.185329 -1.86735,1.094538 -2.59168,1.438229 -3.30041,1.761511 -0.8517,0.394979 -1.70457,0.639901 -2.82583,0.896854 -2.14849,0.419948 -4.56964,0.972945 -14.0184,1.111994 -11.31145,0.166457 -12.80977,0.268544 -22.47288,-1.301539 -31.17366,-5.065167 -51.91962,-7.12028 -70.805938,-7.014729 z"
     inkscape:connector-curvature="0"
     inkscape:export-xdpi="96"
     inkscape:export-ydpi="96"
     sodipodi:nodetypes="cccccccscccccccsccsccccsccccssccccscscccccccccssccccsccccssscscccccsss" />
  <flowRoot
     xml:space="preserve"
     id="flowRoot4733"
     style="font-style:normal;font-weight:normal;font-size:40px;line-height:1.25;font-family:sans-serif;letter-spacing:0px;word-spacing:0px;fill:#0b0b28;fill-opacity:1;stroke:none"
     transform="matrix(0.29292353,0,0,0.29292353,65.245153,-67.014298)"><flowRegion
       id="flowRegion4735"
       style="fill:#0b0b28"><rect
         id="rect4737"
         width="496.38895"
         height="156.97771"
         x="110.30865"
         y="327.31937"
         style="fill:#0b0b28" /></flowRegion><flowPara
       id="flowPara4739"
       style="font-style:normal;font-variant:normal;font-weight:normal;font-stretch:normal;font-family:Montserrat;-inkscape-font-specification:Montserrat;fill:#0b0b28">DESIGNS</flowPara><flowPara
       id="flowPara4741" /></flowRoot>  <flowRoot
     xml:space="preserve"
     id="flowRoot12"
     style="font-style:normal;font-weight:normal;font-size:40px;line-height:1.25;font-family:sans-serif;letter-spacing:0px;word-spacing:0px;fill:#ffffff;fill-opacity:1;stroke:none"
     transform="matrix(0.27364862,0,0,0.27364862,-50.522427,53.07827)"><flowRegion
       id="flowRegion14"
       style="fill:#ffffff"><rect
         id="rect16"
         width="256.67975"
         height="65.760925"
         x="293.44931"
         y="-88.459404"
         style="fill:#ffffff" /></flowRegion><flowPara
       id="flowPara18"
       style="font-style:normal;font-variant:normal;font-weight:normal;font-stretch:normal;font-size:42.81667709px;font-family:Montserrat;-inkscape-font-specification:Montserrat;fill:#ffffff">MUBASHIR</flowPara></flowRoot></svg>
