<svg aria-hidden="true" style="position: absolute; width: 0; height: 0; overflow: hidden;" version="1.1" xmlns="http://www.w3.org/2000/svg" xmlns:xlink="http://www.w3.org/1999/xlink">
<defs>
<symbol id="icon-csswizardry" viewBox="0 0 32 32">
<title>csswizardry</title>
<path fill="#f43059" style="fill: var(--color1, #f43059)" d="M0.040 21.904v-20.413c0-0.824 0.667-1.491 1.489-1.491h28.871c0.832 0 1.493 0.667 1.493 1.493v19.68c-0.893-0.547-1.947-0.821-3.143-0.821-1.672 0-2.94 0.4-3.805 1.195-0.867 0.797-1.293 1.771-1.293 2.967 0 1.293 0.44 2.253 1.333 2.867 0.52 0.38 1.48 0.72 2.853 1.016l1.4 0.32c0.84 0.177 1.427 0.4 1.813 0.613 0.373 0.244 0.573 0.583 0.573 1.020 0 0.755-0.387 1.273-1.16 1.531l-0.040 0.021h-2.947c-0.383-0.139-0.68-0.339-0.92-0.6-0.24-0.299-0.4-0.733-0.48-1.351h-2.64c0 0.755 0.137 1.393 0.44 1.973h-2.24c0.253-0.52 0.4-1.097 0.4-1.756 0-1.173-0.4-2.067-1.181-2.688-0.499-0.396-1.253-0.713-2.251-0.956l-2.293-0.536c-0.88-0.187-1.453-0.373-1.733-0.533-0.413-0.24-0.613-0.6-0.613-1.053 0-0.507 0.213-0.907 0.627-1.187 0.44-0.28 1-0.413 1.72-0.413 0.653 0 1.173 0.12 1.613 0.347 0.659 0.341 1 0.92 1.053 1.716h2.667c-0.040-1.395-0.553-2.471-1.533-3.205-0.992-0.733-2.167-1.113-3.56-1.113-1.673 0-2.927 0.4-3.804 1.173-0.853 0.777-1.293 1.773-1.293 2.947 0 1.293 0.44 2.251 1.333 2.867 0.536 0.36 1.493 0.697 2.867 1.013l1.393 0.32c0.813 0.18 1.413 0.38 1.813 0.62 0.373 0.24 0.573 0.573 0.573 1.013 0 0.76-0.4 1.253-1.173 1.533h-2.987c-0.379-0.141-0.693-0.341-0.92-0.62-0.24-0.293-0.413-0.752-0.493-1.352h-2.689c0 0.744 0.14 1.4 0.427 1.973h-2.787c0.44-0.693 0.737-1.493 0.884-2.387h-2.737c-0.187 0.68-0.416 1.197-0.7 1.533-0.347 0.44-0.8 0.72-1.36 0.86h-1.636c-0.6-0.14-1.116-0.477-1.533-1.013-0.619-0.744-0.917-1.859-0.917-3.333 0-1.493 0.307-2.627 0.88-3.44 0.6-0.817 1.373-1.213 2.387-1.213 1 0 1.733 0.28 2.253 0.859 0.28 0.32 0.52 0.8 0.693 1.435h2.773c-0.040-0.824-0.347-1.653-0.915-2.48-1.029-1.467-2.659-2.2-4.885-2.2-1.547 0-2.845 0.48-3.88 1.413l-0.067-0.147zM31.899 26.752v-2.072h-0.688c-0.047-0.796-0.4-1.363-1.044-1.699-0.417-0.219-0.956-0.331-1.591-0.331-0.72 0-1.273 0.147-1.693 0.429-0.416 0.287-0.637 0.691-0.637 1.203 0 0.473 0.221 0.827 0.636 1.060 0.293 0.14 0.867 0.339 1.747 0.539l2.293 0.547c0.4 0.080 0.747 0.2 1.067 0.307l-0.067 0.040z"></path>
</symbol>
<symbol id="icon-webpack" viewBox="0 0 32 32">
<title>webpack</title>
<path fill="#8dd6f9" style="fill: var(--color2, #8dd6f9)" d="M28.021 24.16l-11.553 6.506v-5.068l7.198-3.942 4.355 2.503zM28.811 23.448v-13.607l-4.228 2.429v8.746l4.228 2.432zM3.901 24.16l11.553 6.506v-5.068l-7.198-3.942-4.355 2.503zM3.111 23.448v-13.607l4.228 2.429v8.746l-4.228 2.432zM3.605 8.96l11.849-6.674v4.9l-7.649 4.19-4.2-2.415zM28.317 8.96l-11.849-6.674v4.9l7.649 4.19 4.2-2.415zM15.454 24.446l-7.102-3.887v-7.703l7.101 4.083v7.508zM16.468 24.446l7.101-3.887v-7.703l-7.101 4.083v7.508zM8.833 11.965l7.129-3.904 7.129 3.904-7.129 4.099-7.129-4.099z"></path>
</symbol>
<symbol id="icon-javascript" viewBox="0 0 32 32">
<title>javascript</title>
<path fill="#f7df1e" style="fill: var(--color3, #f7df1e)" d="M0 0h32v32h-32v-32zM29.379 24.368c-0.233-1.46-1.184-2.687-4.004-3.831-0.981-0.46-2.072-0.78-2.396-1.52-0.121-0.44-0.14-0.68-0.061-0.94 0.2-0.861 1.22-1.12 2.020-0.88 0.52 0.16 1 0.56 1.301 1.2 1.379-0.901 1.379-0.901 2.34-1.5-0.36-0.56-0.539-0.801-0.781-1.040-0.84-0.94-1.959-1.42-3.779-1.379l-0.94 0.119c-0.901 0.22-1.76 0.7-2.28 1.34-1.52 1.721-1.081 4.721 0.759 5.961 1.82 1.36 4.481 1.659 4.821 2.94 0.32 1.56-1.16 2.060-2.621 1.88-1.081-0.24-1.68-0.781-2.34-1.781l-2.44 1.401c0.28 0.64 0.6 0.919 1.080 1.479 2.32 2.341 8.12 2.221 9.161-1.339 0.039-0.12 0.32-0.94 0.099-2.2l0.061 0.089zM17.401 14.708h-2.997c0 2.584-0.012 5.152-0.012 7.74 0 1.643 0.084 3.151-0.184 3.615-0.44 0.919-1.573 0.801-2.088 0.64-0.528-0.261-0.796-0.621-1.107-1.14-0.084-0.14-0.147-0.261-0.169-0.261l-2.433 1.5c0.407 0.84 1 1.563 1.765 2.023 1.14 0.68 2.672 0.9 4.276 0.54 1.044-0.301 1.944-0.921 2.415-1.881 0.68-1.24 0.536-2.76 0.529-4.461 0.016-2.739 0-5.479 0-8.239l0.005-0.075z"></path>
</symbol>
<symbol id="icon-bitbucket" viewBox="0 0 32 32">
<title>bitbucket</title>
<path fill="#0052cc" style="fill: var(--color4, #0052cc)" d="M1.037 1.615c-0.565-0.008-1.029 0.445-1.037 1.011 0 0.060 0.003 0.12 0.013 0.179l4.351 26.415c0.112 0.665 0.687 1.156 1.363 1.163h20.873c0.509 0.005 0.944-0.361 1.027-0.861l4.36-26.707c0.091-0.557-0.288-1.084-0.847-1.175-0.060-0.011-0.119-0.015-0.177-0.013l-29.925-0.011zM19.36 20.704h-6.664l-1.803-9.419h10.081l-1.615 9.419z"></path>
</symbol>
<symbol id="icon-github" viewBox="0 0 32 32">
<title>github</title>
<path d="M16 0.396c-8.84 0-16 7.164-16 16 0 7.071 4.584 13.067 10.94 15.18 0.8 0.151 1.093-0.344 1.093-0.769 0-0.38-0.013-1.387-0.020-2.72-4.451 0.965-5.389-2.147-5.389-2.147-0.728-1.847-1.78-2.34-1.78-2.34-1.449-0.992 0.112-0.972 0.112-0.972 1.607 0.112 2.451 1.648 2.451 1.648 1.427 2.447 3.745 1.74 4.66 1.331 0.144-1.035 0.556-1.74 1.013-2.14-3.553-0.4-7.288-1.776-7.288-7.907 0-1.747 0.62-3.173 1.647-4.293-0.18-0.404-0.72-2.031 0.14-4.235 0 0 1.34-0.429 4.4 1.64 1.28-0.356 2.64-0.532 4-0.54 1.36 0.008 2.72 0.184 4 0.54 3.040-2.069 4.38-1.64 4.38-1.64 0.86 2.204 0.32 3.831 0.16 4.235 1.020 1.12 1.64 2.547 1.64 4.293 0 6.147-3.74 7.5-7.3 7.893 0.56 0.48 1.080 1.461 1.080 2.96 0 2.141-0.020 3.861-0.020 4.381 0 0.42 0.28 0.92 1.1 0.76 6.401-2.099 10.981-8.099 10.981-15.159 0-8.836-7.164-16-16-16z"></path>
</symbol>
<symbol id="icon-npm" viewBox="0 0 32 32">
<title>npm</title>
<path fill="#cb3837" style="fill: var(--color5, #cb3837)" d="M0 9.779v10.667h8.888v1.776h7.112v-1.776h16v-10.667h-32zM8.888 18.664h-1.776v-5.333h-1.78v5.333h-3.552v-7.108h7.108v7.108zM14.221 18.664v1.781h-3.553v-8.889h7.112v7.109l-3.559-0.001zM30.223 18.664h-1.773v-5.333h-1.781v5.333h-1.78v-5.333h-1.773v5.333h-3.561v-7.108h10.669v7.108z"></path>
<path fill="#cb3837" style="fill: var(--color5, #cb3837)" d="M14.22 13.333h1.78v3.556h-1.78v-3.556z"></path>
</symbol>
<symbol id="icon-shopify" viewBox="0 0 32 32">
<title>shopify</title>
<path fill="#7ab55c" style="fill: var(--color6, #7ab55c)" d="M20.449 31.972l9.621-2.081s-3.472-23.484-3.5-23.64c-0.024-0.155-0.152-0.256-0.281-0.256s-2.572-0.181-2.572-0.181-1.7-1.699-1.919-1.881c-0.060-0.049-0.1-0.076-0.161-0.099l-1.219 28.139h0.031zM15.613 15.073s-1.080-0.565-2.365-0.565c-1.929 0-2.005 1.208-2.005 1.521 0 1.643 4.32 2.287 4.32 6.172 0 3.060-1.92 5.013-4.541 5.013-3.139 0-4.72-1.953-4.72-1.953l0.861-2.781s1.66 1.421 3.040 1.421c0.9 0 1.3-0.727 1.3-1.243 0-2.159-3.539-2.259-3.539-5.812-0.045-2.983 2.095-5.888 6.436-5.888 1.676 0 2.5 0.481 2.5 0.481l-1.26 3.62-0.027 0.013zM14.893 1.107c0.181 0 0.361 0.051 0.54 0.18-1.312 0.62-2.752 2.185-3.344 5.323-0.875 0.284-1.724 0.54-2.519 0.771 0.692-2.38 2.364-6.26 5.323-6.26v-0.013zM16.54 5.039v0.18c-1.005 0.309-2.111 0.645-3.192 0.981 0.621-2.369 1.777-3.527 2.78-3.961 0.257 0.668 0.412 1.568 0.412 2.8zM17.259 2.060c0.925 0.099 1.521 1.156 1.905 2.34-0.465 0.152-0.98 0.308-1.544 0.488v-0.336c0-1.003-0.128-1.828-0.361-2.495v0.003zM21.248 3.779c-0.027 0-0.080 0.028-0.104 0.028s-0.385 0.1-0.952 0.28c-0.564-1.644-1.568-3.16-3.344-3.16h-0.153c-0.515-0.648-1.136-0.927-1.675-0.927-4.141 0-6.12 5.169-6.74 7.795-1.592 0.487-2.751 0.848-2.88 0.899-0.9 0.284-0.925 0.309-1.029 1.16-0.1 0.616-2.44 18.751-2.44 18.751l18.081 3.396 1.236-28.221z"></path>
</symbol>
<symbol id="icon-git" viewBox="0 0 32 32">
<title>git</title>
<path fill="#f05032" style="fill: var(--color7, #f05032)" d="M31.395 14.573l-13.972-13.971c-0.805-0.804-2.109-0.804-2.917 0l-2.895 2.9 3.68 3.68c0.86-0.287 1.839-0.093 2.519 0.588 0.688 0.687 0.877 1.677 0.584 2.533l3.544 3.547c0.86-0.297 1.849-0.104 2.533 0.58 0.961 0.96 0.961 2.512 0 3.472-0.959 0.959-2.508 0.959-3.467 0-0.719-0.721-0.899-1.783-0.539-2.661l-3.319-3.301v8.7c0.235 0.115 0.456 0.271 0.651 0.464 0.951 0.961 0.951 2.511 0 3.467-0.959 0.961-2.519 0.961-3.479 0-0.959-0.959-0.959-2.505 0-3.464 0.243-0.24 0.516-0.421 0.807-0.541v-8.785c-0.289-0.121-0.565-0.296-0.8-0.535-0.727-0.727-0.901-1.789-0.528-2.679l-3.616-3.633-9.581 9.575c-0.8 0.807-0.8 2.112 0 2.919l13.973 13.969c0.805 0.805 2.109 0.805 2.915 0l13.907-13.907c0.807-0.804 0.807-2.109 0-2.916z"></path>
</symbol>
<symbol id="icon-mailchimp" viewBox="0 0 32 32">
<title>mailchimp</title>
<path fill="#239ab9" style="fill: var(--color8, #239ab9)" d="M14.701 2.472l0.432 0.14-0.349-1.267-0.204 0.629 0.12 0.496zM15.409 3.793c0.137-0.103 0.3-0.223 0.484-0.353h0.023l-1.48-0.448 0.96 0.813 0.013-0.013zM14.32 4.747l-0.141 0.123 0.157-0.107-0.016-0.013zM14.836 4.32l-2.32-1.92 0.12 0.861 1.684 1.485c0.067-0.053 0.129-0.115 0.196-0.165l0.32-0.26zM16.632 2.94l-0.712-0.596 0.26 0.9c0.14-0.1 0.293-0.2 0.453-0.304zM7.256 18.915c0.52 0.003 0.9 0.256 1.080 0.517 0.16 0.24 0.1 0.381 0.18 0.449 0.020 0.017 0.040 0.027 0.060 0.027s0.040-0.003 0.040-0.009c0.1-0.040 0.14-0.193 0.16-0.3 0.020-0.257-0.12-0.547-0.3-0.751-0.347-0.371-0.833-0.58-1.34-0.571h-0.020c-0.26 0-0.48 0.045-0.56 0.069-0.040 0.013-0.12 0.029-0.18 0.049-1.020 0.4-1.48 1.4-1.26 2.4 0.044 0.253 0.155 0.493 0.32 0.691 0.1 0.104 0.2 0.151 0.26 0.151 0.080 0 0.12-0.067 0.060-0.18-0.020-0.057-0.16-0.297-0.18-0.733-0.016-0.443 0.085-0.907 0.373-1.259 0.211-0.261 0.471-0.376 0.5-0.389l0.007 0.008 0.115-0.060 0.053-0.023c0.129-0.040 0.056-0.024 0.189-0.048h0.040c0.117-0.027 0.24-0.040 0.36-0.040h0.043zM18.616 15.457c0.351 0.008 0.696 0.083 1.020 0.22 0.221 0.080 0.4 0.16 0.48 0.16 0.040 0 0.060-0.021 0.060-0.021 0.040-0.032 0.020-0.107-0.060-0.205-0.18-0.26-0.52-0.488-0.84-0.6-0.231-0.085-0.473-0.125-0.715-0.125l0.036-0.048c-0.5 0-1 0.18-1.4 0.5-0.301 0.24-0.42 0.5-0.301 0.52h0.023c0.099 0 0.259-0.060 0.48-0.14 0.48-0.18 0.859-0.26 1.2-0.26h0.020zM23.109 14.429c0.355-0.032 0.711 0.031 1.031 0.187-0.020-0.88-0.533-1.869-0.92-1.733-0.227 0.080-0.267 0.48-0.259 0.72 0.013 0.297 0.053 0.56 0.149 0.84v-0.013z"></path>
<path fill="#239ab9" style="fill: var(--color8, #239ab9)" d="M7.929 20.168c-0.059-0.040-0.101-0.103-0.12-0.173-0.027-0.131-0.013-0.203 0.1-0.283 0.087-0.060 0.157-0.088 0.157-0.124 0-0.032-0.073-0.073-0.173-0.073l0.023-0.057c-0.12 0.004-0.236 0.053-0.32 0.141-0.16 0.179-0.22 0.539 0.040 0.84 0.299 0.32 0.76 0.4 0.819 0.8 0.013 0.067 0.019 0.133 0.013 0.2 0 0.060-0.023 0.16-0.023 0.18-0.080 0.34-0.381 0.68-0.875 0.68h-0.189c-0.064-0.020-0.111-0.020-0.151-0.020-0.027 0-0.048 0-0.056 0.021-0.045 0.060 0.204 0.36 0.664 0.36h0.027c0.68-0.021 1.24-0.72 1.107-1.48-0.12-0.671-0.791-0.813-1.040-1.011zM19.912 16.568h0.021c0.069 0 0.109-0.013 0.129-0.040 0.053-0.089-0.301-0.376-0.819-0.376l-0.071 0.027c-0.080 0-0.16 0-0.24 0.021l-0.22 0.060c-0.040 0-0.060 0.020-0.080 0.020-0.16 0.060-0.301 0.14-0.42 0.26-0.139 0.16-0.2 0.3-0.139 0.32h0.019c0.061 0 0.14-0.040 0.28-0.093 0.423-0.183 0.884-0.253 1.341-0.211 0.077 0.004 0.137 0.013 0.197 0.013zM23.797 15.736c-0.040 0.26 0.080 0.48 0.259 0.52 0.020 0 0.040 0.020 0.040 0.020 0.18 0 0.32-0.173 0.36-0.407 0.040-0.253-0.080-0.483-0.28-0.511-0.013-0.005-0.024-0.005-0.035-0.005l0.035-0.040c-0.18 0-0.34 0.181-0.379 0.421zM22.427 16.68c0.096 0.056 0.204 0.085 0.315 0.085 0.143 0 0.267-0.060 0.327-0.167 0.107-0.187-0.021-0.447-0.273-0.587-0.101-0.056-0.213-0.085-0.312-0.085l-0.009 0.013c-0.139 0-0.259 0.059-0.32 0.16-0.099 0.18 0.024 0.46 0.276 0.58z"></path>
<path fill="#239ab9" style="fill: var(--color8, #239ab9)" d="M31.173 20.836h0.020c-0.227-0.472-0.656-0.811-1.167-0.92-0.177-0.804-0.42-1.2-0.44-1.259 0.093-0.104 0.18-0.211 0.2-0.235 0.747-0.92 0.259-2.26-1.013-2.581-0.716-0.68-1.364-1-1.896-1.28-0.511-0.24-0.307-0.139-0.784-0.36-0.128-0.619-0.169-2.059-0.373-3.080-0.179-0.899-0.547-1.56-1.111-2-0.227-0.48-0.54-0.979-0.924-1.339 1.776-2.72 2.24-5.4 0.94-6.8-0.572-0.681-1.433-0.983-2.461-0.983-1.453 0-3.232 0.591-5.032 1.68l-1.189-0.96c-5.005-3.94-19.163 13.48-14.165 17.287l1.291 0.987c-0.809 2.251 0.317 4.939 2.667 5.8 0.499 0.192 1.080 0.283 1.659 0.251 0 0 3.78 6.953 11.78 6.956 9.24 0 11.6-9.053 11.64-9.133 0 0 0.739-1.109 0.36-2.031zM2.151 16.853h0.009c-1.013-1.713 0.753-5.229 2.009-7.227 3.1-4.941 8.267-8.837 10.613-8.28l0.647-0.248 1.764 1.491c1.213-0.731 2.756-1.471 4.2-1.617-0.88 0.195-1.949 0.653-3.22 1.427-0.027 0.020-3 2.040-4.813 3.84-0.991 0.98-4.96 5.74-4.96 5.74 0.728-1.36 1.205-2.040 2.356-3.48 0.66-0.82 1.36-1.6 2.060-2.34 0.34-0.34 0.66-0.66 1-0.98 0.124-0.104 0.244-0.204 0.363-0.311-0.393 0.272-1.48 1.029-2.083 1.533-3.023 2.497-5.943 6.399-7.043 10.199h0.053c-0.547 0.3-1.080 0.78-1.555 1.431-0.020 0-1.22-0.888-1.4-1.179zM7.099 24c-1.787 0-3.24-1.524-3.24-3.407 0-1.88 1.453-3.409 3.24-3.409 0.467 0 0.907 0.1 1.301 0.287 0 0 0.689 0.349 0.884 1.989 0.2-0.513 0.304-0.933 0.304-0.933 0.231 0.704 0.347 1.447 0.301 2.2 0.193-0.259 0.4-0.739 0.4-0.739 0.352 2.099-1.173 4.013-3.189 4.013zM11.085 11.963l-0.053-0.085c0.131-0.173 0.28-0.34 0.424-0.509 0.589-0.88 1.909-2.56 4.083-3.805-0.229-0.035-0.787 0.040-0.885 0.048 0.556-0.48 1.587-0.796 2.3-0.94-0.205-0.133-0.704-0.168-0.949-0.173-0.075-0.020-0.075-0.020-0.16 0 0.672-0.38 1.917-0.6 3.048-0.4-0.16-0.2-0.48-0.34-0.7-0.4l-0.101-0.040 0.080-0.020c0.68-0.14 1.48 0 2.1 0.26-0.080-0.18-0.26-0.36-0.38-0.48l-0.1-0.080c0.66 0.14 1.28 0.42 1.76 0.74-0.080-0.12-0.24-0.34-0.34-0.46 0.62 0.18 1.32 0.62 1.64 1.26l0.020 0.060c-1.2-0.92-4.68-0.66-8.16 1.6-1.368 0.872-2.413 1.833-3.256 2.831-0.236 0.351-0.368 0.587-0.373 0.595zM29.772 22.581c-0.040 0.080-0.48 2.44-3 4.42-3.16 2.501-7.341 2.243-8.901 0.84-0.84-0.8-1.2-1.917-1.2-1.917s-0.1 0.64-0.12 0.88c-0.64-1.080-0.58-2.4-0.58-2.4s-0.341 0.619-0.48 0.979c-0.461-1.2-0.221-2.42-0.221-2.42l-0.36 0.541s-0.18-1.36 0.24-2.48c0.46-1.2 1.34-2.060 1.52-2.18-0.68-0.2-1.44-0.819-1.44-0.819s0.3 0.021 0.52-0.040c0 0-1.34-0.96-1.58-2.44 0.2 0.24 0.619 0.501 0.619 0.501-0.139-0.38-0.22-1.26-0.080-2.1 0.24-1.62 1.58-2.66 3.1-2.66 1.597 0 2.68 0.34 4.037-0.9 0.28-0.26 0.5-0.48 0.901-0.58 0.040 0 0.16-0.040 0.36-0.040 0.219-0.008 0.433 0.047 0.62 0.16 0.739 0.44 0.9 1.58 0.979 2.4 0.28 3.1 0.16 2.54 1.42 3.18 0.597 0.3 1.277 0.58 2.037 1.4v0.021c0.64 0 0.96 0.52 0.68 0.88-2.16 2.58-5.18 3.819-8.539 3.92l-0.44 0.020c-1.36 0.040-1.8 1.8-0.94 2.84 0.537 0.66 1.579 0.88 2.44 0.88 3.68 0.080 7.379-2.52 8.019-3.96l0.040-0.101c-0.14 0.18-3.72 3.54-8.060 3.42 0 0-0.48-0.020-0.92-0.12-0.581-0.14-1.040-0.4-1.2-1 0.36 0.080 0.82 0.12 1.36 0.12 3.14 0 5.4-1.44 5.18-1.46h-0.040c-0.36 0.080-4.139 1.539-6.52 0.779 0.005-0.067 0.016-0.139 0.033-0.204 0.213-0.712 0.591-0.613 1.2-0.64l-0.133 0.156c2.179-0.075 3.939-0.62 5.257-1.24 1.4-0.673 2.461-1.533 2.861-1.96 0.499 0.84 0.499 1.92 0.499 1.92s0.181-0.072 0.44-0.072c0.82 0 1 0.74 0.38 1.48z"></path>
</symbol>
<symbol id="icon-html5" viewBox="0 0 32 32">
<title>html5</title>
<path fill="#e34f26" style="fill: var(--color9, #e34f26)" d="M2 0h28l-2.547 28.751-11.484 3.249-11.419-3.251-2.551-28.749zM11.375 13l-0.309-3.624 13.412 0.004 0.307-3.496-17.568-0.004 0.931 10.68h12.168l-0.435 4.568-3.88 1.072-3.94-1.080-0.251-2.813h-3.479l0.44 5.561 7.229 1.933 7.172-1.924 0.992-10.876h-12.789z"></path>
</symbol>
<symbol id="icon-adobephotoshop" viewBox="0 0 32 32">
<title>adobephotoshop</title>
<path fill="#00c8ff" style="fill: var(--color10, #00c8ff)" d="M0 0.4v31.2h32v-31.2h-32zM1.333 1.733h29.333v28.533h-29.333v-28.533zM7.733 7.707c0-0.089 0.187-0.155 0.299-0.155 0.859-0.044 2.117-0.067 3.437-0.067 3.696 0 5.133 2.027 5.133 4.621 0 3.387-2.456 4.84-5.469 4.84-0.507 0-0.68-0.023-1.033-0.023v5.123c0 0.111-0.044 0.155-0.153 0.155h-2.059c-0.111 0-0.153-0.040-0.153-0.151v-14.344zM10.1 14.789c0.307 0.021 0.549 0.021 1.080 0.021 1.56 0 3.027-0.549 3.027-2.661 0-1.693-1.048-2.552-2.829-2.552-0.528 0-1.033 0.021-1.276 0.044v5.152zM21.576 13.205c-1.056 0-1.408 0.528-1.408 0.968 0 0.484 0.24 0.813 1.649 1.54 2.091 1.013 2.749 1.98 2.749 3.409 0 2.133-1.627 3.28-3.827 3.28-1.168 0-2.16-0.244-2.733-0.573-0.087-0.044-0.107-0.109-0.107-0.22v-1.956c0-0.133 0.064-0.177 0.152-0.112 0.832 0.551 1.803 0.792 2.683 0.792 1.056 0 1.496-0.44 1.496-1.035 0-0.484-0.307-0.903-1.649-1.607-1.893-0.907-2.685-1.827-2.685-3.369 0-1.716 1.341-3.147 3.673-3.147 1.147 0 1.952 0.176 2.392 0.373 0.109 0.067 0.133 0.176 0.133 0.264v1.827c0 0.111-0.067 0.177-0.2 0.133-0.592-0.352-1.467-0.573-2.324-0.573z"></path>
</symbol>
<symbol id="icon-codepen" viewBox="0 0 32 32">
<title>codepen</title>
<path d="M32 10.909l-0.024-0.116-0.023-0.067c-0.013-0.032-0.024-0.067-0.040-0.1-0.004-0.024-0.020-0.045-0.027-0.067l-0.047-0.089-0.040-0.067-0.059-0.080-0.061-0.060-0.080-0.060-0.061-0.040-0.080-0.059-0.059-0.053-0.020-0.027-14.607-9.772c-0.463-0.309-1.061-0.309-1.523 0l-14.805 9.883-0.051 0.053-0.067 0.075-0.049 0.060-0.067 0.080c-0.027 0.023-0.040 0.040-0.040 0.061l-0.067 0.080-0.027 0.080c-0.027 0.013-0.027 0.053-0.040 0.093l-0.013 0.067c-0.025 0.041-0.025 0.081-0.025 0.121v9.996c0 0.059 0.004 0.12 0.013 0.18l0.013 0.061c0.007 0.040 0.013 0.080 0.027 0.115l0.020 0.067c0.013 0.036 0.021 0.071 0.036 0.1l0.029 0.067c0 0.013 0.020 0.053 0.040 0.080l0.040 0.053c0.020 0.013 0.040 0.053 0.060 0.080l0.040 0.053 0.053 0.053c0.013 0.017 0.013 0.040 0.040 0.040l0.080 0.056 0.053 0.040 0.013 0.019 14.627 9.773c0.219 0.16 0.5 0.217 0.76 0.217s0.52-0.080 0.76-0.24l14.877-9.875 0.069-0.077 0.044-0.060 0.053-0.080 0.040-0.067 0.040-0.093 0.021-0.069 0.040-0.103 0.020-0.060 0.040-0.107v-10c0-0.067 0-0.127-0.021-0.187l-0.019-0.060 0.059 0.004zM16.013 19.283l-4.867-3.253 4.867-3.256 4.867 3.253-4.867 3.253zM14.635 10.384l-5.964 3.987-4.817-3.221 10.781-7.187v6.424zM6.195 16.028l-3.443 2.307v-4.601l3.443 2.301zM8.671 17.695l5.964 3.987v6.427l-10.781-7.188 4.824-3.223v-0.005zM17.387 21.681l5.965-3.973 4.817 3.227-10.783 7.187v-6.427zM25.827 16.041l3.444-2.293v4.608l-3.444-2.307zM23.353 14.388l-5.964-3.988v-6.44l10.78 7.187-4.816 3.224z"></path>
</symbol>
<symbol id="icon-linkedin" viewBox="0 0 32 32">
<title>linkedin</title>
<path fill="#0077b5" style="fill: var(--color11, #0077b5)" d="M27.263 27.269h-4.739v-7.425c0-1.771-0.036-4.049-2.469-4.049-2.471 0-2.848 1.927-2.848 3.919v7.556h-4.739v-15.269h4.552v2.081h0.061c0.636-1.2 2.183-2.467 4.493-2.467 4.801 0 5.689 3.16 5.689 7.273v8.381zM7.116 9.911c-1.525 0-2.751-1.235-2.751-2.753 0-1.517 1.227-2.751 2.751-2.751 1.52 0 2.752 1.233 2.752 2.751 0 1.519-1.233 2.753-2.752 2.753zM9.492 27.269h-4.752v-15.269h4.752v15.269zM29.633 0h-27.272c-1.305 0-2.361 1.032-2.361 2.305v27.389c0 1.275 1.056 2.305 2.361 2.305h27.268c1.304 0 2.371-1.031 2.371-2.305v-27.389c0-1.273-1.067-2.305-2.371-2.305h0.004z"></path>
</symbol>
<symbol id="icon-css3" viewBox="0 0 32 32">
<title>css3</title>
<path fill="#1572b6" style="fill: var(--color12, #1572b6)" d="M2 0h28l-2.547 28.751-11.484 3.249-11.42-3.251-2.549-28.749zM24.787 5.884l-17.573-0.004 0.284 3.496 13.5 0.003-0.34 3.621h-8.853l0.32 3.431h8.243l-0.488 4.697-3.88 1.072-3.941-1.080-0.251-2.813h-3.48l0.387 5.14 7.287 2.271 7.164-2.040 1.623-17.792z"></path>
</symbol>
<symbol id="icon-launchpad" viewBox="0 0 32 32">
<title>launchpad</title>
<path fill="#f8c300" style="fill: var(--color13, #f8c300)" d="M29.332 24.901l-5.909-3.408-6.377 3.685v6.821l12.287-7.099zM14.955 32v-6.825l-6.38-3.683-5.907 3.409 12.287 7.099zM15.993 23.367l6.385-3.687v-7.365l-6.38-3.68-6.377 3.68v7.369l6.372 3.683zM1.627 8.909v14.188l5.909-3.412v-7.367l-5.909-3.409zM27.78 10.404l-3.312 1.915v7.363l5.907 3.412v-14.189l-2.595 1.5zM2.668 7.099l5.913 3.412 6.375-3.683v-6.824l-12.288 7.095zM23.423 10.511l5.912-3.412-12.292-7.099v6.828l6.38 3.683z"></path>
</symbol>
<symbol id="icon-visualstudiocode" viewBox="0 0 32 32">
<title>visualstudiocode</title>
<path fill="#007acc" style="fill: var(--color14, #007acc)" d="M32 3.333v25.333l-8 3.333-24-7.333v-0.748l24 2.060v-25.979zM1.333 17.481l4.513-4.148-4.513-4.148 1.891-1.103 4.58 3.451 8.196-7.533 4 1.941v14.784l-4 1.941-8.196-7.533-4.579 3.452zM10.192 13.333l5.808 4.377v-8.755z"></path>
</symbol>
<symbol id="icon-books" viewBox="0 0 36 32">
<title>books</title>
<path d="M7 4h-6c-0.55 0-1 0.45-1 1v22c0 0.55 0.45 1 1 1h6c0.55 0 1-0.45 1-1v-22c0-0.55-0.45-1-1-1zM6 10h-4v-2h4v2z"></path>
<path d="M17 4h-6c-0.55 0-1 0.45-1 1v22c0 0.55 0.45 1 1 1h6c0.55 0 1-0.45 1-1v-22c0-0.55-0.45-1-1-1zM16 10h-4v-2h4v2z"></path>
<path d="M23.909 5.546l-5.358 2.7c-0.491 0.247-0.691 0.852-0.443 1.343l8.999 17.861c0.247 0.491 0.852 0.691 1.343 0.443l5.358-2.7c0.491-0.247 0.691-0.852 0.443-1.343l-8.999-17.861c-0.247-0.491-0.852-0.691-1.343-0.443z"></path>
</symbol>
<symbol id="icon-file-text2" viewBox="0 0 32 32">
<title>file-text2</title>
<path d="M28.681 7.159c-0.694-0.947-1.662-2.053-2.724-3.116s-2.169-2.030-3.116-2.724c-1.612-1.182-2.393-1.319-2.841-1.319h-15.5c-1.378 0-2.5 1.121-2.5 2.5v27c0 1.378 1.122 2.5 2.5 2.5h23c1.378 0 2.5-1.122 2.5-2.5v-19.5c0-0.448-0.137-1.23-1.319-2.841zM24.543 5.457c0.959 0.959 1.712 1.825 2.268 2.543h-4.811v-4.811c0.718 0.556 1.584 1.309 2.543 2.268zM28 29.5c0 0.271-0.229 0.5-0.5 0.5h-23c-0.271 0-0.5-0.229-0.5-0.5v-27c0-0.271 0.229-0.5 0.5-0.5 0 0 15.499-0 15.5 0v7c0 0.552 0.448 1 1 1h7v19.5z"></path>
<path d="M23 26h-14c-0.552 0-1-0.448-1-1s0.448-1 1-1h14c0.552 0 1 0.448 1 1s-0.448 1-1 1z"></path>
<path d="M23 22h-14c-0.552 0-1-0.448-1-1s0.448-1 1-1h14c0.552 0 1 0.448 1 1s-0.448 1-1 1z"></path>
<path d="M23 18h-14c-0.552 0-1-0.448-1-1s0.448-1 1-1h14c0.552 0 1 0.448 1 1s-0.448 1-1 1z"></path>
</symbol>
<symbol id="icon-stack" viewBox="0 0 32 32">
<title>stack</title>
<path d="M32 10l-16-8-16 8 16 8 16-8zM16 4.655l10.689 5.345-10.689 5.345-10.689-5.345 10.689-5.345zM28.795 14.398l3.205 1.602-16 8-16-8 3.205-1.602 12.795 6.398zM28.795 20.398l3.205 1.602-16 8-16-8 3.205-1.602 12.795 6.398z"></path>
</symbol>
<symbol id="icon-folder" viewBox="0 0 32 32">
<title>folder</title>
<path d="M14 4l4 4h14v22h-32v-26z"></path>
</symbol>
<symbol id="icon-linkedin2" viewBox="0 0 32 32">
<title>linkedin2</title>
<path d="M12 12h5.535v2.837h0.079c0.77-1.381 2.655-2.837 5.464-2.837 5.842 0 6.922 3.637 6.922 8.367v9.633h-5.769v-8.54c0-2.037-0.042-4.657-3.001-4.657-3.005 0-3.463 2.218-3.463 4.509v8.688h-5.767v-18z"></path>
<path d="M2 12h6v18h-6v-18z"></path>
<path d="M8 7c0 1.657-1.343 3-3 3s-3-1.343-3-3c0-1.657 1.343-3 3-3s3 1.343 3 3z"></path>
</symbol>
<symbol id="icon-sass" viewBox="0 0 32 32">
<title>sass</title>
<path fill="#c69" style="fill: var(--color1, #c69)" d="M16 0c8.836 0 16 7.164 16 16s-7.164 16-16 16-16-7.164-16-16 7.164-16 16-16zM12.82 21.331c0.233 0.86 0.208 1.664-0.032 2.389l-0.087 0.24c-0.032 0.081-0.069 0.16-0.104 0.235-0.187 0.387-0.435 0.747-0.74 1.080-0.931 1.012-2.229 1.396-2.787 1.073-0.6-0.349-0.301-1.78 0.779-2.92 1.161-1.224 2.827-2.012 2.827-2.012v-0.004l0.144-0.081zM26.035 6.849c-0.723-2.844-5.436-3.779-9.896-2.193-2.652 0.943-5.525 2.424-7.591 4.356-2.457 2.295-2.848 4.295-2.687 5.131 0.569 2.948 4.609 4.876 6.271 6.307v0.008c-0.489 0.24-4.075 2.039-4.915 3.9-0.9 1.96 0.14 3.361 0.82 3.54 2.1 0.581 4.26-0.48 5.42-2.199 1.12-1.681 1.021-3.841 0.539-4.901 0.661-0.18 1.44-0.26 2.44-0.139 2.801 0.32 3.361 2.080 3.24 2.8-0.12 0.719-0.697 1.139-0.899 1.259-0.2 0.121-0.26 0.16-0.241 0.241 0.020 0.12 0.121 0.12 0.28 0.1 0.22-0.040 1.461-0.6 1.521-1.961 0.060-1.72-1.581-3.639-4.5-3.6-1.2 0.021-1.961 0.121-2.5 0.341-0.040-0.060-0.081-0.1-0.14-0.14-1.8-1.94-5.14-3.3-5-5.88 0.040-0.94 0.38-3.419 6.4-6.419 4.94-2.461 8.881-1.78 9.561-0.28 0.977 2.139-2.101 6.12-7.241 6.699-1.96 0.22-2.98-0.539-3.241-0.82-0.279-0.3-0.319-0.32-0.419-0.259-0.16 0.080-0.060 0.34 0 0.5 0.16 0.4 0.78 1.1 1.861 1.46 0.939 0.3 3.24 0.479 6-0.6 3.099-1.199 5.519-4.54 4.819-7.34l0.097 0.089z"></path>
</symbol>
<symbol id="icon-node-dot-js" viewBox="0 0 32 32">
<title>node-dot-js</title>
<path fill="#393" style="fill: var(--color2, #393)" d="M15.247 0.204l-12.493 7.24c-0.467 0.271-0.752 0.771-0.751 1.311v14.485c0 0.539 0.287 1.040 0.752 1.309l12.493 7.247c0.467 0.271 1.040 0.271 1.507 0l12.488-7.244c0.467-0.273 0.752-0.771 0.753-1.309v-14.488c0-0.539-0.288-1.040-0.755-1.312l-12.485-7.24c-0.467-0.271-1.043-0.271-1.507 0z"></path>
</symbol>
</defs>
</svg>

