<svg aria-hidden="true" style="position:absolute;width:0;height:0" xmlns="http://www.w3.org/2000/svg" overflow="hidden"><defs><symbol id="icon-linkedin-square" viewBox="0 0 24 28"><path d="M3.703 22.094h3.609V11.25H3.703v10.844zM7.547 7.906c-.016-1.062-.781-1.875-2.016-1.875s-2.047.812-2.047 1.875c0 1.031.781 1.875 2 1.875H5.5c1.266 0 2.047-.844 2.047-1.875zm9.141 14.188h3.609v-6.219c0-3.328-1.781-4.875-4.156-4.875-1.937 0-2.797 1.078-3.266 1.828h.031V11.25H9.297s.047 1.016 0 10.844h3.609v-6.062c0-.313.016-.641.109-.875.266-.641.859-1.313 1.859-1.313 1.297 0 1.813.984 1.813 2.453v5.797zM24 6.5v15c0 2.484-2.016 4.5-4.5 4.5h-15A4.502 4.502 0 0 1 0 21.5v-15C0 4.016 2.016 2 4.5 2h15C21.984 2 24 4.016 24 6.5z"/></symbol><symbol id="icon-csswizardry" viewBox="0 0 32 32"><path fill="var(--color1, #f43059)" d="M.04 21.904V1.491A1.49 1.49 0 0 1 1.529 0H30.4c.832 0 1.493.667 1.493 1.493v19.68c-.893-.547-1.947-.821-3.143-.821-1.672 0-2.94.4-3.805 1.195-.867.797-1.293 1.771-1.293 2.967 0 1.293.44 2.253 1.333 2.867.52.38 1.48.72 2.853 1.016l1.4.32c.84.177 1.427.4 1.813.613.373.244.573.583.573 1.02 0 .755-.387 1.273-1.16 1.531l-.04.021h-2.947a2.261 2.261 0 0 1-.92-.6c-.24-.299-.4-.733-.48-1.351h-2.64c0 .755.137 1.393.44 1.973h-2.24c.253-.52.4-1.097.4-1.756 0-1.173-.4-2.067-1.181-2.688-.499-.396-1.253-.713-2.251-.956l-2.293-.536c-.88-.187-1.453-.373-1.733-.533-.413-.24-.613-.6-.613-1.053 0-.507.213-.907.627-1.187.44-.28 1-.413 1.72-.413.653 0 1.173.12 1.613.347.659.341 1 .92 1.053 1.716h2.667c-.04-1.395-.553-2.471-1.533-3.205-.992-.733-2.167-1.113-3.56-1.113-1.673 0-2.927.4-3.804 1.173-.853.777-1.293 1.773-1.293 2.947 0 1.293.44 2.251 1.333 2.867.536.36 1.493.697 2.867 1.013l1.393.32c.813.18 1.413.38 1.813.62.373.24.573.573.573 1.013 0 .76-.4 1.253-1.173 1.533h-2.987c-.379-.141-.693-.341-.92-.62-.24-.293-.413-.752-.493-1.352h-2.689c0 .744.14 1.4.427 1.973H8.813c.44-.693.737-1.493.884-2.387H6.96c-.187.68-.416 1.197-.7 1.533-.347.44-.8.72-1.36.86H3.264c-.6-.14-1.116-.477-1.533-1.013-.619-.744-.917-1.859-.917-3.333 0-1.493.307-2.627.88-3.44.6-.817 1.373-1.213 2.387-1.213 1 0 1.733.28 2.253.859.28.32.52.8.693 1.435H9.8c-.04-.824-.347-1.653-.915-2.48-1.029-1.467-2.659-2.2-4.885-2.2-1.547 0-2.845.48-3.88 1.413l-.067-.147zm31.859 4.848V24.68h-.688c-.047-.796-.4-1.363-1.044-1.699-.417-.219-.956-.331-1.591-.331-.72 0-1.273.147-1.693.429a1.395 1.395 0 0 0-.637 1.203c0 .473.221.827.636 1.06.293.14.867.339 1.747.539l2.293.547c.4.08.747.2 1.067.307l-.067.04z"/></symbol><symbol id="icon-webpack" viewBox="0 0 32 32"><path fill="var(--color2, #8dd6f9)" d="M28.021 24.16l-11.553 6.506v-5.068l7.198-3.942 4.355 2.503zm.79-.712V9.841l-4.228 2.429v8.746l4.228 2.432zm-24.91.712l11.553 6.506v-5.068l-7.198-3.942-4.355 2.503zm-.79-.712V9.841l4.228 2.429v8.746l-4.228 2.432zM3.605 8.96l11.849-6.674v4.9l-7.649 4.19-4.2-2.415zm24.712 0L16.468 2.286v4.9l7.649 4.19 4.2-2.415zM15.454 24.446l-7.102-3.887v-7.703l7.101 4.083v7.508zm1.014 0l7.101-3.887v-7.703l-7.101 4.083v7.508zM8.833 11.965l7.129-3.904 7.129 3.904-7.129 4.099-7.129-4.099z"/></symbol><symbol id="icon-javascript" viewBox="0 0 32 32"><path fill="var(--color3, #f7df1e)" d="M0 0h32v32H0V0zm29.379 24.368c-.233-1.46-1.184-2.687-4.004-3.831-.981-.46-2.072-.78-2.396-1.52-.121-.44-.14-.68-.061-.94.2-.861 1.22-1.12 2.02-.88.52.16 1 .56 1.301 1.2 1.379-.901 1.379-.901 2.34-1.5-.36-.56-.539-.801-.781-1.04-.84-.94-1.959-1.42-3.779-1.379l-.94.119c-.901.22-1.76.7-2.28 1.34-1.52 1.721-1.081 4.721.759 5.961 1.82 1.36 4.481 1.659 4.821 2.94.32 1.56-1.16 2.06-2.621 1.88-1.081-.24-1.68-.781-2.34-1.781l-2.44 1.401c.28.64.6.919 1.08 1.479 2.32 2.341 8.12 2.221 9.161-1.339.039-.12.32-.94.099-2.2l.061.089zm-11.978-9.66h-2.997c0 2.584-.012 5.152-.012 7.74 0 1.643.084 3.151-.184 3.615-.44.919-1.573.801-2.088.64-.528-.261-.796-.621-1.107-1.14-.084-.14-.147-.261-.169-.261l-2.433 1.5c.407.84 1 1.563 1.765 2.023 1.14.68 2.672.9 4.276.54 1.044-.301 1.944-.921 2.415-1.881.68-1.24.536-2.76.529-4.461.016-2.739 0-5.479 0-8.239l.005-.075z"/></symbol><symbol id="icon-github" viewBox="0 0 32 32"><path d="M16 .396c-8.84 0-16 7.164-16 16 0 7.071 4.584 13.067 10.94 15.18.8.151 1.093-.344 1.093-.769 0-.38-.013-1.387-.02-2.72-4.451.965-5.389-2.147-5.389-2.147-.728-1.847-1.78-2.34-1.78-2.34-1.449-.992.112-.972.112-.972 1.607.112 2.451 1.648 2.451 1.648 1.427 2.447 3.745 1.74 4.66 1.331.144-1.035.556-1.74 1.013-2.14-3.553-.4-7.288-1.776-7.288-7.907 0-1.747.62-3.173 1.647-4.293-.18-.404-.72-2.031.14-4.235 0 0 1.34-.429 4.4 1.64 1.28-.356 2.64-.532 4-.54 1.36.008 2.72.184 4 .54 3.04-2.069 4.38-1.64 4.38-1.64.86 2.204.32 3.831.16 4.235 1.02 1.12 1.64 2.547 1.64 4.293 0 6.147-3.74 7.5-7.3 7.893.56.48 1.08 1.461 1.08 2.96 0 2.141-.02 3.861-.02 4.381 0 .42.28.92 1.1.76C27.42 29.455 32 23.455 32 16.395c0-8.836-7.164-16-16-16z"/></symbol><symbol id="icon-npm" viewBox="0 0 32 32"><path fill="var(--color4, #cb3837)" d="M0 9.779v10.667h8.888v1.776H16v-1.776h16V9.779H0zm8.888 8.885H7.112v-5.333h-1.78v5.333H1.78v-7.108h7.108v7.108zm5.333 0v1.781h-3.553v-8.889h7.112v7.109l-3.559-.001zm16.002 0H28.45v-5.333h-1.781v5.333h-1.78v-5.333h-1.773v5.333h-3.561v-7.108h10.669v7.108z"/><path fill="var(--color4, #cb3837)" d="M14.22 13.333H16v3.556h-1.78v-3.556z"/></symbol><symbol id="icon-shopify" viewBox="0 0 32 32"><path fill="var(--color5, #7ab55c)" d="M20.449 31.972l9.621-2.081s-3.472-23.484-3.5-23.64c-.024-.155-.152-.256-.281-.256s-2.572-.181-2.572-.181-1.7-1.699-1.919-1.881a.528.528 0 0 0-.161-.099l-1.219 28.139h.031zm-4.836-16.899s-1.08-.565-2.365-.565c-1.929 0-2.005 1.208-2.005 1.521 0 1.643 4.32 2.287 4.32 6.172 0 3.06-1.92 5.013-4.541 5.013-3.139 0-4.72-1.953-4.72-1.953l.861-2.781s1.66 1.421 3.04 1.421c.9 0 1.3-.727 1.3-1.243 0-2.159-3.539-2.259-3.539-5.812-.045-2.983 2.095-5.888 6.436-5.888 1.676 0 2.5.481 2.5.481l-1.26 3.62-.027.013zm-.72-13.966c.181 0 .361.051.54.18-1.312.62-2.752 2.185-3.344 5.323-.875.284-1.724.54-2.519.771.692-2.38 2.364-6.26 5.323-6.26v-.013zm1.647 3.932v.18c-1.005.309-2.111.645-3.192.981.621-2.369 1.777-3.527 2.78-3.961.257.668.412 1.568.412 2.8zm.719-2.979c.925.099 1.521 1.156 1.905 2.34-.465.152-.98.308-1.544.488v-.336c0-1.003-.128-1.828-.361-2.495v.003zm3.989 1.719c-.027 0-.08.028-.104.028s-.385.1-.952.28c-.564-1.644-1.568-3.16-3.344-3.16h-.153C16.18.279 15.559 0 15.02 0 10.879 0 8.9 5.169 8.28 7.795c-1.592.487-2.751.848-2.88.899-.9.284-.925.309-1.029 1.16-.1.616-2.44 18.751-2.44 18.751l18.081 3.396L21.248 3.78z"/></symbol><symbol id="icon-git" viewBox="0 0 32 32"><path fill="var(--color6, #f05032)" d="M31.395 14.573L17.423.602a2.065 2.065 0 0 0-2.917 0l-2.895 2.9 3.68 3.68a2.452 2.452 0 0 1 3.103 3.121l3.544 3.547a2.451 2.451 0 0 1 2.533 4.052 2.449 2.449 0 0 1-3.467 0 2.46 2.46 0 0 1-.539-2.661l-3.319-3.301v8.7c.235.115.456.271.651.464a2.463 2.463 0 0 1 0 3.467 2.46 2.46 0 0 1-3.479 0 2.445 2.445 0 0 1 0-3.464c.243-.24.516-.421.807-.541v-8.785a2.433 2.433 0 0 1-.8-.535 2.445 2.445 0 0 1-.528-2.679l-3.616-3.633L.6 14.509c-.8.807-.8 2.112 0 2.919l13.973 13.969a2.061 2.061 0 0 0 2.915 0L31.395 17.49a2.059 2.059 0 0 0 0-2.916z"/></symbol><symbol id="icon-html5" viewBox="0 0 32 32"><path fill="var(--color7, #e34f26)" d="M2 0h28l-2.547 28.751L15.969 32 4.55 28.749 1.999 0zm9.375 13l-.309-3.624 13.412.004.307-3.496L7.217 5.88l.931 10.68h12.168l-.435 4.568-3.88 1.072-3.94-1.08-.251-2.813H8.331l.44 5.561L16 25.801l7.172-1.924.992-10.876H11.375z"/></symbol><symbol id="icon-unsplash" viewBox="0 0 32 32"><path d="M10 9V0h12v9H10zm12 5h10v18H0V14h10v9h12v-9z"/></symbol><symbol id="icon-jenkins" viewBox="0 0 32 32"><path fill="var(--color8, #d24939)" d="M3.831 32h-1.3a5.503 5.503 0 0 1-.093-.263c-.287-.888-.792-1.987-.923-2.872-.195-1.312 1.04-1.385 1.832-1.953 1.22-.88 2.18-1.367 3.503-2.161.393-.237 1.576-.831 1.708-1.104.268-.544-.46-1.309-.653-1.735-.3-.675-.46-1.248-.501-1.912-1.099-.175-1.94-.836-2.459-1.58-.84-1.233-1.421-3.513-.7-5.248.06-.137.339-.407.38-.617.08-.412-.14-.96-.161-1.399-.08-2.256.38-4.2 1.901-4.88.617-2.453 2.817-3.271 4.897-4.489.775-.456 1.632-.749 2.52-1.076 3.163-1.169 8.037-.949 10.66 1.044 1.115.844 2.901 2.628 3.541 3.919 1.683 3.407 1.56 9.101.383 13.247-.161.561-.388 1.376-.711 2.044-.224.465-.919 1.4-.833 1.813.085.419 1.585 1.56 1.909 1.86.579.563 1.68 1.3 1.765 2 .093.743-.331 1.781-.547 2.5a211.13 211.13 0 0 1-.872 2.841L3.83 32zm14.805-4.721c-.727-.399-1.815-.828-2.753-1.008-1.159-.219-1.039 1.584-1 2.659.04.857.481 1.755.681 2.325.1.263.119.547.34.599.4.091 1.72-.435 2.1-.639.8-.437 1.419-1.125 2.099-1.585.021-.227.021-.453.041-.677a3.53 3.53 0 0 0-1.461-.369c.419-.2 1-.2 1.38-.443l.021-.257c-.661-.041-.919-.339-1.361-.581l-.087-.023zm9.94 3.914c.257-.825.479-1.628.62-2.336.079-.383.287-1.224.237-1.568-.079-.612-.912-1.065-1.339-1.448-.779-.7-1.268-1.3-2.081-1.959-.331.5-1.039.82-1.309 1.219 1.929-.919 2.279 3.5 1.521 4.919.12.44.521.601.685.981l-.115.221h1.719c.019 0 .041 0 .06.019l.001-.048zm-8.847-.016c-.065-.099-.133-.18-.2-.279l-.401.26h.601v.019zm3.695 0c.011-.279.024-.539.039-.797-.705.039-1.099-.64-1.593-.703-.432-.06-.8.481-1.36.26-.128.14-.245.303-.38.421.205.24.393.5.565.779h1.088c.019-.219.18-.38.399-.38.221 0 .38.161.38.36h.88l-.017.06zm2.821 0c-.419-.639-1.263-1.197-2.24-.74l-.041.721h2.281v.019zm-11.346 0l-.14-.459c-.3-.961-.479-1.68-.54-2.24-1.219-.581-2.5-1.161-3.539-1.901-.2-.14-1.479-1.8-1.64-1.74-2.319.901-4.479 2.479-6.419 3.979.341.743.64 1.521.92 2.32h11.34l.017.041zm11.02-2.817c-.039-.683-.219-2.081-.64-2.32-.88-.521-2.461 1.039-3.12 1.257.06.2.18.361.2.64.38-.099.86-.039 1.197.123-.399.039-.839.039-1.099.219-.099.26.021.64-.039 1.019.919.263 2 .404 3.18.443.219-.303.3-.86.281-1.443l.039.063zm-5.44-.48c-.06.5.06.68.159 1.257 1.68.521 1.38-2.32-.18-1.279l.021.021zM11.681 26c-.6.609 1.695 1.443 2.419 1.487 0-.388.22-.752.18-1.028-.865-.156-2.003-.055-2.593-.461l-.005.003zm7.42.287c0 .057-.081.039-.091.085.773.601 1.352.727 2.404.68.472-.349.893-.751 1.391-1.076-1.14.099-2.576.809-3.7.305l-.004.005zm4.56-23.636c-2.14-1.208-5.8-2.121-8.101-.975-1.84.923-4.36 2.455-5.199 4.389.8 1.869-.221 3.581-.301 5.479-.024 1.011.48 1.893.521 2.991-.267.451-1.1.507-1.68.475-.195-.972-.535-2.065-1.54-2.175-1.419-.153-2.46 1.02-2.521 2.245-.08 1.439 1.112 3.819 2.781 3.66.651-.061.811-.721 1.519-.721.38.76-.593 1-.697 1.54-.021.14.079.681.139.94.311 1.259.992 2.879 1.66 3.84.847 1.2 2.512 1.401 4.305 1.521.32-.7 1.5-.64 2.275-.461-.921-.36-1.781-1.26-2.5-2.039-.82-.901-1.64-1.88-1.681-3.04 1.54 2.139 2.8 3.999 5.601 4.939 2.12.7 4.599-.339 6.219-1.479.68-.479 1.081-1.24 1.56-1.919 1.8-2.581 2.64-6.28 2.461-9.86-.081-1.481-.081-2.961-.581-3.94-.519-1.041-2.26-1.961-3.3-1.041-.2-1.019.839-1.639 2.06-1.279-.88-1.14-1.781-2.479-3.021-3.18l.023.089zm-5.552 17.21c.82 2.059 3.633 1.817 6.008 1.764-.112.259-.341.58-.62.687-.76.309-2.861.544-3.917-.016-.675-.361-1.099-1.164-1.469-1.636-.183-.229-1.06-.811-.016-.812l.015.013zm.219-1.161c1.191.62 3.36.691 4.976.64.088.357.088.792.091 1.219-2.068.107-4.516-.405-5.06-1.86h-.007zm8.901-.78c-.631 1.2-1.527 2.529-3.385 2.571-.031-.379-.06-.98 0-1.205 1.419-.137 2.303-.861 3.391-1.356l-.005-.009zm-.865-.889c-1.36.88-2.872 1.833-5.099 1.613-.469-.413-.648-1.335-.188-1.944.243.417.081 1.18.76 1.292 1.26.221 2.719-.771 3.64-1.12.56-.949-.06-1.3-.56-1.909-1.041-1.241-2.44-2.8-2.401-4.68.419-.3.461.46.521.599.539 1.281 1.899 2.901 2.899 4 .24.281.64.521.68.7.123.519-.339 1.139-.279 1.479l.027-.029zm-17.92-.9c-.419-.245-.524-1.32-1.024-1.347-.713-.04-.584 1.399-.581 2.239-.493-.439-.58-1.819-.219-2.52-.411-.2-.593.22-.824.38.293-2.12 3.12-.979 2.652 1.28l-.004-.032zM6.285 7.992c-.913 1.008-.72 2.899-.612 4.251 1.659-1.047 3.864.08 3.844 1.86.793-.021.297-.992.153-1.62-.471-2.039.789-4.251.055-6.12-1.419.111-2.585.692-3.437 1.619l-.003.011zm12.16 1.484c.409.749.539 1.531 1.12 2.093.26.255.765.565.516 1.268-.06.161-.487.521-.735.6-.899.26-3.005.04-2.295-1.08.751.02 1.752.479 2.309-.06-.419-.7-1.18-2.04-.899-2.84l-.017.019zm8.266-.017h.091c.44.891.8 1.833 1.339 2.62-.36.839-2.737 1.587-2.697.076.519-.227 1.399-.047 1.86-.333-.257-.741-.64-1.341-.579-2.361l-.013-.001zm-9.238-2.156c-1.896-.44-2.841.789-3.413 2.071-.512-.125-.308-.82-.18-1.177.34-.935 1.707-2.177 2.825-2.008.479.076 1.131.515.768 1.112v.003zm-4.616-5.18c-2.08.587-4.747 2.099-5.6 3.965.66-.093 1.12-.428 1.773-.468.248-.021.571.099.855.02.565-.139 1.04-1.42 1.469-1.879.415-.461.913-.663 1.255-1.081.221-.12.544-.099.56-.44-.099-.1-.2-.18-.311-.14v.023z"/></symbol><symbol id="icon-nodemon" viewBox="0 0 32 32"><path fill="var(--color9, #76d04b)" d="M29.773 10.468l-.955-.531C30.286 7.845 31.162 4.701 30.063 0c0 0-2.476 6.705-7.453 6.484l-5.827-3.241a1.543 1.543 0 0 0-.712-.2h-.138a1.565 1.565 0 0 0-.725.204l.008-.004-5.828 3.241C4.411 6.707 1.935 0 1.935 0c-1.1 4.701-.221 7.845 1.245 9.937l-.955.531a1.514 1.514 0 0 0-.785 1.317l.029 19.455c0 .271.145.523.392.655a.767.767 0 0 0 .782-.002l-.004.002 7.72-4.272c.488-.281.785-.776.785-1.316v-9.089a1.5 1.5 0 0 1 .784-1.312l3.287-1.829c.225-.129.494-.205.781-.205h.006c.267 0 .543.067.78.205l3.287 1.829a1.5 1.5 0 0 1 .784 1.312v9.089c0 .54.301 1.039.787 1.316l7.717 4.272a.779.779 0 0 0 .789-.002l-.004.002a.75.75 0 0 0 .389-.654l.025-19.455a1.502 1.502 0 0 0-.778-1.313l-.008-.004z"/></symbol><symbol id="icon-linkedin" viewBox="0 0 32 32"><path fill="var(--color10, #0077b5)" d="M27.263 27.269h-4.739v-7.425c0-1.771-.036-4.049-2.469-4.049-2.471 0-2.848 1.927-2.848 3.919v7.556h-4.739V12.001h4.552v2.081h.061c.636-1.2 2.183-2.467 4.493-2.467 4.801 0 5.689 3.16 5.689 7.273v8.381zM7.116 9.911a2.75 2.75 0 0 1-2.751-2.753 2.752 2.752 0 1 1 2.751 2.753zm2.376 17.358H4.74V12h4.752v15.269zM29.633 0H2.361C1.056 0 0 1.032 0 2.305v27.389c0 1.275 1.056 2.305 2.361 2.305h27.268c1.304 0 2.371-1.031 2.371-2.305V2.305C32 1.032 30.933 0 29.629 0h.004z"/></symbol><symbol id="icon-react" viewBox="0 0 32 32"><path fill="var(--color11, #61dafb)" d="M18.852 16a2.852 2.852 0 1 1-5.704 0 2.852 2.852 0 0 1 5.704 0zM8.011 21.673l-.629-.16C2.691 20.328.001 18.316.001 15.994s2.691-4.333 7.381-5.519l.629-.159.177.624a31.104 31.104 0 0 0 1.899 4.957l-.082-.186.135.284-.135.284a29.368 29.368 0 0 0-1.761 4.551l-.056.22-.177.623zm-.922-9.74c-3.565 1.001-5.753 2.533-5.753 4.061 0 1.527 2.188 3.059 5.753 4.061a32.611 32.611 0 0 1 1.662-4.263l-.086.202a30.435 30.435 0 0 1-1.511-3.828l-.065-.234zm16.9 9.74l-.177-.625a30.782 30.782 0 0 0-1.9-4.954l.081.184-.135-.284.135-.284a29.456 29.456 0 0 0 1.762-4.55l.056-.221.177-.624.631.159c4.689 1.185 7.38 3.197 7.38 5.52s-2.691 4.333-7.38 5.519l-.631.16zm-.654-5.678a33.038 33.038 0 0 1 1.576 4.061c3.567-1.003 5.753-2.535 5.753-4.061 0-1.528-2.188-3.059-5.753-4.061a32.424 32.424 0 0 1-1.662 4.262l.086-.2z"/><path fill="var(--color11, #61dafb)" d="M7.08 11.927l-.177-.623C5.584 6.656 5.984 3.325 8 2.163c1.977-1.141 5.152.207 8.479 3.621l.453.465-.453.465a31.6 31.6 0 0 0-3.162 3.853l-.068.103-.18.257-.313.027a31.667 31.667 0 0 0-5.264.86l.218-.047-.629.159zm2.528-8.84c-.357 0-.673.077-.94.231-1.325.764-1.56 3.42-.647 7.004a31.194 31.194 0 0 1 4.18-.658l.131-.01a33.328 33.328 0 0 1 2.756-3.414l-.02.022c-2.08-2.025-4.049-3.175-5.46-3.175zm12.785 27.149c-.001 0-.001 0 0 0-1.9 0-4.34-1.431-6.872-4.031l-.453-.465.453-.465a31.427 31.427 0 0 0 3.16-3.854l.068-.103.18-.257.312-.027a31.74 31.74 0 0 0 5.267-.858l-.218.046.629-.159.179.624c1.316 4.645.917 7.977-1.099 9.139a3.132 3.132 0 0 1-1.562.411h-.047.002zm-5.461-4.508c2.08 2.025 4.049 3.175 5.46 3.175h.001c.356 0 .673-.077.939-.231 1.325-.764 1.561-3.421.647-7.005a30.933 30.933 0 0 1-4.182.658l-.13.01a33.219 33.219 0 0 1-2.755 3.416l.02-.022z"/><path fill="var(--color11, #61dafb)" d="M24.92 11.927l-.629-.159c-1.453-.376-3.175-.664-4.939-.806l-.111-.007-.312-.027-.18-.257a31.57 31.57 0 0 0-3.237-3.966l.009.01-.453-.465.453-.465C18.846 2.372 22.02 1.024 24 2.164c2.016 1.163 2.416 4.493 1.099 9.14l-.179.624zm-5.253-2.274c1.523.139 2.969.364 4.312.668.915-3.584.679-6.24-.647-7.004-1.317-.761-3.793.405-6.4 2.944a33.376 33.376 0 0 1 2.666 3.289l.069.103zM9.608 30.236h-.046a3.153 3.153 0 0 1-1.577-.419l.015.008c-2.016-1.161-2.416-4.492-1.097-9.139l.176-.624.629.159c1.54.388 3.239.661 5.047.812l.313.027.179.257a31.521 31.521 0 0 0 3.239 3.967l-.01-.01.453.465-.453.465c-2.531 2.6-4.971 4.031-6.868 4.031zm-1.587-8.569c-.915 3.584-.679 6.241.647 7.005 1.316.751 3.791-.407 6.4-2.944a33.543 33.543 0 0 1-2.667-3.29l-.069-.103a33.315 33.315 0 0 1-4.534-.711l.224.043z"/><path fill="var(--color11, #61dafb)" d="M16 22.504c-1.097 0-2.225-.048-3.355-.141l-.313-.027-.18-.257a38.303 38.303 0 0 1-1.697-2.639l-.103-.19a36.12 36.12 0 0 1-1.45-2.728l-.105-.243-.133-.284.133-.284a38.537 38.537 0 0 1 1.658-3.161l-.103.191a40.4 40.4 0 0 1 1.8-2.829l.18-.257.313-.027a40.227 40.227 0 0 1 6.86.011l-.15-.011.312.027.179.257a39.103 39.103 0 0 1 3.252 5.56l.104.24.135.284-.135.284a39.328 39.328 0 0 1-3.439 5.925l.083-.125-.179.257-.312.027a41.083 41.083 0 0 1-3.356.141zm-2.929-1.445c1.973.148 3.885.148 5.86 0a37.57 37.57 0 0 0 2.827-4.836l.101-.228a37.891 37.891 0 0 0-3.012-5.19l.083.126a39.304 39.304 0 0 0-5.992.008l.134-.008a36.95 36.95 0 0 0-2.83 4.84l-.099.224a38.502 38.502 0 0 0 3.014 5.193l-.085-.13z"/></symbol><symbol id="icon-visualstudiocode" viewBox="0 0 32 32"><path fill="var(--color12, #007acc)" d="M32 3.333v25.333l-8 3.333-24-7.333v-.748l24 2.06V-.001zM1.333 17.481l4.513-4.148-4.513-4.148 1.891-1.103 4.58 3.451L16 4l4 1.941v14.784l-4 1.941-8.196-7.533-4.579 3.452zm8.859-4.148L16 17.71V8.955z"/></symbol></defs></svg>