<svg aria-hidden="true" style="position:absolute;width:0;height:0" xmlns="http://www.w3.org/2000/svg" overflow="hidden"><defs><symbol id="icon-gradient" viewBox="0 0 24 24"><path d="M18.984 11.016v-6H5.015v6h1.969v1.969H9v2.016h2.016v-2.016h1.969v2.016h2.016v-2.016h2.016v-1.969h1.969zM17.016 18v-2.016H15V18h2.016zm-4.032 0v-2.016h-1.969V18h1.969zM9 18v-2.016H6.984V18H9zm9.984-15C20.062 3 21 3.938 21 5.016v13.969c0 1.078-.938 2.016-2.016 2.016H5.015c-1.078 0-2.016-.938-2.016-2.016V5.016C2.999 3.938 3.937 3 5.015 3h13.969zm-12 6H9v2.016H6.984V9zM15 9h2.016v2.016H15V9zm-3.984 0h1.969v2.016h2.016v1.969h-2.016v-1.969h-1.969v1.969H9v-1.969h2.016V9zm6 3.984V15h1.969v-2.016h-1.969zm-10.032 0H5.015V15h1.969v-2.016z"/></symbol><symbol id="icon-csswizardry" viewBox="0 0 32 32"><path fill="var(--color1, #f43059)" d="M.04 21.904V1.491A1.49 1.49 0 0 1 1.529 0H30.4c.832 0 1.493.667 1.493 1.493v19.68c-.893-.547-1.947-.821-3.143-.821-1.672 0-2.94.4-3.805 1.195-.867.797-1.293 1.771-1.293 2.967 0 1.293.44 2.253 1.333 2.867.52.38 1.48.72 2.853 1.016l1.4.32c.84.177 1.427.4 1.813.613.373.244.573.583.573 1.02 0 .755-.387 1.273-1.16 1.531l-.04.021h-2.947a2.261 2.261 0 0 1-.92-.6c-.24-.299-.4-.733-.48-1.351h-2.64c0 .755.137 1.393.44 1.973h-2.24c.253-.52.4-1.097.4-1.756 0-1.173-.4-2.067-1.181-2.688-.499-.396-1.253-.713-2.251-.956l-2.293-.536c-.88-.187-1.453-.373-1.733-.533-.413-.24-.613-.6-.613-1.053 0-.507.213-.907.627-1.187.44-.28 1-.413 1.72-.413.653 0 1.173.12 1.613.347.659.341 1 .92 1.053 1.716h2.667c-.04-1.395-.553-2.471-1.533-3.205-.992-.733-2.167-1.113-3.56-1.113-1.673 0-2.927.4-3.804 1.173-.853.777-1.293 1.773-1.293 2.947 0 1.293.44 2.251 1.333 2.867.536.36 1.493.697 2.867 1.013l1.393.32c.813.18 1.413.38 1.813.62.373.24.573.573.573 1.013 0 .76-.4 1.253-1.173 1.533h-2.987c-.379-.141-.693-.341-.92-.62-.24-.293-.413-.752-.493-1.352h-2.689c0 .744.14 1.4.427 1.973H8.813c.44-.693.737-1.493.884-2.387H6.96c-.187.68-.416 1.197-.7 1.533-.347.44-.8.72-1.36.86H3.264c-.6-.14-1.116-.477-1.533-1.013-.619-.744-.917-1.859-.917-3.333 0-1.493.307-2.627.88-3.44.6-.817 1.373-1.213 2.387-1.213 1 0 1.733.28 2.253.859.28.32.52.8.693 1.435H9.8c-.04-.824-.347-1.653-.915-2.48-1.029-1.467-2.659-2.2-4.885-2.2-1.547 0-2.845.48-3.88 1.413l-.067-.147zm31.859 4.848V24.68h-.688c-.047-.796-.4-1.363-1.044-1.699-.417-.219-.956-.331-1.591-.331-.72 0-1.273.147-1.693.429a1.395 1.395 0 0 0-.637 1.203c0 .473.221.827.636 1.06.293.14.867.339 1.747.539l2.293.547c.4.08.747.2 1.067.307l-.067.04z"/></symbol><symbol id="icon-webpack" viewBox="0 0 32 32"><path fill="var(--color2, #8dd6f9)" d="M28.021 24.16l-11.553 6.506v-5.068l7.198-3.942 4.355 2.503zm.79-.712V9.841l-4.228 2.429v8.746l4.228 2.432zm-24.91.712l11.553 6.506v-5.068l-7.198-3.942-4.355 2.503zm-.79-.712V9.841l4.228 2.429v8.746l-4.228 2.432zM3.605 8.96l11.849-6.674v4.9l-7.649 4.19-4.2-2.415zm24.712 0L16.468 2.286v4.9l7.649 4.19 4.2-2.415zM15.454 24.446l-7.102-3.887v-7.703l7.101 4.083v7.508zm1.014 0l7.101-3.887v-7.703l-7.101 4.083v7.508zM8.833 11.965l7.129-3.904 7.129 3.904-7.129 4.099-7.129-4.099z"/></symbol><symbol id="icon-javascript" viewBox="0 0 32 32"><path fill="var(--color3, #f7df1e)" d="M0 0h32v32H0V0zm29.379 24.368c-.233-1.46-1.184-2.687-4.004-3.831-.981-.46-2.072-.78-2.396-1.52-.121-.44-.14-.68-.061-.94.2-.861 1.22-1.12 2.02-.88.52.16 1 .56 1.301 1.2 1.379-.901 1.379-.901 2.34-1.5-.36-.56-.539-.801-.781-1.04-.84-.94-1.959-1.42-3.779-1.379l-.94.119c-.901.22-1.76.7-2.28 1.34-1.52 1.721-1.081 4.721.759 5.961 1.82 1.36 4.481 1.659 4.821 2.94.32 1.56-1.16 2.06-2.621 1.88-1.081-.24-1.68-.781-2.34-1.781l-2.44 1.401c.28.64.6.919 1.08 1.479 2.32 2.341 8.12 2.221 9.161-1.339.039-.12.32-.94.099-2.2l.061.089zm-11.978-9.66h-2.997c0 2.584-.012 5.152-.012 7.74 0 1.643.084 3.151-.184 3.615-.44.919-1.573.801-2.088.64-.528-.261-.796-.621-1.107-1.14-.084-.14-.147-.261-.169-.261l-2.433 1.5c.407.84 1 1.563 1.765 2.023 1.14.68 2.672.9 4.276.54 1.044-.301 1.944-.921 2.415-1.881.68-1.24.536-2.76.529-4.461.016-2.739 0-5.479 0-8.239l.005-.075z"/></symbol><symbol id="icon-sass" viewBox="0 0 32 32"><path fill="var(--color4, #c69)" d="M16 0c8.836 0 16 7.164 16 16s-7.164 16-16 16S0 24.836 0 16 7.164 0 16 0zm-3.18 21.331c.233.86.208 1.664-.032 2.389l-.087.24c-.032.081-.069.16-.104.235a4.492 4.492 0 0 1-.74 1.08c-.931 1.012-2.229 1.396-2.787 1.073-.6-.349-.301-1.78.779-2.92 1.161-1.224 2.827-2.012 2.827-2.012v-.004l.144-.081zM26.035 6.849c-.723-2.844-5.436-3.779-9.896-2.193-2.652.943-5.525 2.424-7.591 4.356-2.457 2.295-2.848 4.295-2.687 5.131.569 2.948 4.609 4.876 6.271 6.307v.008c-.489.24-4.075 2.039-4.915 3.9-.9 1.96.14 3.361.82 3.54 2.1.581 4.26-.48 5.42-2.199 1.12-1.681 1.021-3.841.539-4.901.661-.18 1.44-.26 2.44-.139 2.801.32 3.361 2.08 3.24 2.8-.12.719-.697 1.139-.899 1.259-.2.121-.26.16-.241.241.02.12.121.12.28.1.22-.04 1.461-.6 1.521-1.961.06-1.72-1.581-3.639-4.5-3.6-1.2.021-1.961.121-2.5.341a.479.479 0 0 0-.14-.14c-1.8-1.94-5.14-3.3-5-5.88.04-.94.38-3.419 6.4-6.419 4.94-2.461 8.881-1.78 9.561-.28.977 2.139-2.101 6.12-7.241 6.699-1.96.22-2.98-.539-3.241-.82-.279-.3-.319-.32-.419-.259-.16.08-.06.34 0 .5.16.4.78 1.1 1.861 1.46.939.3 3.24.479 6-.6 3.099-1.199 5.519-4.54 4.819-7.34l.097.089z"/></symbol><symbol id="icon-bitbucket" viewBox="0 0 32 32"><path fill="var(--color5, #0052cc)" d="M1.037 1.615a1.024 1.024 0 0 0-1.024 1.19L4.364 29.22a1.397 1.397 0 0 0 1.363 1.163H26.6a1.03 1.03 0 0 0 1.027-.861l4.36-26.707a1.024 1.024 0 0 0-1.024-1.188L1.038 1.616zM19.36 20.704h-6.664l-1.803-9.419h10.081l-1.615 9.419z"/></symbol><symbol id="icon-github" viewBox="0 0 32 32"><path d="M16 .396c-8.84 0-16 7.164-16 16 0 7.071 4.584 13.067 10.94 15.18.8.151 1.093-.344 1.093-.769 0-.38-.013-1.387-.02-2.72-4.451.965-5.389-2.147-5.389-2.147-.728-1.847-1.78-2.34-1.78-2.34-1.449-.992.112-.972.112-.972 1.607.112 2.451 1.648 2.451 1.648 1.427 2.447 3.745 1.74 4.66 1.331.144-1.035.556-1.74 1.013-2.14-3.553-.4-7.288-1.776-7.288-7.907 0-1.747.62-3.173 1.647-4.293-.18-.404-.72-2.031.14-4.235 0 0 1.34-.429 4.4 1.64 1.28-.356 2.64-.532 4-.54 1.36.008 2.72.184 4 .54 3.04-2.069 4.38-1.64 4.38-1.64.86 2.204.32 3.831.16 4.235 1.02 1.12 1.64 2.547 1.64 4.293 0 6.147-3.74 7.5-7.3 7.893.56.48 1.08 1.461 1.08 2.96 0 2.141-.02 3.861-.02 4.381 0 .42.28.92 1.1.76C27.42 29.455 32 23.455 32 16.395c0-8.836-7.164-16-16-16z"/></symbol><symbol id="icon-npm" viewBox="0 0 32 32"><path fill="var(--color6, #cb3837)" d="M0 9.779v10.667h8.888v1.776H16v-1.776h16V9.779H0zm8.888 8.885H7.112v-5.333h-1.78v5.333H1.78v-7.108h7.108v7.108zm5.333 0v1.781h-3.553v-8.889h7.112v7.109l-3.559-.001zm16.002 0H28.45v-5.333h-1.781v5.333h-1.78v-5.333h-1.773v5.333h-3.561v-7.108h10.669v7.108z"/><path fill="var(--color6, #cb3837)" d="M14.22 13.333H16v3.556h-1.78v-3.556z"/></symbol><symbol id="icon-shopify" viewBox="0 0 32 32"><path fill="var(--color7, #7ab55c)" d="M20.449 31.972l9.621-2.081s-3.472-23.484-3.5-23.64c-.024-.155-.152-.256-.281-.256s-2.572-.181-2.572-.181-1.7-1.699-1.919-1.881a.528.528 0 0 0-.161-.099l-1.219 28.139h.031zm-4.836-16.899s-1.08-.565-2.365-.565c-1.929 0-2.005 1.208-2.005 1.521 0 1.643 4.32 2.287 4.32 6.172 0 3.06-1.92 5.013-4.541 5.013-3.139 0-4.72-1.953-4.72-1.953l.861-2.781s1.66 1.421 3.04 1.421c.9 0 1.3-.727 1.3-1.243 0-2.159-3.539-2.259-3.539-5.812-.045-2.983 2.095-5.888 6.436-5.888 1.676 0 2.5.481 2.5.481l-1.26 3.62-.027.013zm-.72-13.966c.181 0 .361.051.54.18-1.312.62-2.752 2.185-3.344 5.323-.875.284-1.724.54-2.519.771.692-2.38 2.364-6.26 5.323-6.26v-.013zm1.647 3.932v.18c-1.005.309-2.111.645-3.192.981.621-2.369 1.777-3.527 2.78-3.961.257.668.412 1.568.412 2.8zm.719-2.979c.925.099 1.521 1.156 1.905 2.34-.465.152-.98.308-1.544.488v-.336c0-1.003-.128-1.828-.361-2.495v.003zm3.989 1.719c-.027 0-.08.028-.104.028s-.385.1-.952.28c-.564-1.644-1.568-3.16-3.344-3.16h-.153C16.18.279 15.559 0 15.02 0 10.879 0 8.9 5.169 8.28 7.795c-1.592.487-2.751.848-2.88.899-.9.284-.925.309-1.029 1.16-.1.616-2.44 18.751-2.44 18.751l18.081 3.396L21.248 3.78z"/></symbol><symbol id="icon-git" viewBox="0 0 32 32"><path fill="var(--color8, #f05032)" d="M31.395 14.573L17.423.602a2.065 2.065 0 0 0-2.917 0l-2.895 2.9 3.68 3.68a2.452 2.452 0 0 1 3.103 3.121l3.544 3.547a2.451 2.451 0 0 1 2.533 4.052 2.449 2.449 0 0 1-3.467 0 2.46 2.46 0 0 1-.539-2.661l-3.319-3.301v8.7c.235.115.456.271.651.464a2.463 2.463 0 0 1 0 3.467 2.46 2.46 0 0 1-3.479 0 2.445 2.445 0 0 1 0-3.464c.243-.24.516-.421.807-.541v-8.785a2.433 2.433 0 0 1-.8-.535 2.445 2.445 0 0 1-.528-2.679l-3.616-3.633L.6 14.509c-.8.807-.8 2.112 0 2.919l13.973 13.969a2.061 2.061 0 0 0 2.915 0L31.395 17.49a2.059 2.059 0 0 0 0-2.916z"/></symbol><symbol id="icon-mailchimp" viewBox="0 0 32 32"><path fill="var(--color9, #ffe01b)" d="M23.973 15.121c.22-.028.443-.028.663 0 .119-.273.139-.744.032-1.256-.16-.761-.373-1.223-.817-1.151s-.461.624-.301 1.385c.089.428.248.795.425 1.021zm-3.813.603c.319.14.513.232.589.152.049-.051.035-.147-.04-.271-.157-.257-.48-.517-.823-.663a2.198 2.198 0 0 0-.857-.171 2.22 2.22 0 0 0-1.327.437l.006-.004c-.213.156-.413.373-.387.504.011.043.041.075.116.085.176.02.788-.289 1.493-.333.499-.031.912.125 1.229.265zm-.64.365c-.413.067-.641.203-.788.329-.125.109-.203.231-.203.316l.032.076.068.027c.093 0 .304-.085.304-.085a2.595 2.595 0 0 1 1.348-.137l-.015-.002c.207.024.307.037.351-.035.013-.02.031-.065-.011-.133-.097-.157-.516-.423-1.085-.355zm3.167 1.342c.28.139.589.084.691-.12.101-.207-.045-.485-.327-.623-.28-.139-.589-.084-.691.12-.101.207.045.485.327.623zm1.806-1.582c-.228-.004-.419.247-.423.561-.005.313.175.571.403.575s.419-.247.424-.56c.004-.313-.176-.571-.404-.576zM9.155 21.507c-.056-.071-.149-.049-.24-.028a.837.837 0 0 1-.213.029h-.011a.461.461 0 0 1-.378-.196l-.001-.001c-.104-.16-.097-.399.016-.672l.053-.123c.184-.411.491-1.1.147-1.756-.259-.493-.681-.803-1.189-.867a1.522 1.522 0 0 0-1.31.473l-.001.001c-.505.557-.584 1.317-.485 1.587.036.097.092.125.132.131.087.012.213-.051.293-.267l.023-.069a2.09 2.09 0 0 1 .209-.493.917.917 0 0 1 1.274-.264l-.003-.002c.355.233.491.667.34 1.081-.079.215-.205.624-.177.96.057.683.476.956.851.987.365.013.621-.193.685-.344.04-.088.007-.143-.013-.167v.001z"/><path fill="var(--color9, #ffe01b)" d="M30.255 20.259a22.419 22.419 0 0 0-.229-.781l-.253-.68c.5-.751.508-1.421.443-1.8-.072-.471-.267-.872-.661-1.285-.393-.416-1.2-.84-2.333-1.157l-.593-.165c-.003-.024-.031-1.404-.057-1.996-.017-.427-.055-1.096-.261-1.753-.247-.892-.676-1.671-1.213-2.169 1.48-1.536 2.404-3.229 2.401-4.681-.004-2.793-3.428-3.64-7.648-1.888l-.893.38c-.417-.411-.952-.936-1.486-1.459l-.154-.15C12.505-3.53-2.537 13.219 2.271 17.288l1.052.891a5.07 5.07 0 0 0-.326 1.809c0 .205.012.407.035.606l-.002-.024c.113 1.12.689 2.192 1.624 3.021.887.787 2.053 1.287 3.185 1.285 1.871 4.32 6.147 6.971 11.16 7.12 5.379.16 9.893-2.368 11.787-6.909.124-.32.648-1.756.648-3.023 0-1.275-.719-1.803-1.176-1.803zm-22.004 3.4a2.556 2.556 0 0 1-.435.037l-.067-.001h.003c-1.624-.044-3.379-1.508-3.553-3.247-.193-1.92.787-3.397 2.52-3.747a2.907 2.907 0 0 1 .737-.053h-.007c.972.053 2.404.8 2.731 2.921.289 1.877-.171 3.791-1.928 4.091zm-1.814-8.107c-1.08.209-2.032.823-2.613 1.669-.348-.291-.996-.853-1.111-1.072-.929-1.767 1.013-5.203 2.371-7.143C8.44 4.211 13.691.582 16.124 1.241c.395.112 1.704 1.632 1.704 1.632s-2.431 1.351-4.685 3.235c-3.037 2.343-5.332 5.748-6.707 9.444zm17.05 7.389a.096.096 0 0 0 .056-.087v-.008a.09.09 0 0 0-.089-.081l-.01.001s-2.544.377-4.948-.505c.261-.852.957-.544 2.011-.459a14.668 14.668 0 0 0 4.957-.551l-.104.026c1.088-.313 2.517-.931 3.629-1.808.373.824.507 1.731.507 1.731s.289-.052.532.097c.228.141.396.435.281 1.193-.233 1.417-.835 2.568-1.845 3.627a7.64 7.64 0 0 1-2.174 1.639l-.044.02c-.406.22-.884.427-1.381.594l-.066.019c-3.811 1.247-7.712-.124-8.969-3.067a4.426 4.426 0 0 1-.245-.662l-.008-.034c-.535-1.94-.08-4.267 1.343-5.732.087-.093.176-.204.176-.341 0-.116-.073-.237-.136-.324-.497-.723-2.221-1.955-1.875-4.339.248-1.713 1.744-2.919 3.137-2.847l.353.02c.604.036 1.131.113 1.629.135.832.036 1.58-.085 2.467-.825.299-.249.539-.467.944-.535.043-.007.148-.045.36-.035.227.009.436.08.612.197l-.004-.003c.711.473.811 1.62.848 2.46.021.48.079 1.637.099 1.971.045.76.244.867.648 1 .227.076.439.132.749.219.94.265 1.497.533 1.849.879.211.215.307.444.337.663.112.811-.627 1.812-2.584 2.721-2.14.995-4.733 1.247-6.527 1.047l-.628-.071c-1.435-.193-2.252 1.663-1.392 2.935.555.82 2.067 1.353 3.577 1.353 3.467 0 6.131-1.481 7.121-2.763l.08-.113c.048-.073.008-.113-.053-.072-.809.555-4.405 2.759-8.253 2.095 0 0-.467-.076-.893-.243-.339-.132-1.048-.459-1.133-1.188 3.104.961 5.057.052 5.057.052zm-4.918-.581l.001.001v-.003zM12.631 8.987c1.193-1.381 2.661-2.581 3.976-3.255.045-.023.093.027.069.071-.105.189-.307.596-.369.903l-.001.011c0 .029.024.053.053.053a.048.048 0 0 0 .029-.009c.819-.559 2.241-1.157 3.491-1.233.053-.004.08.065.036.099a2.978 2.978 0 0 0-.548.551.052.052 0 0 0 .041.085c.876.007 2.112.313 2.917.767.053.031.016.136-.045.123-1.219-.28-3.213-.493-5.285.013-1.849.452-3.261 1.149-4.291 1.9-.053.039-.115-.031-.073-.08z"/></symbol><symbol id="icon-invision" viewBox="0 0 32 32"><path fill="var(--color10, #f36)" d="M29.1 0H2.9C1.3 0 0 1.3 0 2.9v26.2C0 30.7 1.3 32 2.9 32h26.2c1.6 0 2.9-1.3 2.9-2.9V2.9C32 1.3 30.7 0 29.1 0zM10.693 6.223c1.064 0 1.957.84 1.957 1.92 0 1.093-.893 1.925-1.957 1.925v.036c-1.071 0-1.939-.867-1.939-1.94s.867-1.94 1.94-1.94zm13.088 18.42c-1.979 0-2.939-1.18-2.939-2.787 0-.461.059-.951.2-1.44l.947-3.393a3.39 3.39 0 0 0 .147-1.033c0-1.093-.667-1.753-1.728-1.753-1.351 0-2.24.969-2.7 2.84l-1.84 7.38h-3.219l.576-2.32c-.944 1.555-2.26 2.513-3.88 2.513-1.956 0-2.876-1.123-2.876-2.817a6.71 6.71 0 0 1 .173-1.447v.003l1.467-5.987H5.833l.691-2.54h5.467l-2.16 8.54c-.14.547-.2 1-.2 1.315 0 .547.269.707.689.805.26.053 2.3.016 3.413-2.453l1.413-5.667h-2.297l.693-2.5h4.96l-.64 2.88c.863-1.6 2.583-3.14 4.283-3.14 1.8 0 3.3 1.3 3.3 3.76 0 .712-.107 1.42-.32 2.1l-.92 3.301c-.08.339-.139.62-.139.88 0 .579.24.86.659.86s.98-.32 1.6-2.08l1.257.48c-.74 2.619-2.101 3.699-3.8 3.699z"/></symbol><symbol id="icon-inkscape" viewBox="0 0 32 32"><path d="M15.829.255a3.69 3.69 0 0 0-2.657 1.072L1.405 13.378c-4.457 4.453 2.885 4.081 5.539 5.767 1.229.803-3.94 1.828-2.885 2.885 1.028 1.057 6.2 2.028 7.229 3.057 1.028 1.055-2.085 2.169-1.057 3.224 1 1.057 3.399.057 3.827 2.456.313 1.771 4.4.888 6.229-.628 1.139-.972-1.972-.972-.944-2.028 2.572-2.599 4.856-1.167 5.799-3.568.516-1.284-3.884-2.2-2.712-3.028 2.801-1.969 13.083-2.969 8.34-7.709L18.574 1.327A4.001 4.001 0 0 0 15.83.255zm.1 1.145c.705.004 1.413.268 1.925.779l4.656 4.743c.431.428.431 1.315.172 1.571L20.37 6.61l-.457 2.769L18 8.35l-3.115 1.971-1.028-4.14-1.656 3.597-4.143-.029c-.8 0-.685-.828.143-1.656 1.628-1.8 4.8-4.853 5.8-5.911.513-.528 1.22-.785 1.927-.779l.001-.003zm13.007 21.701c-.987.033-1.995.527-2.252 1.44 0 .599 4.656.943 4.401-.143-.188-.915-1.16-1.336-2.148-1.3v.003zM8.475 25.695c-1.344.079-2.784 1.055-1.643 2.016 1.055.915 2.656-.2 3.169-1.484-.32-.421-.915-.568-1.524-.531h-.003zm17.638.102c-1.315 1.2.227 2.456 1.512 1.628.344-.231-.028-1.34-1.512-1.628z"/></symbol><symbol id="icon-jira" viewBox="0 0 32 32"><path d="M31.097 15.107L16 0 .893 15.107a1.278 1.278 0 0 0 0 1.796L16 32l15.097-15.097a1.259 1.259 0 0 0 0-1.796zM16 20.735L11.265 16 16 11.271 20.731 16 16 20.735z"/></symbol><symbol id="icon-html5" viewBox="0 0 32 32"><path fill="var(--color11, #e34f26)" d="M2 0h28l-2.547 28.751L15.969 32 4.55 28.749 1.999 0zm9.375 13l-.309-3.624 13.412.004.307-3.496L7.217 5.88l.931 10.68h12.168l-.435 4.568-3.88 1.072-3.94-1.08-.251-2.813H8.331l.44 5.561L16 25.801l7.172-1.924.992-10.876H11.375z"/></symbol><symbol id="icon-unsplash" viewBox="0 0 32 32"><path d="M10 9V0h12v9H10zm12 5h10v18H0V14h10v9h12v-9z"/></symbol><symbol id="icon-facebook" viewBox="0 0 32 32"><path fill="var(--color12, #3b5998)" d="M30.235 0H1.766C.791 0 .001.791.001 1.765v28.469c0 .976.791 1.765 1.765 1.765h15.325V19.607h-4.172v-4.828h4.172v-3.567c0-4.132 2.525-6.38 6.212-6.38 1.767 0 3.285.129 3.728.188v4.32H24.47c-2 0-2.389.961-2.389 2.361v3.081h4.779l-.62 4.84h-4.159v12.376h8.153c.977 0 1.767-.789 1.767-1.765V1.764c0-.975-.789-1.765-1.765-1.765z"/></symbol><symbol id="icon-whatsapp" viewBox="0 0 32 32"><path fill="var(--color13, #25d366)" d="M23.331 19.176c-.401-.2-2.356-1.156-2.72-1.288-.364-.135-.631-.2-.897.2-.263.393-1.028 1.285-1.259 1.549-.233.26-.465.28-.861.1-.4-.2-1.684-.62-3.204-1.98-1.184-1.06-1.979-2.36-2.213-2.76-.232-.4-.025-.62.173-.82.181-.18.401-.46.601-.697.195-.241.259-.401.396-.661.133-.28.065-.5-.033-.699-.1-.2-.896-2.16-1.229-2.941-.32-.779-.649-.68-.896-.68-.229-.02-.495-.02-.761-.02s-.697.099-1.063.479c-.364.4-1.393 1.36-1.393 3.3s1.427 3.82 1.625 4.1c.199.26 2.807 4.26 6.8 5.98.952.4 1.693.64 2.272.839.952.303 1.82.26 2.507.161.765-.121 2.356-.961 2.688-1.901.34-.94.34-1.72.24-1.9-.099-.18-.36-.28-.76-.46zM16.081 29h-.021c-2.36 0-4.699-.64-6.74-1.84l-.48-.285-5 1.3 1.34-4.86-.319-.5a13.156 13.156 0 0 1-2.021-7.013c0-7.26 5.94-13.18 13.256-13.18 3.539 0 6.86 1.38 9.361 3.88 2.5 2.479 3.879 5.8 3.879 9.32-.005 7.259-5.947 13.18-13.247 13.18zM27.36 4.599C24.32 1.66 20.32 0 16.06 0 7.284 0 .139 7.112.135 15.857c0 2.795.732 5.52 2.127 7.927L.001 32l8.447-2.203a16.087 16.087 0 0 0 7.613 1.929h.008c8.78 0 15.928-7.115 15.932-15.861 0-4.235-1.653-8.22-4.66-11.215z"/></symbol><symbol id="icon-mozillafirefox" viewBox="0 0 32 32"><path fill="var(--color14, #ff9400)" d="M31.213 14.64c-.04-.28-.093-.453-.093-.453s-.107.133-.293.373c-.053-.68-.173-1.36-.36-2.013a13.682 13.682 0 0 0-.933-2.387c-.24-.507-.52-1-.853-1.453-.173-.267-.32-.467-.347-.507-.573-.933-1.213-1.493-1.973-2.56a7.853 7.853 0 0 1-.973-2.653 9.9 9.9 0 0 0-.48 1.733c-.76-.773-1.44-1.333-1.84-1.707-2-1.867-1.76-2.827-1.76-2.827s-3.733 4.16-2.12 8.493a8.334 8.334 0 0 0 2.787 3.707c1.56 1.28 3.24 2.293 4.12 4.893a8.21 8.21 0 0 0-3.107-3.293c.4.947.6 1.947.587 2.973 0 3.893-3.16 7.053-7.067 7.053-.52 0-1.053-.053-1.56-.173-.613-.12-1.2-.32-1.747-.6a6.95 6.95 0 0 1-2.107-1.933v-.013c.067.027.107.04.12.04.293.107.587.187.893.24 1.2.253 2.44.107 3.547-.413 1.12-.627 1.8-1.08 2.347-.907s.96-.347.587-.893a2.928 2.928 0 0 0-2.827-1.093c-1.12.16-2.147.947-3.6.187-.107-.053-.187-.107-.28-.16-.093-.067.32.08.213.013a6.353 6.353 0 0 1-.92-.547c-.013-.013.227.067.2.053a3.516 3.516 0 0 1-.96-.973 1.77 1.77 0 0 1-.067-1.533c.147-.253.347-.44.6-.56.187.093.307.16.307.16s-.093-.16-.133-.24c.013-.013.027 0 .053-.013.16.067.52.253.72.373.133.067.24.173.333.293 0 0 .067-.027.013-.173a.814.814 0 0 0-.347-.413h.027c.147.08.28.16.413.267.12-.293.187-.587.173-.893a1.19 1.19 0 0 0-.067-.493c-.053-.107.027-.147.12-.04a.837.837 0 0 0-.08-.24s.053-.08.08-.093c.067-.067.133-.133.213-.173a8.868 8.868 0 0 1 1.453-.747c.413-.173.747-.32.813-.36.107-.067.2-.133.293-.213.347-.293.573-.693.653-1.133.013-.067.013-.12.013-.173v-.107c-.053-.227-.44-.387-2.453-.587a1.749 1.749 0 0 1-1.44-1.347v.013c-.027.067-.053.147-.08.227.027-.08.053-.147.08-.227v-.013c.387-1 1.08-1.867 1.973-2.453.053-.04-.2.013-.147-.027.16-.08.333-.16.52-.227.093-.027-.387-.213-.813-.173-.253.013-.507.08-.747.173.107-.08.4-.187.333-.187a4.425 4.425 0 0 0-1.533.573c0-.053.013-.093.027-.133-.373.16-.707.413-.947.733v-.173c-.173.133-.32.28-.467.44h-.013a6.192 6.192 0 0 0-3.48-.293l-.013-.013h.013a2.563 2.563 0 0 1-.613-.693l-.013.013-.027-.027c-.08-.107-.147-.24-.227-.387-.067-.093-.12-.213-.187-.333 0 0 0-.013-.013-.013s-.04.12-.053.08a4.214 4.214 0 0 1-.28-1.667h-.013a1.768 1.768 0 0 0-.707.933c-.067.133-.107.2-.147.28v-.04l.04-.2c-.013.013-.013.027-.027.04a1.737 1.737 0 0 0-.24.36c-.067.12-.12.253-.16.387v-.067c0-.053.013-.133 0-.107l-.013.04a9.334 9.334 0 0 0-.8 3c-.027.187-.027.36-.027.533v.027a7.099 7.099 0 0 0-.813 1.08 15.386 15.386 0 0 0-1.707 4.2c.253-.56.56-1.107.92-1.613a14.743 14.743 0 0 0-1.04 5.453c.12-.547.267-1.08.44-1.613-.107 2.2.32 4.4 1.24 6.413a14.872 14.872 0 0 0 5.907 6.68c1.053.72 2.213 1.28 3.427 1.653.16.053.333.12.493.173-.053-.027-.093-.053-.147-.067 1.44.427 2.947.653 4.453.653 5.347 0 7.107-2.04 7.28-2.24.253-.24.48-.52.627-.853.107-.04.2-.08.307-.133l.067-.027c.08-.04.12-.053.12-.053a11.379 11.379 0 0 0 2.267-1.413 5.46 5.46 0 0 0 2.093-3.08c.2-.453.2-.947.04-1.413.08-.133.147-.253.16-.28a12.583 12.583 0 0 0 1.893-6.12v-.187c0-.453-.04-.92-.12-1.373z"/></symbol><symbol id="icon-jenkins" viewBox="0 0 32 32"><path fill="var(--color15, #d24939)" d="M3.831 32h-1.3a5.503 5.503 0 0 1-.093-.263c-.287-.888-.792-1.987-.923-2.872-.195-1.312 1.04-1.385 1.832-1.953 1.22-.88 2.18-1.367 3.503-2.161.393-.237 1.576-.831 1.708-1.104.268-.544-.46-1.309-.653-1.735-.3-.675-.46-1.248-.501-1.912-1.099-.175-1.94-.836-2.459-1.58-.84-1.233-1.421-3.513-.7-5.248.06-.137.339-.407.38-.617.08-.412-.14-.96-.161-1.399-.08-2.256.38-4.2 1.901-4.88.617-2.453 2.817-3.271 4.897-4.489.775-.456 1.632-.749 2.52-1.076 3.163-1.169 8.037-.949 10.66 1.044 1.115.844 2.901 2.628 3.541 3.919 1.683 3.407 1.56 9.101.383 13.247-.161.561-.388 1.376-.711 2.044-.224.465-.919 1.4-.833 1.813.085.419 1.585 1.56 1.909 1.86.579.563 1.68 1.3 1.765 2 .093.743-.331 1.781-.547 2.5a211.13 211.13 0 0 1-.872 2.841L3.83 32zm14.805-4.721c-.727-.399-1.815-.828-2.753-1.008-1.159-.219-1.039 1.584-1 2.659.04.857.481 1.755.681 2.325.1.263.119.547.34.599.4.091 1.72-.435 2.1-.639.8-.437 1.419-1.125 2.099-1.585.021-.227.021-.453.041-.677a3.53 3.53 0 0 0-1.461-.369c.419-.2 1-.2 1.38-.443l.021-.257c-.661-.041-.919-.339-1.361-.581l-.087-.023zm9.94 3.914c.257-.825.479-1.628.62-2.336.079-.383.287-1.224.237-1.568-.079-.612-.912-1.065-1.339-1.448-.779-.7-1.268-1.3-2.081-1.959-.331.5-1.039.82-1.309 1.219 1.929-.919 2.279 3.5 1.521 4.919.12.44.521.601.685.981l-.115.221h1.719c.019 0 .041 0 .06.019l.001-.048zm-8.847-.016c-.065-.099-.133-.18-.2-.279l-.401.26h.601v.019zm3.695 0c.011-.279.024-.539.039-.797-.705.039-1.099-.64-1.593-.703-.432-.06-.8.481-1.36.26-.128.14-.245.303-.38.421.205.24.393.5.565.779h1.088c.019-.219.18-.38.399-.38.221 0 .38.161.38.36h.88l-.017.06zm2.821 0c-.419-.639-1.263-1.197-2.24-.74l-.041.721h2.281v.019zm-11.346 0l-.14-.459c-.3-.961-.479-1.68-.54-2.24-1.219-.581-2.5-1.161-3.539-1.901-.2-.14-1.479-1.8-1.64-1.74-2.319.901-4.479 2.479-6.419 3.979.341.743.64 1.521.92 2.32h11.34l.017.041zm11.02-2.817c-.039-.683-.219-2.081-.64-2.32-.88-.521-2.461 1.039-3.12 1.257.06.2.18.361.2.64.38-.099.86-.039 1.197.123-.399.039-.839.039-1.099.219-.099.26.021.64-.039 1.019.919.263 2 .404 3.18.443.219-.303.3-.86.281-1.443l.039.063zm-5.44-.48c-.06.5.06.68.159 1.257 1.68.521 1.38-2.32-.18-1.279l.021.021zM11.681 26c-.6.609 1.695 1.443 2.419 1.487 0-.388.22-.752.18-1.028-.865-.156-2.003-.055-2.593-.461l-.005.003zm7.42.287c0 .057-.081.039-.091.085.773.601 1.352.727 2.404.68.472-.349.893-.751 1.391-1.076-1.14.099-2.576.809-3.7.305l-.004.005zm4.56-23.636c-2.14-1.208-5.8-2.121-8.101-.975-1.84.923-4.36 2.455-5.199 4.389.8 1.869-.221 3.581-.301 5.479-.024 1.011.48 1.893.521 2.991-.267.451-1.1.507-1.68.475-.195-.972-.535-2.065-1.54-2.175-1.419-.153-2.46 1.02-2.521 2.245-.08 1.439 1.112 3.819 2.781 3.66.651-.061.811-.721 1.519-.721.38.76-.593 1-.697 1.54-.021.14.079.681.139.94.311 1.259.992 2.879 1.66 3.84.847 1.2 2.512 1.401 4.305 1.521.32-.7 1.5-.64 2.275-.461-.921-.36-1.781-1.26-2.5-2.039-.82-.901-1.64-1.88-1.681-3.04 1.54 2.139 2.8 3.999 5.601 4.939 2.12.7 4.599-.339 6.219-1.479.68-.479 1.081-1.24 1.56-1.919 1.8-2.581 2.64-6.28 2.461-9.86-.081-1.481-.081-2.961-.581-3.94-.519-1.041-2.26-1.961-3.3-1.041-.2-1.019.839-1.639 2.06-1.279-.88-1.14-1.781-2.479-3.021-3.18l.023.089zm-5.552 17.21c.82 2.059 3.633 1.817 6.008 1.764-.112.259-.341.58-.62.687-.76.309-2.861.544-3.917-.016-.675-.361-1.099-1.164-1.469-1.636-.183-.229-1.06-.811-.016-.812l.015.013zm.219-1.161c1.191.62 3.36.691 4.976.64.088.357.088.792.091 1.219-2.068.107-4.516-.405-5.06-1.86h-.007zm8.901-.78c-.631 1.2-1.527 2.529-3.385 2.571-.031-.379-.06-.98 0-1.205 1.419-.137 2.303-.861 3.391-1.356l-.005-.009zm-.865-.889c-1.36.88-2.872 1.833-5.099 1.613-.469-.413-.648-1.335-.188-1.944.243.417.081 1.18.76 1.292 1.26.221 2.719-.771 3.64-1.12.56-.949-.06-1.3-.56-1.909-1.041-1.241-2.44-2.8-2.401-4.68.419-.3.461.46.521.599.539 1.281 1.899 2.901 2.899 4 .24.281.64.521.68.7.123.519-.339 1.139-.279 1.479l.027-.029zm-17.92-.9c-.419-.245-.524-1.32-1.024-1.347-.713-.04-.584 1.399-.581 2.239-.493-.439-.58-1.819-.219-2.52-.411-.2-.593.22-.824.38.293-2.12 3.12-.979 2.652 1.28l-.004-.032zM6.285 7.992c-.913 1.008-.72 2.899-.612 4.251 1.659-1.047 3.864.08 3.844 1.86.793-.021.297-.992.153-1.62-.471-2.039.789-4.251.055-6.12-1.419.111-2.585.692-3.437 1.619l-.003.011zm12.16 1.484c.409.749.539 1.531 1.12 2.093.26.255.765.565.516 1.268-.06.161-.487.521-.735.6-.899.26-3.005.04-2.295-1.08.751.02 1.752.479 2.309-.06-.419-.7-1.18-2.04-.899-2.84l-.017.019zm8.266-.017h.091c.44.891.8 1.833 1.339 2.62-.36.839-2.737 1.587-2.697.076.519-.227 1.399-.047 1.86-.333-.257-.741-.64-1.341-.579-2.361l-.013-.001zm-9.238-2.156c-1.896-.44-2.841.789-3.413 2.071-.512-.125-.308-.82-.18-1.177.34-.935 1.707-2.177 2.825-2.008.479.076 1.131.515.768 1.112v.003zm-4.616-5.18c-2.08.587-4.747 2.099-5.6 3.965.66-.093 1.12-.428 1.773-.468.248-.021.571.099.855.02.565-.139 1.04-1.42 1.469-1.879.415-.461.913-.663 1.255-1.081.221-.12.544-.099.56-.44-.099-.1-.2-.18-.311-.14v.023z"/></symbol><symbol id="icon-windows" viewBox="0 0 32 32"><path fill="var(--color16, #0078d6)" d="M0 4.599L13 2.8v12.601H0zm14.599-2L32 0v15.2H14.599zM0 16.8h13v12.601L0 27.598zm14.599 0H32V32l-17.2-2.401z"/></symbol><symbol id="icon-nodemon" viewBox="0 0 32 32"><path fill="var(--color17, #76d04b)" d="M29.773 10.468l-.955-.531C30.286 7.845 31.162 4.701 30.063 0c0 0-2.476 6.705-7.453 6.484l-5.827-3.241a1.543 1.543 0 0 0-.712-.2h-.138a1.565 1.565 0 0 0-.725.204l.008-.004-5.828 3.241C4.411 6.707 1.935 0 1.935 0c-1.1 4.701-.221 7.845 1.245 9.937l-.955.531a1.514 1.514 0 0 0-.785 1.317l.029 19.455c0 .271.145.523.392.655a.767.767 0 0 0 .782-.002l-.004.002 7.72-4.272c.488-.281.785-.776.785-1.316v-9.089a1.5 1.5 0 0 1 .784-1.312l3.287-1.829c.225-.129.494-.205.781-.205h.006c.267 0 .543.067.78.205l3.287 1.829a1.5 1.5 0 0 1 .784 1.312v9.089c0 .54.301 1.039.787 1.316l7.717 4.272a.779.779 0 0 0 .789-.002l-.004.002a.75.75 0 0 0 .389-.654l.025-19.455a1.502 1.502 0 0 0-.778-1.313l-.008-.004z"/></symbol><symbol id="icon-adobephotoshop" viewBox="0 0 32 32"><path fill="var(--color18, #00c8ff)" d="M0 .4v31.2h32V.4H0zm1.333 1.333h29.333v28.533H1.333V1.733zm6.4 5.974c0-.089.187-.155.299-.155a73.618 73.618 0 0 1 3.437-.067c3.696 0 5.133 2.027 5.133 4.621 0 3.387-2.456 4.84-5.469 4.84-.507 0-.68-.023-1.033-.023v5.123c0 .111-.044.155-.153.155H7.888c-.111 0-.153-.04-.153-.151V7.706zm2.367 7.082c.307.021.549.021 1.08.021 1.56 0 3.027-.549 3.027-2.661 0-1.693-1.048-2.552-2.829-2.552-.528 0-1.033.021-1.276.044v5.152zm11.476-1.584c-1.056 0-1.408.528-1.408.968 0 .484.24.813 1.649 1.54 2.091 1.013 2.749 1.98 2.749 3.409 0 2.133-1.627 3.28-3.827 3.28-1.168 0-2.16-.244-2.733-.573-.087-.044-.107-.109-.107-.22v-1.956c0-.133.064-.177.152-.112a4.91 4.91 0 0 0 2.683.792c1.056 0 1.496-.44 1.496-1.035 0-.484-.307-.903-1.649-1.607-1.893-.907-2.685-1.827-2.685-3.369 0-1.716 1.341-3.147 3.673-3.147 1.147 0 1.952.176 2.392.373.109.067.133.176.133.264v1.827c0 .111-.067.177-.2.133-.592-.352-1.467-.573-2.324-.573z"/></symbol><symbol id="icon-codepen" viewBox="0 0 32 32"><path d="M32 10.909l-.024-.116-.023-.067c-.013-.032-.024-.067-.04-.1-.004-.024-.02-.045-.027-.067l-.047-.089-.04-.067-.059-.08-.061-.06-.08-.06-.061-.04-.08-.059-.059-.053-.02-.027L16.772.252a1.367 1.367 0 0 0-1.523 0L.444 10.135l-.051.053-.067.075-.049.06-.067.08c-.027.023-.04.04-.04.061l-.067.08-.027.08c-.027.013-.027.053-.04.093l-.013.067c-.025.041-.025.081-.025.121v9.996c0 .059.004.12.013.18l.013.061c.007.04.013.08.027.115l.02.067c.013.036.021.071.036.1l.029.067c0 .013.02.053.04.08l.04.053c.02.013.04.053.06.08l.04.053.053.053c.013.017.013.04.04.04l.08.056.053.04.013.019 14.627 9.773c.219.16.5.217.76.217s.52-.08.76-.24l14.877-9.875.069-.077.044-.06.053-.08.04-.067.04-.093.021-.069.04-.103.02-.06.04-.107v-10c0-.067 0-.127-.021-.187l-.019-.06.059.004zm-15.987 8.374l-4.867-3.253 4.867-3.256 4.867 3.253-4.867 3.253zm-1.378-8.899l-5.964 3.987-4.817-3.221 10.781-7.187v6.424zm-8.44 5.644l-3.443 2.307v-4.601l3.443 2.301zm2.476 1.667l5.964 3.987v6.427L3.854 20.921l4.824-3.223v-.005zm8.716 3.986l5.965-3.973 4.817 3.227-10.783 7.187v-6.427zm8.44-5.64l3.444-2.293v4.608l-3.444-2.307zm-2.474-1.653L17.389 10.4V3.96l10.78 7.187-4.816 3.224z"/></symbol><symbol id="icon-trello" viewBox="0 0 32 32"><path fill="var(--color19, #0079bf)" d="M28 0H4a4 4 0 0 0-4 4v24a4 4 0 0 0 4 4h24c2.208 0 4-1.792 4-4V4a4 4 0 0 0-4-4zM13.92 24.24c0 1.06-.86 1.92-1.92 1.92H6.08c-1.06 0-1.92-.861-1.92-1.92V6.08c0-1.06.86-1.92 1.92-1.92H12c1.06 0 1.92.86 1.92 1.92v18.16zm13.92-8c0 1.059-.86 1.92-1.92 1.92H20c-1.06 0-1.92-.861-1.92-1.92V6.08c0-1.06.861-1.92 1.92-1.92h5.92c1.06 0 1.92.86 1.92 1.92v10.16z"/></symbol><symbol id="icon-udemy" viewBox="0 0 32 32"><path fill="var(--color20, #ec5252)" d="M31.44 17.84a.882.882 0 0 0-.367-.186l-.006-.001c-.8.813-1.8 1.667-2.667 2.24-.413.267-.933.4-1.267.4-.787 0-1.12-.733-1.213-1.92a70.733 70.733 0 0 1-.227-6.475v.035c0-3.013-.693-5.067-2.507-5.227l-.24-.013c-1.107 0-1.653.573-2.36 2.027-.613 1.253-1.56 3.067-3.307 6.533-1.438 2.839-2.989 5.277-4.746 7.546l.079-.106c-.413.507-.733.853-1.04 1.067a1.06 1.06 0 0 1-.586.187h-.001c-.573 0-1-.48-1.133-1.613a7.055 7.055 0 0 1-.053-.88v-.042.002c0-2.333.88-6.133 2.4-11.707 1.107-4.067.64-6.84-1.787-6.84h-.04c-.547 0-1 .213-1.44.56-.44.333-.867 1.08-1.28 2.08-.453 1.12-3.227 6.707-7.653 9.6-.053 1.08.56 2.173 1.827 2.307 1.133.107 1.947-.373 2.987-1.08l-.213.973a36.176 36.176 0 0 0-.637 3.232l-.03.235c-.613 5.6 1.96 8.36 4.987 8.36.507 0 1.013-.067 1.507-.2 3.333-.84 6.533-4.68 10.333-13.507a24.633 24.633 0 0 0-.011 2.753l-.002-.06c.253 5.067 2.24 6.573 5.067 6.573 2.133 0 4.12-1.107 5.133-2.493A4.898 4.898 0 0 0 32 19.287v-.007c-.027-.653-.227-1.173-.56-1.44z"/></symbol><symbol id="icon-linkedin1" viewBox="0 0 32 32"><path fill="var(--color21, #0077b5)" d="M27.263 27.269h-4.739v-7.425c0-1.771-.036-4.049-2.469-4.049-2.471 0-2.848 1.927-2.848 3.919v7.556h-4.739V12.001h4.552v2.081h.061c.636-1.2 2.183-2.467 4.493-2.467 4.801 0 5.689 3.16 5.689 7.273v8.381zM7.116 9.911a2.75 2.75 0 0 1-2.751-2.753 2.752 2.752 0 1 1 2.751 2.753zm2.376 17.358H4.74V12h4.752v15.269zM29.633 0H2.361C1.056 0 0 1.032 0 2.305v27.389c0 1.275 1.056 2.305 2.361 2.305h27.268c1.304 0 2.371-1.031 2.371-2.305V2.305C32 1.032 30.933 0 29.629 0h.004z"/></symbol><symbol id="icon-react" viewBox="0 0 32 32"><path fill="var(--color22, #61dafb)" d="M18.852 16a2.852 2.852 0 1 1-5.704 0 2.852 2.852 0 0 1 5.704 0zM8.011 21.673l-.629-.16C2.691 20.328.001 18.316.001 15.994s2.691-4.333 7.381-5.519l.629-.159.177.624a31.104 31.104 0 0 0 1.899 4.957l-.082-.186.135.284-.135.284a29.368 29.368 0 0 0-1.761 4.551l-.056.22-.177.623zm-.922-9.74c-3.565 1.001-5.753 2.533-5.753 4.061 0 1.527 2.188 3.059 5.753 4.061a32.611 32.611 0 0 1 1.662-4.263l-.086.202a30.435 30.435 0 0 1-1.511-3.828l-.065-.234zm16.9 9.74l-.177-.625a30.782 30.782 0 0 0-1.9-4.954l.081.184-.135-.284.135-.284a29.456 29.456 0 0 0 1.762-4.55l.056-.221.177-.624.631.159c4.689 1.185 7.38 3.197 7.38 5.52s-2.691 4.333-7.38 5.519l-.631.16zm-.654-5.678a33.038 33.038 0 0 1 1.576 4.061c3.567-1.003 5.753-2.535 5.753-4.061 0-1.528-2.188-3.059-5.753-4.061a32.424 32.424 0 0 1-1.662 4.262l.086-.2z"/><path fill="var(--color22, #61dafb)" d="M7.08 11.927l-.177-.623C5.584 6.656 5.984 3.325 8 2.163c1.977-1.141 5.152.207 8.479 3.621l.453.465-.453.465a31.6 31.6 0 0 0-3.162 3.853l-.068.103-.18.257-.313.027a31.667 31.667 0 0 0-5.264.86l.218-.047-.629.159zm2.528-8.84c-.357 0-.673.077-.94.231-1.325.764-1.56 3.42-.647 7.004a31.194 31.194 0 0 1 4.18-.658l.131-.01a33.328 33.328 0 0 1 2.756-3.414l-.02.022c-2.08-2.025-4.049-3.175-5.46-3.175zm12.785 27.149c-.001 0-.001 0 0 0-1.9 0-4.34-1.431-6.872-4.031l-.453-.465.453-.465a31.427 31.427 0 0 0 3.16-3.854l.068-.103.18-.257.312-.027a31.74 31.74 0 0 0 5.267-.858l-.218.046.629-.159.179.624c1.316 4.645.917 7.977-1.099 9.139a3.132 3.132 0 0 1-1.562.411h-.047.002zm-5.461-4.508c2.08 2.025 4.049 3.175 5.46 3.175h.001c.356 0 .673-.077.939-.231 1.325-.764 1.561-3.421.647-7.005a30.933 30.933 0 0 1-4.182.658l-.13.01a33.219 33.219 0 0 1-2.755 3.416l.02-.022z"/><path fill="var(--color22, #61dafb)" d="M24.92 11.927l-.629-.159c-1.453-.376-3.175-.664-4.939-.806l-.111-.007-.312-.027-.18-.257a31.57 31.57 0 0 0-3.237-3.966l.009.01-.453-.465.453-.465C18.846 2.372 22.02 1.024 24 2.164c2.016 1.163 2.416 4.493 1.099 9.14l-.179.624zm-5.253-2.274c1.523.139 2.969.364 4.312.668.915-3.584.679-6.24-.647-7.004-1.317-.761-3.793.405-6.4 2.944a33.376 33.376 0 0 1 2.666 3.289l.069.103zM9.608 30.236h-.046a3.153 3.153 0 0 1-1.577-.419l.015.008c-2.016-1.161-2.416-4.492-1.097-9.139l.176-.624.629.159c1.54.388 3.239.661 5.047.812l.313.027.179.257a31.521 31.521 0 0 0 3.239 3.967l-.01-.01.453.465-.453.465c-2.531 2.6-4.971 4.031-6.868 4.031zm-1.587-8.569c-.915 3.584-.679 6.241.647 7.005 1.316.751 3.791-.407 6.4-2.944a33.543 33.543 0 0 1-2.667-3.29l-.069-.103a33.315 33.315 0 0 1-4.534-.711l.224.043z"/><path fill="var(--color22, #61dafb)" d="M16 22.504c-1.097 0-2.225-.048-3.355-.141l-.313-.027-.18-.257a38.303 38.303 0 0 1-1.697-2.639l-.103-.19a36.12 36.12 0 0 1-1.45-2.728l-.105-.243-.133-.284.133-.284a38.537 38.537 0 0 1 1.658-3.161l-.103.191a40.4 40.4 0 0 1 1.8-2.829l.18-.257.313-.027a40.227 40.227 0 0 1 6.86.011l-.15-.011.312.027.179.257a39.103 39.103 0 0 1 3.252 5.56l.104.24.135.284-.135.284a39.328 39.328 0 0 1-3.439 5.925l.083-.125-.179.257-.312.027a41.083 41.083 0 0 1-3.356.141zm-2.929-1.445c1.973.148 3.885.148 5.86 0a37.57 37.57 0 0 0 2.827-4.836l.101-.228a37.891 37.891 0 0 0-3.012-5.19l.083.126a39.304 39.304 0 0 0-5.992.008l.134-.008a36.95 36.95 0 0 0-2.83 4.84l-.099.224a38.502 38.502 0 0 0 3.014 5.193l-.085-.13z"/></symbol><symbol id="icon-buffer" viewBox="0 0 32 32"><path fill="var(--color23, #168eea)" d="M31.712 24.32c.383.189.383.356 0 .499l-15.143 6.964c-.383.193-.76.193-1.139 0L.283 24.819c-.379-.143-.379-.309 0-.5l3.629-1.64a1.22 1.22 0 0 1 1.136 0l10.383 4.764c.38.187.76.187 1.139 0l10.383-4.765a1.22 1.22 0 0 1 1.136 0l3.623 1.64zm0-8.605c.383.191.383.38 0 .568l-15.143 6.971c-.383.139-.76.139-1.139 0L.283 16.281c-.379-.191-.379-.379 0-.568l3.629-1.636c.379-.192.76-.192 1.136 0l10.383 4.76c.38.192.76.192 1.139 0l10.383-4.76a1.192 1.192 0 0 1 1.136 0l3.623 1.635zM.285 7.68c-.38-.191-.38-.356 0-.5L15.432.213a1.22 1.22 0 0 1 1.136 0l15.144 6.973c.383.143.383.309 0 .5L16.569 14.65c-.383.191-.76.191-1.139 0L.283 7.679z"/></symbol><symbol id="icon-css3" viewBox="0 0 32 32"><path fill="var(--color24, #1572b6)" d="M2 0h28l-2.547 28.751L15.969 32l-11.42-3.251L2 0zm22.787 5.884L7.214 5.88l.284 3.496 13.5.003-.34 3.621h-8.853l.32 3.431h8.243l-.488 4.697L16 22.2l-3.941-1.08-.251-2.813h-3.48l.387 5.14 7.287 2.271 7.164-2.04 1.623-17.792z"/></symbol><symbol id="icon-wordpress" viewBox="0 0 32 32"><path fill="var(--color25, #21759b)" d="M28.625 9.1a14.342 14.342 0 0 1 1.757 6.9c0 5.305-2.875 9.941-7.151 12.433l4.393-12.703c.82-2.053 1.093-3.695 1.093-5.152 0-.54-.035-1.04-.093-1.48zm-10.641.139c.863-.04 1.643-.14 1.643-.14.776-.1.685-1.24-.089-1.199 0 0-2.34.18-3.84.18-1.419 0-3.8-.2-3.8-.2-.78-.04-.881 1.14-.1 1.18 0 0 .72.081 1.5.12l2.24 6.14-3.16 9.44L7.139 9.2c.865-.04 1.645-.133 1.645-.133.78-.1.688-1.24-.087-1.195 0 0-2.328.184-3.832.184-.267 0-.584-.011-.92-.02C6.548 4.2 10.98 1.62 16 1.62c3.745 0 7.153 1.429 9.715 3.777-.061-.004-.121-.012-.188-.012-1.413 0-2.416 1.231-2.416 2.552 0 1.187.684 2.191 1.413 3.375.548.96 1.187 2.191 1.187 3.969 0 1.22-.472 2.659-1.095 4.639l-1.433 4.78-5.2-15.48.001.019zM16 30.379c-1.412 0-2.775-.204-4.064-.583l4.316-12.541 4.42 12.116c.032.071.067.135.104.199-1.493.524-3.1.812-4.776.812zM1.615 16c0-2.085.448-4.067 1.247-5.853l6.859 18.799c-4.795-2.332-8.104-7.251-8.105-12.945zM16 0C7.18 0 0 7.18 0 16s7.18 16 16 16 16-7.18 16-16S24.82 0 16 0z"/></symbol><symbol id="icon-visualstudiocode" viewBox="0 0 32 32"><path fill="var(--color26, #007acc)" d="M32 3.333v25.333l-8 3.333-24-7.333v-.748l24 2.06V-.001zM1.333 17.481l4.513-4.148-4.513-4.148 1.891-1.103 4.58 3.451L16 4l4 1.941v14.784l-4 1.941-8.196-7.533-4.579 3.452zm8.859-4.148L16 17.71V8.955z"/></symbol><symbol id="icon-chevron-small-down" viewBox="0 0 20 20"><path d="M13.418 7.859c.271-.268.709-.268.978 0s.272.701 0 .969l-3.908 3.83a.697.697 0 0 1-.979 0l-3.908-3.83c-.27-.267-.27-.701 0-.969s.709-.268.978 0L10 11l3.418-3.141z"/></symbol><symbol id="icon-chevron-small-right" viewBox="0 0 20 20"><path d="M11 10L7.859 6.58a.695.695 0 0 1 0-.978.68.68 0 0 1 .969 0l3.83 3.908a.697.697 0 0 1 0 .979l-3.83 3.908c-.267.272-.701.27-.969 0s-.268-.707 0-.978L11 10z"/></symbol><symbol id="icon-dots-three-horizontal" viewBox="0 0 20 20"><path d="M10.001 7.8a2.2 2.2 0 1 0 0 4.402A2.2 2.2 0 0 0 10 7.8zm-7 0a2.2 2.2 0 1 0 0 4.402A2.2 2.2 0 0 0 3 7.8zm14 0a2.2 2.2 0 1 0 0 4.402A2.2 2.2 0 0 0 17 7.8z"/></symbol><symbol id="icon-dots-three-vertical" viewBox="0 0 20 20"><path d="M10.001 7.8a2.2 2.2 0 1 0 0 4.402A2.2 2.2 0 0 0 10 7.8zm0-2.6A2.2 2.2 0 1 0 9.999.8a2.2 2.2 0 0 0 .002 4.4zm0 9.6a2.2 2.2 0 1 0 0 4.402 2.2 2.2 0 0 0 0-4.402z"/></symbol><symbol id="icon-save" viewBox="0 0 20 20"><path d="M15.173 2H4c-1.101 0-2 .9-2 2v12c0 1.1.899 2 2 2h12c1.101 0 2-.9 2-2V5.127L15.173 2zM14 8c0 .549-.45 1-1 1H7c-.55 0-1-.451-1-1V3h8v5zm-1-4h-2v4h2V4z"/></symbol><symbol id="icon-trash" viewBox="0 0 20 20"><path d="M3.389 7.113L4.49 18.021c.061.461 2.287 1.977 5.51 1.979 3.225-.002 5.451-1.518 5.511-1.979l1.102-10.908C14.929 8.055 12.412 8.5 10 8.5c-2.41 0-4.928-.445-6.611-1.387zm9.779-5.603l-.859-.951C11.977.086 11.617 0 10.916 0H9.085c-.7 0-1.061.086-1.392.559l-.859.951C4.264 1.959 2.4 3.15 2.4 4.029v.17C2.4 5.746 5.803 7 10 7c4.198 0 7.601-1.254 7.601-2.801v-.17c0-.879-1.863-2.07-4.433-2.519zM12.07 4.34L11 3H9L7.932 4.34h-1.7s1.862-2.221 2.111-2.522c.19-.23.384-.318.636-.318h2.043c.253 0 .447.088.637.318.248.301 2.111 2.522 2.111 2.522h-1.7z"/></symbol><symbol id="icon-book" viewBox="0 0 20 20"><path d="M17 5.95v10.351c0 .522-.452.771-1 1.16-.44.313-1-.075-1-.587V6.76c0-.211-.074-.412-.314-.535S6.948 2.16 6.948 2.16c-.121-.045-.649-.378-1.353-.016-.669.344-1.033.718-1.126.894l8.18 4.482c.217.114.351.29.351.516v10.802a.67.67 0 0 1-.369.585.746.746 0 0 1-.333.077.736.736 0 0 1-.386-.104c-.215-.131-7.774-4.766-8.273-5.067-.24-.144-.521-.439-.527-.658L3 3.385c0-.198-.023-.547.289-1.032C3.986 1.269 6.418.036 7.649.675l8.999 4.555c.217.112.352.336.352.72z"/></symbol><symbol id="icon-cross" viewBox="0 0 20 20"><path d="M14.348 14.849a1.2 1.2 0 0 1-1.697 0L10 11.819l-2.651 3.029a1.2 1.2 0 1 1-1.697-1.697l2.758-3.15-2.759-3.152a1.2 1.2 0 1 1 1.697-1.697L10 8.183l2.651-3.031a1.2 1.2 0 1 1 1.697 1.697l-2.758 3.152 2.758 3.15a1.2 1.2 0 0 1 0 1.698z"/></symbol><symbol id="icon-plus" viewBox="0 0 20 20"><path d="M16 10c0 .553-.048 1-.601 1H11v4.399c0 .552-.447.601-1 .601s-1-.049-1-.601V11H4.601C4.049 11 4 10.553 4 10s.049-1 .601-1H9V4.601C9 4.048 9.447 4 10 4s1 .048 1 .601V9h4.399c.553 0 .601.447.601 1z"/></symbol><symbol id="icon-books" viewBox="0 0 36 32"><path d="M7 4H1c-.55 0-1 .45-1 1v22c0 .55.45 1 1 1h6c.55 0 1-.45 1-1V5c0-.55-.45-1-1-1zm-1 6H2V8h4v2zm11-6h-6c-.55 0-1 .45-1 1v22c0 .55.45 1 1 1h6c.55 0 1-.45 1-1V5c0-.55-.45-1-1-1zm-1 6h-4V8h4v2z"/><path d="M23.909 5.546l-5.358 2.7a1.003 1.003 0 0 0-.443 1.343l8.999 17.861c.247.491.852.691 1.343.443l5.358-2.7c.491-.247.691-.852.443-1.343L25.252 5.989a1.003 1.003 0 0 0-1.343-.443z"/></symbol><symbol id="icon-file-text2" viewBox="0 0 32 32"><path d="M28.681 7.159c-.694-.947-1.662-2.053-2.724-3.116s-2.169-2.03-3.116-2.724C21.229.137 20.448 0 20 0H4.5A2.503 2.503 0 0 0 2 2.5v27C2 30.878 3.122 32 4.5 32h23c1.378 0 2.5-1.122 2.5-2.5V10c0-.448-.137-1.23-1.319-2.841zm-4.138-1.702A27.334 27.334 0 0 1 26.811 8H22V3.189a27.334 27.334 0 0 1 2.543 2.268zM28 29.5c0 .271-.229.5-.5.5h-23a.507.507 0 0 1-.5-.5v-27c0-.271.229-.5.5-.5H20v7a1 1 0 0 0 1 1h7v19.5z"/><path d="M23 26H9a1 1 0 0 1 0-2h14a1 1 0 0 1 0 2zm0-4H9a1 1 0 0 1 0-2h14a1 1 0 0 1 0 2zm0-4H9a1 1 0 0 1 0-2h14a1 1 0 0 1 0 2z"/></symbol><symbol id="icon-stack" viewBox="0 0 32 32"><path d="M32 10L16 2 0 10l16 8 16-8zM16 4.655L26.689 10 16 15.345 5.311 10 16 4.655zm12.795 9.743L32 16l-16 8-16-8 3.205-1.602L16 20.796zm0 6L32 22l-16 8-16-8 3.205-1.602L16 26.796z"/></symbol><symbol id="icon-folder" viewBox="0 0 32 32"><path d="M14 4l4 4h14v22H0V4z"/></symbol><symbol id="icon-folder-open" viewBox="0 0 32 32"><path d="M26 30l6-16H6L0 30zM4 12L0 30V4h9l4 4h13v4z"/></symbol><symbol id="icon-linkedin" viewBox="0 0 32 32"><path d="M29 0H3C1.35 0 0 1.35 0 3v26c0 1.65 1.35 3 3 3h26c1.65 0 3-1.35 3-3V3c0-1.65-1.35-3-3-3zM12 26H8V12h4v14zm-2-16c-1.106 0-2-.894-2-2s.894-2 2-2c1.106 0 2 .894 2 2s-.894 2-2 2zm16 16h-4v-8c0-1.106-.894-2-2-2s-2 .894-2 2v8h-4V12h4v2.481C18.825 13.35 20.087 12 21.5 12c2.488 0 4.5 2.238 4.5 5v9z"/></symbol><symbol id="icon-codepen1" viewBox="0 0 32 32"><path d="M29.555 11.501l-14-9.333a1 1 0 0 0-1.109 0l-14 9.333a1 1 0 0 0-.445.832v9.333a1 1 0 0 0 .445.832l14 9.333a.998.998 0 0 0 1.11 0l14-9.333a1 1 0 0 0 .445-.832v-9.333a1 1 0 0 0-.445-.832zM15 20.465L9.803 17 15 13.535 20.197 17 15 20.465zm1-8.667v-6.93l11.197 7.465L22 15.798l-6-4zm-2 0l-6 4-5.197-3.465L14 4.868v6.93zM6.197 17L2 19.798v-5.596L6.197 17zM8 18.202l6 4v6.93L2.803 21.667 8 18.202zm8 4l6-4 5.197 3.465L16 29.132v-6.93zM23.803 17L28 14.202v5.596L23.803 17z"/></symbol><symbol id="icon-IcoMoon" viewBox="0 0 32 32"><path d="M8.111 16a3.701 3.701 0 1 1 7.402 0 3.701 3.701 0 0 1-7.402 0zM16 0C7.163 0 0 7.163 0 16s7.163 16 16 16c8.836 0 16-7.163 16-16S24.837 0 16 0zm-4.144 29.978C7.045 27.179 3.81 21.968 3.81 16S7.045 4.822 11.856 2.022c4.813 2.799 8.05 8.009 8.05 13.978s-3.237 11.179-8.05 13.978z"/></symbol></defs></svg>